<?xml version="1.0" encoding="utf-8"?>
<!-- Generator: Adobe Illustrator 28.0.0, SVG Export Plug-In . SVG Version: 6.00 Build 0)  -->
<svg version="1.1" id="Слой_1" xmlns="http://www.w3.org/2000/svg" xmlns:xlink="http://www.w3.org/1999/xlink" x="0px" y="0px"
	 viewBox="0 0 300 100" style="enable-background:new 0 0 300 100;" xml:space="preserve">
<style type="text/css">
	.st0{fill:#F7F7F7;}
	.st1{fill-rule:evenodd;clip-rule:evenodd;fill:#FF4433;}
	.st2{fill:#FFCE00;}
</style>
<path class="st0" d="M293.4,100H6.6C3,100,0,97,0,93.4V6.6C0,3,3,0,6.6,0h286.7c3.7,0,6.6,3,6.6,6.6v86.7C300,97,297,100,293.4,100z
	"/>
<path class="st1" d="M18.8,29c0-7.3,5.9-13,13-13s13,5.9,13,13c0,3.6-1.5,6.8-3.8,9.2c-0.6,0.6-1.5,1.3-2.3,2.1
	c-2.5,2.1-5.6,4.6-5.9,7.3c0,0.6-0.5,0.9-0.9,0.9c-0.6,0-0.9-0.5-0.9-0.9c-0.2-2.6-3.3-5.2-5.9-7.3c-0.9-0.7-1.7-1.4-2.3-2.1
	C20.2,35.6,18.8,32.4,18.8,29z M36.4,29c0,2.5-2,4.6-4.5,4.6s-4.6-2-4.6-4.5V29c0-2.5,2.1-4.5,4.6-4.5C34.4,24.5,36.3,26.4,36.4,29z
	"/>
<g>
	<path d="M68.8,22.6v2H61l-1.1,5.7c0.9-1,2.2-1.5,3.9-1.5c1.8,0,3.3,0.6,4.4,1.7c1.1,1.2,1.7,2.7,1.7,4.5c0,1.9-0.6,3.6-1.8,4.8
		c-1.2,1.3-2.8,1.9-4.8,1.9c-1.8,0-3.3-0.5-4.4-1.5c-1.1-1-1.7-2.4-1.8-4h2.3c0.1,1.1,0.5,1.9,1.2,2.6c0.7,0.7,1.6,1,2.7,1
		c1.2,0,2.2-0.4,3-1.3c0.8-0.9,1.2-1.9,1.2-3.2c0-1.3-0.4-2.4-1.2-3.3s-1.8-1.3-3-1.3c-1.6,0-2.8,0.6-3.7,1.9l-2-0.1l1.8-10H68.8z"
		/>
	<path d="M76.3,38.4v1.8c0,0.7,0,1.3-0.1,1.7c-0.1,0.5-0.2,1-0.4,1.4s-0.5,0.9-0.9,1.2c-0.4,0.3-0.9,0.6-1.6,0.7v-1.4
		c1-0.3,1.5-1.2,1.5-2.7h-1.5v-3H76.3z"/>
	<path d="M86.1,22.2c1.2,0,2.1,0.2,3,0.6c0.8,0.4,1.4,0.9,1.9,1.6c0.4,0.6,0.8,1.4,1,2.4c0.3,1,0.4,1.9,0.5,2.7
		c0.1,0.8,0.1,1.7,0.1,2.8c0,1,0,1.9-0.1,2.7c-0.1,0.8-0.3,1.7-0.5,2.5c-0.3,0.9-0.6,1.6-1.1,2.2c-0.5,0.6-1.1,1.1-1.8,1.4
		c-0.8,0.4-1.7,0.6-2.8,0.6c-1.1,0-2.1-0.2-2.9-0.6c-0.8-0.4-1.5-0.9-1.9-1.4s-0.8-1.3-1.1-2.2s-0.4-1.7-0.5-2.5s-0.1-1.7-0.1-2.8
		c0-0.9,0-1.7,0.1-2.4c0-0.7,0.1-1.4,0.3-2.3c0.1-0.8,0.3-1.6,0.6-2.1c0.3-0.6,0.7-1.1,1.1-1.7c0.5-0.5,1-0.9,1.8-1.2
		C84.3,22.4,85.2,22.2,86.1,22.2z M87.6,24.6c-0.4-0.2-0.9-0.3-1.5-0.3c-0.6,0-1.1,0.1-1.5,0.3c-0.4,0.2-0.8,0.4-1.1,0.7
		c-0.3,0.3-0.5,0.7-0.7,1.2c-0.2,0.5-0.3,1-0.4,1.3c-0.1,0.4-0.1,0.9-0.2,1.6c-0.1,0.7-0.1,1.2-0.1,1.4s0,0.7,0,1.4
		c0,0.6,0,1.2,0,1.6c0,0.4,0.1,1,0.1,1.6c0.1,0.7,0.2,1.2,0.4,1.7c0.2,0.4,0.4,0.9,0.7,1.3c0.3,0.4,0.6,0.8,1.1,1
		c0.5,0.2,1,0.3,1.7,0.3c0.5,0,1-0.1,1.4-0.3c0.4-0.2,0.8-0.4,1-0.7c0.3-0.3,0.5-0.7,0.7-1.2c0.2-0.5,0.3-0.9,0.4-1.3
		c0.1-0.4,0.2-0.9,0.2-1.5c0-0.6,0.1-1.1,0.1-1.4c0-0.3,0-0.7,0-1.3c0-0.6,0-1.1,0-1.4c0-0.3,0-0.7-0.1-1.4
		c-0.1-0.7-0.1-1.2-0.2-1.5c-0.1-0.4-0.2-0.8-0.4-1.3c-0.2-0.5-0.4-0.9-0.7-1.2C88.4,25.1,88,24.8,87.6,24.6z"/>
</g>
<g>
	<path d="M17.1,68.8h4.7c1.2,0,2.1,0.3,2.8,0.8c0.7,0.5,1,1.4,1,2.5c0,2.3-1.3,3.4-3.9,3.4h-3.1v4.7h-1.5V68.8z M18.6,70.1v4.1h2.9
		c0.8,0,1.4-0.2,1.9-0.5s0.7-0.8,0.7-1.6c0-0.4-0.1-0.8-0.2-1.1c-0.1-0.3-0.4-0.5-0.6-0.6c-0.3-0.1-0.6-0.2-0.9-0.3
		c-0.3,0-0.7-0.1-1.1-0.1H18.6z"/>
	<path d="M34.2,77.5c-0.4,1.9-1.6,2.9-3.6,2.9c-1.2,0-2.2-0.4-2.8-1.1c-0.7-0.8-1-1.8-1-3.1c0-1.3,0.4-2.4,1.1-3.2
		c0.7-0.8,1.6-1.2,2.8-1.2c1.3,0,2.2,0.4,2.8,1.3c0.6,0.9,0.9,1.9,0.9,3.2v0.2h-6.2l0,0.1c0,0.9,0.2,1.6,0.7,2.1s1.1,0.7,1.9,0.7
		c0.6,0,1.1-0.1,1.4-0.4c0.3-0.3,0.6-0.7,0.8-1.3H34.2z M32.9,75.3c-0.1-0.8-0.3-1.4-0.7-1.8s-1-0.7-1.6-0.7c-0.7,0-1.2,0.2-1.6,0.7
		c-0.4,0.4-0.7,1.1-0.8,1.8H32.9z"/>
	<path d="M37.4,80.1h-1.7v-8.2H37v6.7h0l3.7-6.7h1.7v8.2h-1.4v-6.7h0L37.4,80.1z M41.5,68.8c-0.1,0.7-0.4,1.2-0.8,1.6
		S39.8,71,39.1,71c-0.6,0-1.2-0.2-1.6-0.6c-0.4-0.4-0.7-0.9-0.8-1.6h0.8c0.2,0.8,0.8,1.2,1.6,1.2c0.8,0,1.3-0.4,1.6-1.2H41.5z"/>
	<path d="M50.8,73.1h-2.9v7h-1.4v-7h-2.9v-1.2h7.2V73.1z"/>
	<path d="M53.7,80.1h-1.7v-8.2h1.4v6.7h0l3.7-6.7h1.7v8.2h-1.4v-6.7h0L53.7,80.1z"/>
	<path d="M62.1,80.1h-1.4v-8.2h1.4v3.3h4.1v-3.3h1.4v8.2h-1.4v-3.8h-4.1V80.1z"/>
	<path d="M75.3,73.1H71v7h-1.4v-8.2h5.6V73.1z"/>
	<path d="M81.4,72.8c0.7-0.8,1.7-1.2,2.9-1.2s2.2,0.4,2.9,1.1s1,1.8,1,3.2c0,1.4-0.3,2.5-1,3.2c-0.7,0.8-1.7,1.2-2.9,1.2
		c-1.3,0-2.2-0.4-2.9-1.1c-0.7-0.8-1.1-1.8-1.1-3.2C80.3,74.7,80.7,73.6,81.4,72.8z M86.2,73.7c-0.5-0.6-1.1-0.9-1.9-0.9
		s-1.4,0.3-1.9,0.9c-0.5,0.6-0.7,1.4-0.7,2.3c0,1,0.2,1.8,0.7,2.4c0.5,0.6,1.1,0.9,1.9,0.9c0.8,0,1.4-0.3,1.9-0.9
		c0.5-0.6,0.7-1.4,0.7-2.4C86.9,75,86.7,74.2,86.2,73.7z"/>
	<path d="M91.2,71.9v1.2c0.6-0.9,1.5-1.4,2.8-1.4c1.1,0,2.1,0.4,2.7,1.2c0.7,0.8,1,1.8,1,3.2s-0.3,2.4-1,3.2
		c-0.7,0.8-1.6,1.2-2.7,1.2c-1.2,0-2.1-0.5-2.8-1.4v4.3h-1.4V71.9H91.2z M93.7,72.8c-0.8,0-1.4,0.3-1.9,0.9
		c-0.5,0.6-0.7,1.4-0.7,2.3s0.2,1.8,0.7,2.3c0.5,0.6,1.1,0.9,1.9,0.9c0.8,0,1.4-0.3,1.8-0.9s0.7-1.4,0.7-2.3c0-1-0.2-1.8-0.7-2.3
		C95.1,73.1,94.5,72.8,93.7,72.8z"/>
	<path d="M105,73.1h-4.3v7h-1.4v-8.2h5.6V73.1z"/>
	<path d="M113.3,79v1.1c-0.3,0.1-0.6,0.2-0.9,0.2c-0.8,0-1.2-0.4-1.2-1.2c-0.8,0.9-1.8,1.3-3,1.3c-0.8,0-1.4-0.2-1.9-0.6
		c-0.5-0.4-0.7-1-0.7-1.7c0-1.5,1-2.3,2.9-2.6c0.1,0,0.3,0,0.6-0.1c0.9-0.1,1.5-0.2,1.7-0.4c0.2-0.2,0.4-0.5,0.4-0.9
		c0-0.9-0.6-1.4-1.9-1.4c-0.6,0-1.1,0.1-1.4,0.4c-0.3,0.3-0.5,0.7-0.6,1.3h-1.3c0-0.9,0.3-1.6,0.9-2.1c0.6-0.5,1.4-0.7,2.5-0.7
		c1.2,0,2,0.3,2.6,0.8c0.2,0.2,0.3,0.4,0.4,0.7c0.1,0.3,0.1,0.5,0.1,0.7c0,0.2,0,0.4,0,0.8c0,0.4,0,1,0,1.8c0,0.8,0,1.4,0,1.8
		c0,0.3,0,0.5,0.1,0.6c0.1,0.1,0.2,0.2,0.4,0.2C113,79.1,113.2,79.1,113.3,79z M111.1,75.8c-0.1,0.1-0.2,0.1-0.3,0.2
		c-0.1,0.1-0.2,0.1-0.4,0.1c-0.2,0-0.3,0.1-0.3,0.1c-0.1,0-0.2,0-0.4,0.1c-0.2,0-0.3,0-0.4,0c-0.3,0-0.5,0.1-0.6,0.1
		c-0.1,0-0.3,0.1-0.6,0.1c-0.3,0.1-0.5,0.2-0.6,0.3c-0.1,0.1-0.2,0.2-0.3,0.4c-0.1,0.2-0.2,0.4-0.2,0.7c0,0.4,0.1,0.8,0.4,1
		s0.7,0.4,1.2,0.4c0.6,0,1.2-0.2,1.7-0.6c0.5-0.4,0.8-0.8,0.8-1.4V75.8z"/>
	<path d="M115.9,80.1h-1.4v-8.2h1.4v3.3h4.1v-3.3h1.4v8.2H120v-3.8h-4.1V80.1z"/>
	<path d="M125.2,80.1h-1.7v-8.2h1.4v6.7h0l3.7-6.7h1.7v8.2h-1.4v-6.7h0L125.2,80.1z"/>
	<path d="M131.8,74.3c0.1-0.9,0.4-1.6,1.1-2c0.6-0.4,1.4-0.6,2.4-0.6c0.9,0,1.6,0.2,2.2,0.6c0.6,0.4,0.9,0.9,0.9,1.7
		c0,0.4-0.1,0.8-0.4,1.1c-0.3,0.3-0.6,0.5-0.9,0.6v0c0.4,0.1,0.8,0.3,1.1,0.6s0.5,0.8,0.5,1.4c0,0.8-0.3,1.5-1,2
		c-0.7,0.5-1.5,0.7-2.4,0.7c-1.1,0-1.9-0.2-2.6-0.7c-0.6-0.5-1-1.2-1-2.1h1.4c0,0.6,0.3,1,0.7,1.3c0.4,0.3,0.9,0.4,1.5,0.4
		s1.1-0.2,1.5-0.5s0.5-0.7,0.5-1.1c0-0.9-0.6-1.3-1.8-1.3h-1.1v-1.1h0.9c0.5,0,0.9-0.1,1.3-0.3c0.3-0.2,0.5-0.6,0.5-1
		c0-0.3-0.2-0.6-0.5-0.8c-0.3-0.2-0.7-0.4-1.3-0.4c-0.5,0-1,0.1-1.4,0.4c-0.4,0.2-0.6,0.6-0.7,1.1H131.8z"/>
	<path d="M147.5,79v1.1c-0.3,0.1-0.6,0.2-0.9,0.2c-0.8,0-1.2-0.4-1.2-1.2c-0.8,0.9-1.8,1.3-3,1.3c-0.8,0-1.4-0.2-1.9-0.6
		c-0.5-0.4-0.7-1-0.7-1.7c0-1.5,1-2.3,2.9-2.6c0.1,0,0.3,0,0.6-0.1c0.9-0.1,1.5-0.2,1.7-0.4c0.2-0.2,0.4-0.5,0.4-0.9
		c0-0.9-0.6-1.4-1.9-1.4c-0.6,0-1.1,0.1-1.4,0.4c-0.3,0.3-0.5,0.7-0.6,1.3h-1.3c0-0.9,0.3-1.6,0.9-2.1c0.6-0.5,1.4-0.7,2.5-0.7
		c1.2,0,2,0.3,2.6,0.8c0.2,0.2,0.3,0.4,0.4,0.7c0.1,0.3,0.1,0.5,0.1,0.7c0,0.2,0,0.4,0,0.8c0,0.4,0,1,0,1.8c0,0.8,0,1.4,0,1.8
		c0,0.3,0,0.5,0.1,0.6c0.1,0.1,0.2,0.2,0.4,0.2C147.3,79.1,147.4,79.1,147.5,79z M145.3,75.8c-0.1,0.1-0.2,0.1-0.3,0.2
		c-0.1,0.1-0.2,0.1-0.4,0.1c-0.2,0-0.3,0.1-0.3,0.1c-0.1,0-0.2,0-0.4,0.1c-0.2,0-0.3,0-0.4,0c-0.3,0-0.5,0.1-0.6,0.1
		c-0.1,0-0.3,0.1-0.6,0.1c-0.3,0.1-0.5,0.2-0.6,0.3c-0.1,0.1-0.2,0.2-0.3,0.4c-0.1,0.2-0.2,0.4-0.2,0.7c0,0.4,0.1,0.8,0.4,1
		s0.7,0.4,1.2,0.4c0.6,0,1.2-0.2,1.7-0.6c0.5-0.4,0.8-0.8,0.8-1.4V75.8z"/>
	<path d="M155.3,82.7v-2.6h-6.5v-8.2h1.4v7h4v-7h1.4v7h1.1v3.8H155.3z"/>
	<path d="M159.6,80.1h-1.7v-8.2h1.4v6.7h0l3.7-6.7h1.7v8.2h-1.4v-6.7h0L159.6,80.1z"/>
	<path d="M168.5,80.1h-1.7v-8.2h1.4v6.7h0l3.7-6.7h1.7v8.2h-1.4v-6.7h0L168.5,80.1z"/>
	<path d="M180,80.1v-8.2h3.8c0.5,0,1,0,1.4,0.1c0.4,0.1,0.7,0.3,1,0.6c0.3,0.3,0.4,0.7,0.4,1.3c0,0.8-0.4,1.4-1.2,1.8v0
		c0.5,0.1,0.9,0.3,1.1,0.7c0.3,0.4,0.4,0.8,0.4,1.3c0,0.7-0.2,1.3-0.7,1.7c-0.5,0.5-1.1,0.7-1.8,0.7H180z M183.6,75.2
		c0.6,0,1-0.1,1.2-0.3s0.4-0.5,0.4-0.8c0-0.4-0.1-0.6-0.4-0.8s-0.6-0.3-1.2-0.3h-2.3v2.1H183.6z M181.3,76.4V79h2.9
		c0.4,0,0.8-0.1,1-0.4c0.2-0.3,0.4-0.6,0.4-1c0-0.8-0.5-1.2-1.6-1.2H181.3z"/>
	<path d="M197.5,75.3l-3.7,4.8h-1.8l3.8-4.9c-0.9-0.1-1.6-0.4-2.1-1c-0.5-0.5-0.7-1.3-0.7-2.2c0-1.1,0.3-1.9,0.9-2.4
		c0.6-0.6,1.5-0.8,2.6-0.8h4.9v11.3h-1.5v-4.8H197.5z M199.8,74V70H197c-1.7,0-2.6,0.7-2.6,2s0.9,2,2.6,2H199.8z"/>
	<path d="M205,80.1h-1.4v-8.2h1.4v3.3h4.1v-3.3h1.4v8.2h-1.4v-3.8H205V80.1z"/>
	<path d="M220.4,82.7h-1.3v-2.6h-6.3v2.6h-1.3v-3.8h0.9c0.3-0.5,0.5-1.2,0.7-2.3s0.3-2,0.3-3v-1.8h5.9v7h1.1V82.7z M218,78.9v-5.8
		h-3.2v0.7c0,1-0.1,1.9-0.3,2.9c-0.2,1-0.4,1.7-0.7,2.2H218z"/>
	<path d="M228.6,77.5c-0.4,1.9-1.6,2.9-3.6,2.9c-1.2,0-2.2-0.4-2.8-1.1c-0.7-0.8-1-1.8-1-3.1c0-1.3,0.4-2.4,1.1-3.2
		c0.7-0.8,1.6-1.2,2.8-1.2c1.3,0,2.2,0.4,2.8,1.3s0.9,1.9,0.9,3.2v0.2h-6.2l0,0.1c0,0.9,0.2,1.6,0.7,2.1c0.5,0.5,1.1,0.7,1.9,0.7
		c0.6,0,1.1-0.1,1.4-0.4s0.6-0.7,0.8-1.3H228.6z M227.3,75.3c-0.1-0.8-0.3-1.4-0.7-1.8s-1-0.7-1.6-0.7c-0.7,0-1.2,0.2-1.6,0.7
		c-0.4,0.4-0.7,1.1-0.8,1.8H227.3z"/>
	<path d="M237.5,80.1h-1.7l-3-4l-1.3,1.3v2.8h-1.4v-8.2h1.4v3.9l3.8-3.9h1.8l-3.3,3.2L237.5,80.1z"/>
	<path d="M245.5,77.1c-0.1,1-0.5,1.8-1.1,2.4c-0.6,0.6-1.5,0.9-2.5,0.9c-1.2,0-2.2-0.4-2.9-1.2c-0.7-0.8-1-1.8-1-3.1
		c0-1.4,0.4-2.5,1.1-3.3c0.7-0.8,1.7-1.2,2.9-1.2c1,0,1.8,0.3,2.4,0.8c0.6,0.5,1,1.2,1.1,2.2H244c-0.2-1.2-0.9-1.8-2.1-1.8
		c-0.8,0-1.4,0.3-1.9,0.9c-0.5,0.6-0.7,1.4-0.7,2.3c0,1,0.2,1.8,0.7,2.4c0.4,0.6,1,0.9,1.8,0.9c0.6,0,1.1-0.2,1.5-0.5
		c0.4-0.4,0.6-0.9,0.7-1.6H245.5z"/>
	<path d="M254,77.5c-0.4,1.9-1.6,2.9-3.6,2.9c-1.2,0-2.2-0.4-2.8-1.1c-0.7-0.8-1-1.8-1-3.1c0-1.3,0.4-2.4,1.1-3.2
		c0.7-0.8,1.6-1.2,2.8-1.2c1.3,0,2.2,0.4,2.8,1.3s0.9,1.9,0.9,3.2v0.2h-6.2l0,0.1c0,0.9,0.2,1.6,0.7,2.1c0.5,0.5,1.1,0.7,1.9,0.7
		c0.6,0,1.1-0.1,1.4-0.4s0.6-0.7,0.8-1.3H254z M252.7,75.3c-0.1-0.8-0.3-1.4-0.7-1.8s-1-0.7-1.6-0.7c-0.7,0-1.2,0.2-1.6,0.7
		c-0.4,0.4-0.7,1.1-0.8,1.8H252.7z"/>
</g>
<path class="st2" d="M147.5,27.7l-6.6-0.9c-0.4,0-0.7-0.2-0.9-0.7l-2.6-5.7c-0.4-0.9-1.8-0.9-2.2,0l-2.4,5.7c0,0.4-0.4,0.7-0.9,0.7
	l-6.6,0.9c-0.9,0.2-1.3,1.3-0.4,2l4.8,4.6c0.2,0.2,0.4,0.7,0.2,1.1l-1.3,6.4c-0.2,0.9,0.9,1.8,1.8,1.3l5.5-3.3
	c0.2-0.2,0.9-0.2,1.1,0l5.5,3.3c0.9,0.4,2-0.2,1.8-1.3l-1.3-6.4c0-0.4,0-0.9,0.2-1.1l4.8-4.6C148.8,29,148.4,27.9,147.5,27.7
	L147.5,27.7z"/>
<path class="st2" d="M179.7,27.7l-6.6-0.9c-0.4,0-0.7-0.2-0.9-0.7l-2.6-5.7c-0.4-0.9-1.8-0.9-2.2,0l-2.4,5.7c0,0.4-0.4,0.7-0.9,0.7
	l-6.6,0.9c-0.9,0.2-1.3,1.3-0.4,2l4.8,4.6c0.2,0.2,0.4,0.7,0.2,1.1l-1.3,6.4c-0.2,0.9,0.9,1.8,1.8,1.3l5.5-3.3
	c0.2-0.2,0.9-0.2,1.1,0l5.5,3.3c0.9,0.4,2-0.2,1.8-1.3l-1.3-6.4c0-0.4,0-0.9,0.2-1.1l4.8-4.6C181,29,180.6,27.9,179.7,27.7
	L179.7,27.7z"/>
<path class="st2" d="M211.9,27.7l-6.6-0.9c-0.4,0-0.7-0.2-0.9-0.7l-2.6-5.7c-0.4-0.9-1.8-0.9-2.2,0l-2.4,5.7c0,0.4-0.4,0.7-0.9,0.7
	l-6.6,0.9c-0.9,0.2-1.3,1.3-0.4,2l4.8,4.6c0.2,0.2,0.4,0.7,0.2,1.1l-1.3,6.4c-0.2,0.9,0.9,1.8,1.8,1.3l5.5-3.3
	c0.2-0.2,0.9-0.2,1.1,0l5.5,3.3c0.9,0.4,2-0.2,1.8-1.3l-1.3-6.4c0-0.4,0-0.9,0.2-1.1l4.8-4.6C213.3,29,212.8,27.9,211.9,27.7
	L211.9,27.7z"/>
<path class="st2" d="M244.2,27.7l-6.6-0.9c-0.4,0-0.7-0.2-0.9-0.7l-2.6-5.7c-0.4-0.9-1.8-0.9-2.2,0l-2.4,5.7c0,0.4-0.4,0.7-0.9,0.7
	l-6.6,0.9c-0.9,0.2-1.3,1.3-0.4,2l4.8,4.6c0.2,0.2,0.4,0.7,0.2,1.1l-1.3,6.4c-0.2,0.9,0.9,1.8,1.8,1.3l5.5-3.3
	c0.2-0.2,0.9-0.2,1.1,0l5.5,3.3c0.9,0.4,2-0.2,1.8-1.3l-1.3-6.4c0-0.4,0-0.9,0.2-1.1l4.8-4.6C245.5,29,245,27.9,244.2,27.7
	L244.2,27.7z"/>
<path class="st2" d="M276.4,27.7l-6.6-0.9c-0.4,0-0.7-0.2-0.9-0.7l-2.6-5.7c-0.4-0.9-1.8-0.9-2.2,0l-2.4,5.7c0,0.4-0.4,0.7-0.9,0.7
	l-6.6,0.9c-0.9,0.2-1.3,1.3-0.4,2l4.8,4.6c0.2,0.2,0.4,0.7,0.2,1.1l-1.3,6.4c-0.2,0.9,0.9,1.8,1.8,1.3l5.5-3.3
	c0.2-0.2,0.9-0.2,1.1,0l5.5,3.3c0.9,0.4,2-0.2,1.8-1.3l-1.3-6.4c0-0.4,0-0.9,0.2-1.1l4.8-4.6C277.7,29,277.3,27.9,276.4,27.7
	L276.4,27.7z"/>
</svg>
