<svg width="102" height="111" viewBox="0 0 102 111" fill="none" xmlns="http://www.w3.org/2000/svg">
<g clip-path="url(#clip0_79_22)">
<mask id="mask0_79_22" style="mask-type:luminance" maskUnits="userSpaceOnUse" x="0" y="0" width="102" height="111">
<path d="M39.9945 -0.000157198L101.957 31.0531L61.962 110.856L0 79.8027L39.9945 -0.000157198Z" fill="white"/>
</mask>
<g mask="url(#mask0_79_22)">
<path d="M40.8459 3.94929C40.1768 3.38875 39.4999 2.85564 38.8177 2.34816L40.4094 0.207789C41.1328 0.746312 41.849 1.31107 42.5592 1.90563L40.8459 3.94929Z" fill="#EBEBEB"/>
</g>
<mask id="mask1_79_22" style="mask-type:luminance" maskUnits="userSpaceOnUse" x="0" y="0" width="102" height="111">
<path d="M39.9945 -0.000157198L101.957 31.0531L61.962 110.856L0 79.8027L39.9945 -0.000157198Z" fill="white"/>
</mask>
<g mask="url(#mask1_79_22)">
<path d="M47.7928 11.0355C46.7326 9.73456 45.6181 8.4855 44.4827 7.32288L46.3896 5.45828C47.5804 6.67701 48.7485 7.98575 49.8605 9.34989L47.7928 11.0355ZM53.4534 19.2474C52.6116 17.7994 51.7125 16.3794 50.7824 15.0274L52.9793 13.5155C53.9476 14.9224 54.8836 16.3997 55.7599 17.9067L53.4534 19.2474ZM57.8701 28.2214C57.2323 26.6699 56.5391 25.1338 55.8148 23.6567L58.2076 22.4801C58.9604 24.0103 59.6757 25.6007 60.3367 27.2071L57.8701 28.2214ZM61.0931 37.7084C60.6557 36.0992 60.1623 34.4858 59.6289 32.9135L62.1526 32.056C62.705 33.6796 63.2127 35.3449 63.6667 37.0071L61.0931 37.7084ZM63.1715 47.5269C62.9173 45.8648 62.6153 44.2027 62.2722 42.5871L64.8808 42.0361C65.2323 43.7007 65.5437 45.4123 65.8057 47.1215L63.1715 47.5269ZM64.1538 57.521C64.0797 55.8537 63.9584 54.1673 63.796 52.5095L66.4485 52.249C66.6168 53.9545 66.7399 55.688 66.8176 57.4018L64.1538 57.521ZM64.0962 67.5725C64.1901 65.909 64.243 64.2173 64.2523 62.5472L66.9189 62.5622C66.9083 64.2765 66.8543 66.0122 66.7596 67.7217L64.0962 67.5725ZM63.0582 77.5802C63.3078 75.9245 63.5223 74.2438 63.6944 72.5881L66.347 72.8631C66.1701 74.5611 65.952 76.2818 65.6952 77.9786L63.0582 77.5802ZM61.1153 87.4594C61.5104 85.8319 61.8738 84.1752 62.1968 82.5399L64.8134 83.0563C64.4833 84.7298 64.1102 86.4235 63.7067 88.0885L61.1153 87.4594ZM58.3341 97.1453C58.8609 95.5584 59.3627 93.9382 59.824 92.3305L62.3885 93.0669C61.9159 94.7092 61.4039 96.3646 60.864 97.9866L58.3341 97.1453Z" fill="#EBEBEB"/>
</g>
<mask id="mask2_79_22" style="mask-type:luminance" maskUnits="userSpaceOnUse" x="0" y="0" width="102" height="111">
<path d="M39.9945 -0.000157198L101.957 31.0531L61.962 110.856L0 79.8027L39.9945 -0.000157198Z" fill="white"/>
</mask>
<g mask="url(#mask2_79_22)">
<path d="M55.6826 104.409C56.0101 103.583 56.3299 102.76 56.6395 101.94L59.1341 102.878C58.8191 103.715 58.4957 104.554 58.1592 105.395L55.6826 104.409Z" fill="#EBEBEB"/>
</g>
<mask id="mask3_79_22" style="mask-type:luminance" maskUnits="userSpaceOnUse" x="0" y="0" width="102" height="111">
<path d="M39.9945 -0.000157198L101.957 31.0531L61.962 110.856L0 79.8027L39.9945 -0.000157198Z" fill="white"/>
</mask>
<g mask="url(#mask3_79_22)">
<path d="M55.5788 107.657L51.4929 93.1664L54.5723 92.2981L57.4577 102.524L65.8665 96.8398L67.6582 99.4901L55.5788 107.657Z" fill="#EBEBEB"/>
</g>
</g>
<defs>
<clipPath id="clip0_79_22">
<rect width="69.308" height="89.264" fill="white" transform="translate(39.9946) rotate(26.6185)"/>
</clipPath>
</defs>
</svg>
