<svg xmlns="http://www.w3.org/2000/svg" version="1.1" xmlns:xlink="http://www.w3.org/1999/xlink" id="Слой_1" x="0px" y="0px" viewBox="0 0 512 512" style="enable-background:new 0 0 512 512;" xml:space="preserve" width="512" height="512"><metadata><rdf:RDF xmlns:rdf="http://www.w3.org/1999/02/22-rdf-syntax-ns#" xmlns:dc="http://purl.org/dc/elements/1.1/"><rdf:Description><dc:creator>RealFaviconGenerator</dc:creator><dc:source>https://realfavicongenerator.net</dc:source></rdf:Description></rdf:RDF></metadata><style type="text/css">
	.st0{fill:url(#SVGID_1_);}
	.st1{clip-path:url(#SVGID_00000085959006621441449480000002651052333872963259_);fill:#4B9ED4;}
	.st2{clip-path:url(#SVGID_00000181082128386297573280000006262942008442786189_);fill:#2477AE;}
	.st3{clip-path:url(#SVGID_00000010299859459199060680000012963158725292676248_);fill:#9BA957;}
	.st4{fill:#FFFFFF;}
	.st5{fill:#9049FF;}
</style><g>
	<linearGradient id="SVGID_1_" gradientUnits="userSpaceOnUse" x1="222.3699" y1="53.0505" x2="295.1898" y2="492.5012">
		<stop offset="0.4684" style="stop-color:#59A4DA"></stop>
		<stop offset="0.5565" style="stop-color:#5DA6DB"></stop>
		<stop offset="0.6391" style="stop-color:#68ACDD"></stop>
		<stop offset="0.7195" style="stop-color:#7BB7E2"></stop>
		<stop offset="0.7986" style="stop-color:#96C5E8"></stop>
		<stop offset="0.8766" style="stop-color:#B8D8EF"></stop>
		<stop offset="0.9529" style="stop-color:#E1EFF8"></stop>
		<stop offset="1" style="stop-color:#FFFFFF"></stop>
	</linearGradient>
	<rect class="st0" width="512" height="512"></rect>
	<g>
		<g>
			<g>
				<defs>
					<path id="SVGID_00000160904782845145279700000002731734531765542818_" d="M201.1,422.2l-18.3,10.6c-1.4,0.8-2.2,2.3-2.2,3.9
						v21.2c0,1.6,0.9,3.1,2.2,3.9l18.3,10.6c1.4,0.8,3.1,0.8,4.5,0l18.3-10.6c1.4-0.8,2.2-2.3,2.2-3.9v-21.2c0-1.6-0.9-3.1-2.2-3.9
						l-18.3-10.6c-0.7-0.4-1.5-0.6-2.2-0.6C202.6,421.6,201.8,421.8,201.1,422.2"></path>
				</defs>
				<use xlink:href="#SVGID_00000160904782845145279700000002731734531765542818_" style="overflow:visible;fill:#4B9ED4;"></use>
				<clipPath id="SVGID_00000003064884052403705650000004368991436229443518_">
					<use xlink:href="#SVGID_00000160904782845145279700000002731734531765542818_" style="overflow:visible;"></use>
				</clipPath>
				<path style="clip-path:url(#SVGID_00000003064884052403705650000004368991436229443518_);fill:#4B9ED4;" d="M226.2,457.8v-21.2
					c0-1.6-0.9-3.1-2.2-3.9l-18.3-10.6c-1.4-0.8-3.1-0.8-4.5,0l-18.3,10.6c-1.4,0.8-2.2,2.3-2.2,3.9v21.2c0,1.6,0.9,3.1,2.2,3.9
					l18.3,10.6c1.4,0.8,3.1,0.8,4.5,0l18.3-10.6C225.3,460.9,226.2,459.4,226.2,457.8"></path>
			</g>
			<g>
				<g>
					<defs>
						<path id="SVGID_00000023254994545645190500000014404207559695655040_" d="M253.8,422.2l-18.3,10.6c-1.4,0.8-2.2,2.3-2.2,3.9
							v21.2c0,1.6,0.9,3.1,2.2,3.9l18.3,10.6c1.4,0.8,3.1,0.8,4.5,0l18.3-10.6c1.4-0.8,2.2-2.3,2.2-3.9v-21.2c0-1.6-0.9-3.1-2.2-3.9
							l-18.3-10.6c-0.7-0.4-1.5-0.6-2.2-0.6C255.2,421.6,254.4,421.8,253.8,422.2"></path>
					</defs>
					<use xlink:href="#SVGID_00000023254994545645190500000014404207559695655040_" style="overflow:visible;fill:#2477AE;"></use>
					<clipPath id="SVGID_00000097460034186916020260000010284929853586338472_">
						<use xlink:href="#SVGID_00000023254994545645190500000014404207559695655040_" style="overflow:visible;"></use>
					</clipPath>
					<path style="clip-path:url(#SVGID_00000097460034186916020260000010284929853586338472_);fill:#2477AE;" d="M278.8,457.8v-21.2
						c0-1.6-0.9-3.1-2.2-3.9l-18.3-10.6c-1.4-0.8-3.1-0.8-4.5,0l-18.3,10.6c-1.4,0.8-2.2,2.3-2.2,3.9v21.2c0,1.6,0.9,3.1,2.2,3.9
						l18.3,10.6c1.4,0.8,3.1,0.8,4.5,0l18.3-10.6C278,460.9,278.8,459.4,278.8,457.8"></path>
				</g>
			</g>
			<g>
				<g>
					<defs>
						<path id="SVGID_00000041291454357720250620000014631885755468386946_" d="M306.4,422.2l-18.3,10.6c-1.4,0.8-2.2,2.3-2.2,3.9
							v21.2c0,1.6,0.9,3.1,2.2,3.9l18.3,10.6c1.4,0.8,3.1,0.8,4.5,0l18.3-10.6c1.4-0.8,2.2-2.3,2.2-3.9v-21.2c0-1.6-0.9-3.1-2.2-3.9
							l-18.3-10.6c-0.7-0.4-1.5-0.6-2.2-0.6C307.9,421.6,307.1,421.8,306.4,422.2"></path>
					</defs>
					<use xlink:href="#SVGID_00000041291454357720250620000014631885755468386946_" style="overflow:visible;fill:#9BA957;"></use>
					<clipPath id="SVGID_00000084525496981478520890000006444206986344554159_">
						<use xlink:href="#SVGID_00000041291454357720250620000014631885755468386946_" style="overflow:visible;"></use>
					</clipPath>
					<path style="clip-path:url(#SVGID_00000084525496981478520890000006444206986344554159_);fill:#9BA957;" d="M331.5,457.8v-21.2
						c0-1.6-0.9-3.1-2.2-3.9l-18.3-10.6c-1.4-0.8-3.1-0.8-4.5,0l-18.3,10.6c-1.4,0.8-2.2,2.3-2.2,3.9v21.2c0,1.6,0.9,3.1,2.2,3.9
						l18.3,10.6c1.4,0.8,3.1,0.8,4.5,0l18.3-10.6C330.6,460.9,331.5,459.4,331.5,457.8"></path>
				</g>
			</g>
		</g>
		<path class="st4" d="M429.2,318.3l0-1.7c0-39.6-25.7-77.6-58.5-86.4l-0.1,0c-14.2-3.7-28.7-6.4-42.7-9.1c-2.5-0.5-5.1-1-7.6-1.5
			c0.3-29.1,0.3-57.4,0-86.4c3.1,0.7,6.3,1.3,9.3,1.9c2.6,0.5,5.3,1.1,8.1,1.6c18,3.7,23.7-7.5,25.5-14.5l0.1-0.3
			c4-17.5-4.9-26.7-14.6-29.5C309,81,173.8,54.1,167.3,52.9c-3.8-0.8-6.9-0.5-9.5,0.9c-5.1,2.5-12.5,9.2-9.6,25.9l0.1,0.6
			c2.5,10.9,9,18.2,18.4,20.4l5,1.1c6.8,1.5,13.3,2.9,19.8,4.2v22.6l0,0.2c-0.1,20.8-0.2,42.2-0.1,63.5c-2-0.4-4-0.9-6-1.3
			c-13.1-2.9-26.7-5.8-40.3-8.2l-0.3,0c-14.5-2.1-28.6,2-39.9,11.7c-14,12-22.2,31-22.4,52.4v265.1h42.1V256.6
			c0-11,2.8-19.4,7.9-23.6c3.5-2.8,8.1-3.7,13.8-2.6c55.8,11.5,112.6,23.5,167.5,35.2c15.8,3.3,31.6,6.7,47.4,10l0.2,0
			c3.8,0.7,7.4,2.4,10.5,5c10.4,8.8,15.1,20.3,14.9,36.1l0,194.9h42.3v-10.2C429.4,440.4,429.3,378.3,429.2,318.3z M278.3,210
			c-11.5-2.5-23.2-4.8-34.5-7.1c-3.4-0.7-6.8-1.4-10.2-2.1v-85.5c14.4,3.2,29.5,6.4,44.8,9.2c0,1.3,0,2.7,0,4.2
			c-0.1,9-0.1,18.3,0,27.2c0,4.6,0,9.2,0,13.7c0,5.3,0,10.6-0.1,15.8C278.3,193.5,278.3,201.8,278.3,210z"></path>
		<g>
			<path class="st4" d="M343.5,348.6l-175.2,10.8c-4.7,0.3-8.8-3.3-9.1-8.1l-1.4-22.9c-0.3-4.7,3.3-8.8,8.1-9.1l175.2-10.8
				c4.7-0.3,8.8,3.3,9.1,8.1l1.4,22.9C351.9,344.2,348.3,348.3,343.5,348.6z"></path>
			<path class="st5" d="M344.9,385.2l-116.5-5.4c-4.6-0.2-8.1-4.1-7.9-8.7l0.7-14.2c0.2-4.6,4.1-8.1,8.7-7.9l116.5,5.4
				c4.6,0.2,8.1,4.1,7.9,8.7l-0.7,14.2C353.4,381.8,349.5,385.4,344.9,385.2z"></path>
		</g>
	</g>
</g></svg>