<svg xmlns="http://www.w3.org/2000/svg" aria-hidden="true" style="position:absolute;width:0;height:0;overflow:hidden">
  <symbol id="phone" viewBox="0 0 40 40" fill="none">
    <path fill-rule="evenodd" clip-rule="evenodd" d="M20 0C9 0 0 9 0 20C0 31 9 40 20 40C31 40 40 31 40 20C40 9 31 0 20 0ZM30.1 27.8L29.1 30.7C28.9 31.5 28.3 32 27.5 32.1C25.9 32.3 23.7 31.6 21.5 30.1C16.7 27 12.2 20.9 10.5 15.4C9.7 12.8 9.6 10.6 10.3 9.1C10.6 8.4 11.3 7.9 12.1 7.9L15.2 7.8C16.2 7.8 17.1 8.5 17.3 9.5L17.7 11.9C17.8 12.3 17.7 12.6 17.6 13C17.4 13.6 17 13.8 16.5 14.2C15.8 14.8 15.6 15.7 16 16.5C17.5 19.4 19.6 22.2 22 24.5C22.7 25.1 23.7 25.2 24.4 24.7L24.8 24.4C25.4 24 26.1 23.9 26.8 24.2L29 25.2C29.9 25.8 30.4 26.8 30.1 27.8Z" fill="currentColor"/>
  </symbol>
</svg>
