<svg xmlns="http://www.w3.org/2000/svg" aria-hidden="true" style="position:absolute;width:0;height:0;overflow:hidden">
  <symbol id="phone" viewBox="0 0 40 40" fill="none">
    <path fill-rule="evenodd" clip-rule="evenodd" d="M20 0C9 0 0 9 0 20C0 31 9 40 20 40C31 40 40 31 40 20C40 9 31 0 20 0ZM30.1 27.8L29.1 30.7C28.9 31.5 28.3 32 27.5 32.1C25.9 32.3 23.7 31.6 21.5 30.1C16.7 27 12.2 20.9 10.5 15.4C9.7 12.8 9.6 10.6 10.3 9.1C10.6 8.4 11.3 7.9 12.1 7.9L15.2 7.8C16.2 7.8 17.1 8.5 17.3 9.5L17.7 11.9C17.8 12.3 17.7 12.6 17.6 13C17.4 13.6 17 13.8 16.5 14.2C15.8 14.8 15.6 15.7 16 16.5C17.5 19.4 19.6 22.2 22 24.5C22.7 25.1 23.7 25.2 24.4 24.7L24.8 24.4C25.4 24 26.1 23.9 26.8 24.2L29 25.2C29.9 25.8 30.4 26.8 30.1 27.8Z" fill="currentColor"/>
  </symbol>
  <symbol id="calendar" viewBox="0 0 20 20" fill="none">
    <rect x="2.5" y="4" width="15" height="13.5" rx="2" stroke="currentColor" stroke-width="1.5"/>
    <path d="M2.5 8h15M6.5 2v3M13.5 2v3" stroke="currentColor" stroke-width="1.5" stroke-linecap="round"/>
  </symbol>
  <symbol id="man" viewBox="-0.5 -0.5 12 12" fill="none">
    <path d="M5.4 0c.1 0 .1 0 .2 0 3.4-.1 2.9 4.1 1.8 6-.2.4-.5.7-.4 1 .2 1.3 3.1.9 3.7 1.7.5.5.2 1.3.3 2.3-3.7 0-7.4.1-11 0 .1-1-.1-1.7.3-2.2.7-.8 3.6-.4 3.7-1.7 0-.3-.2-.6-.4-1-1.1-2.6-1.5-6.6 1.8-6.6z" fill="currentColor"/>
  </symbol>
  <symbol id="phone-handset" viewBox="-0.5 -0.5 12 12" fill="none">
    <path d="M.8.5c.4-.4 1.8-.5 1.8-.3 0 .2 1.2 2.8 1.2 3 0 .2-.8 1-1 1.3-.2.2 1.6 2.2 1.6 2.3 0 0 2.1 1.8 2.3 1.6.2-.2 1-1 1.3-1 .2 0 2.8 1.2 3 1.2.2 0 .2 1.3-.3 1.8-.4.4-2.3 1.7-5.7-.7-.4-.2-1-.7-1.9-1.6-.9-.9-1.4-1.5-1.6-1.9C-.1 2.8 1.3.8.8.5z" fill="currentColor"/>
  </symbol>
  <symbol id="clock" viewBox="0 0 40 40" fill="none">
    <path stroke="currentColor" stroke-width="2" stroke-linecap="round" stroke-miterlimit="56" d="M21.5 27.8l-1.7-7.5 3.8-8.4"/>
    <path stroke="currentColor" stroke-width="2" stroke-miterlimit="56" d="M37.1 27.8c-4.3 9.4-15.5 13.6-24.9 9.3S-1.4 21.6 2.9 12.2 18.4-1.4 27.8 2.9 41.4 18.4 37.1 27.8"/>
    <path stroke="currentColor" stroke-width="2" stroke-linecap="round" stroke-miterlimit="56" d="M27 4.6l-.3.7"/>
    <path stroke="currentColor" stroke-width="2" stroke-linecap="round" stroke-miterlimit="56" d="M13.3 34.7 13 35.4"/>
    <path stroke="currentColor" stroke-width="2" stroke-linecap="round" stroke-miterlimit="56" d="M5.3 13.3 4.6 13"/>
    <path stroke="currentColor" stroke-width="2" stroke-linecap="round" stroke-miterlimit="56" d="M35.4 27l-.7-.3"/>
  </symbol>
</svg>
