<svg xmlns="http://www.w3.org/2000/svg" aria-hidden="true" style="position:absolute;width:0;height:0;overflow:hidden">
  <symbol id="phone" viewBox="0 0 40 40" fill="none">
    <path fill-rule="evenodd" clip-rule="evenodd" d="M20 0C9 0 0 9 0 20C0 31 9 40 20 40C31 40 40 31 40 20C40 9 31 0 20 0ZM30.1 27.8L29.1 30.7C28.9 31.5 28.3 32 27.5 32.1C25.9 32.3 23.7 31.6 21.5 30.1C16.7 27 12.2 20.9 10.5 15.4C9.7 12.8 9.6 10.6 10.3 9.1C10.6 8.4 11.3 7.9 12.1 7.9L15.2 7.8C16.2 7.8 17.1 8.5 17.3 9.5L17.7 11.9C17.8 12.3 17.7 12.6 17.6 13C17.4 13.6 17 13.8 16.5 14.2C15.8 14.8 15.6 15.7 16 16.5C17.5 19.4 19.6 22.2 22 24.5C22.7 25.1 23.7 25.2 24.4 24.7L24.8 24.4C25.4 24 26.1 23.9 26.8 24.2L29 25.2C29.9 25.8 30.4 26.8 30.1 27.8Z" fill="currentColor"/>
  </symbol>
  <symbol id="calendar" viewBox="0 0 20 20" fill="none">
    <rect x="2.5" y="4" width="15" height="13.5" rx="2" stroke="currentColor" stroke-width="1.5"/>
    <path d="M2.5 8h15M6.5 2v3M13.5 2v3" stroke="currentColor" stroke-width="1.5" stroke-linecap="round"/>
  </symbol>
  <symbol id="man" viewBox="292.1 415.4 11 11" fill="none">
    <path d="M297.5 415.4c.1 0 .1 0 .2 0 3.4-.1 2.9 4.1 1.8 6-.2.4-.5.7-.4 1 .2 1.3 3.1.9 3.7 1.7.5.5.2 1.3.3 2.3-3.7 0-7.4.1-11 0 .1-1-.1-1.7.3-2.2.7-.8 3.6-.4 3.7-1.7 0-.3-.2-.6-.4-1-1.1-2.6-1.5-6.6 1.8-6.6z" fill="currentColor"/>
  </symbol>
  <symbol id="phone-handset" viewBox="0 0 786 788" fill="none">
    <path d="M51.4663 29.3563C82.9369 -2.13834 177.856 -7.38497 178.594 9.27503C179.301 25.927 264.116 210.647 264.87 227.299C265.593 243.959 208.93 300.724 192.357 317.36C175.944 333.83 303.182 477.967 305.588 480.682C308.326 483.111 452.129 610.667 468.552 594.222C485.116 577.578 541.77 520.803 558.382 521.542C574.996 522.28 759.286 607.286 775.906 608.008C792.51 608.77 787.288 703.896 755.833 735.43C728.99 762.336 589.877 860.098 347.964 685.538C321.43 670.235 279.404 635.138 215.7 571.323C215.645 571.283 215.621 571.259 215.605 571.228C215.517 571.18 215.509 571.132 215.446 571.076C215.406 571.03 215.35 570.99 215.304 570.926C215.256 570.887 215.2 570.839 215.153 570.791C151.481 506.946 116.494 464.815 101.248 438.25C-72.8764 195.748 24.6396 56.287 51.4663 29.3563Z" fill="currentColor"/>
  </symbol>
</svg>
