<?xml version="1.0" encoding="utf-8"?>
<!-- Generator: Adobe Illustrator 28.0.0, SVG Export Plug-In . SVG Version: 6.00 Build 0)  -->
<svg version="1.1" id="Слой_1" xmlns="http://www.w3.org/2000/svg" xmlns:xlink="http://www.w3.org/1999/xlink" x="0px" y="0px"
	 viewBox="0 0 300 100" style="enable-background:new 0 0 300 100;" xml:space="preserve">
<style type="text/css">
	.st0{fill:#F7F7F7;}
	.st1{fill:#959595;}
	.st2{fill:#0D0D0D;}
	.st3{fill:#00BD36;}
	.st4{clip-path:url(#SVGID_00000183216638748008574730000011446118909117277631_);}
	.st5{fill:#19AA1E;}
	.st6{fill-rule:evenodd;clip-rule:evenodd;fill:#FFB919;}
	.st7{fill-rule:evenodd;clip-rule:evenodd;fill:#82D714;}
	.st8{fill-rule:evenodd;clip-rule:evenodd;fill:#FFFFFF;}
	.st9{fill-rule:evenodd;clip-rule:evenodd;fill:#0073FA;}
	.st10{fill:#FFA800;}
</style>
<path class="st0" d="M293.4,100H6.6C3,100,0,97,0,93.4V6.6C0,3,3,0,6.6,0h286.7c3.7,0,6.6,3,6.6,6.6v86.7C300,97,297,100,293.4,100z
	"/>
<g>
	<g>
		<path class="st1" d="M24.4,33c-0.7-0.5-1.3-1.1-1.8-1.9c-0.4-0.8-0.6-1.7-0.6-2.8c0-1,0.2-1.9,0.6-2.8c0.4-0.8,1-1.5,1.8-1.9
			c0.7-0.5,1.6-0.7,2.5-0.7c0.9,0,1.8,0.2,2.5,0.7c0.7,0.5,1.3,1.1,1.8,1.9c0.4,0.8,0.6,1.7,0.6,2.8s-0.2,1.9-0.6,2.8
			s-1,1.5-1.8,1.9c-0.7,0.5-1.6,0.7-2.5,0.7C26,33.7,25.1,33.4,24.4,33z M28.5,31.5c0.5-0.3,0.9-0.8,1.1-1.3
			c0.3-0.6,0.4-1.2,0.4-1.9c0-0.7-0.1-1.3-0.4-1.9c-0.3-0.6-0.7-1-1.1-1.3c-0.5-0.3-1-0.5-1.6-0.5s-1.2,0.2-1.6,0.5
			c-0.5,0.3-0.9,0.8-1.1,1.3c-0.3,0.6-0.4,1.2-0.4,1.9c0,0.7,0.1,1.3,0.4,1.9c0.3,0.6,0.7,1,1.1,1.3c0.5,0.3,1,0.5,1.6,0.5
			S28.1,31.8,28.5,31.5z"/>
		<path class="st1" d="M41.1,31.9v3.4h-1.5v-1.8h-6.1v-8h1.6v6.4h3.3v-6.4h1.6v6.4H41.1z"/>
		<path class="st1" d="M49.1,30.1h-5.5c0.1,0.6,0.3,1.1,0.7,1.4c0.4,0.3,0.9,0.5,1.5,0.5c0.8,0,1.4-0.3,1.9-0.9l0.9,1.2
			c-0.3,0.4-0.7,0.8-1.2,1c-0.5,0.2-1,0.3-1.6,0.3c-0.8,0-1.4-0.2-2-0.5c-0.6-0.3-1-0.8-1.3-1.5C42.1,31,42,30.3,42,29.5
			c0-0.8,0.2-1.5,0.5-2.1c0.3-0.6,0.7-1.1,1.3-1.5c0.5-0.3,1.2-0.5,1.9-0.5c0.7,0,1.3,0.2,1.8,0.5c0.5,0.3,1,0.8,1.3,1.5
			c0.3,0.6,0.4,1.3,0.4,2.2C49.1,29.7,49.1,29.9,49.1,30.1z M44.3,27.5c-0.4,0.4-0.6,0.8-0.7,1.4h4c-0.1-0.6-0.3-1-0.6-1.4
			c-0.4-0.4-0.8-0.5-1.3-0.5C45.1,26.9,44.6,27.1,44.3,27.5z"/>
		<path class="st1" d="M50.9,25.5h1.6v3.2H56v-3.2h1.6v8H56v-3.2h-3.5v3.2h-1.6V25.5z"/>
		<path class="st1" d="M62.7,30.3h-1.3v3.2h-1.6v-8h1.6v3.2h1.3l2.1-3.2h1.7l-2.5,3.8l2.7,4.1h-1.9L62.7,30.3z"/>
		<path class="st1" d="M72.7,26.3c0.5,0.6,0.8,1.4,0.8,2.6v4.7H72v-1c-0.2,0.3-0.5,0.6-0.9,0.8c-0.4,0.2-0.8,0.3-1.3,0.3
			s-1-0.1-1.4-0.3c-0.4-0.2-0.7-0.5-0.9-0.9c-0.2-0.4-0.3-0.8-0.3-1.2c0-0.7,0.2-1.3,0.7-1.7c0.5-0.4,1.2-0.7,2.2-0.7h1.8v-0.1
			c0-0.6-0.1-1-0.4-1.3c-0.3-0.3-0.7-0.4-1.3-0.4c-0.4,0-0.8,0.1-1.2,0.2c-0.4,0.1-0.7,0.3-1,0.6l-0.6-1.4c0.4-0.3,0.8-0.6,1.3-0.7
			c0.5-0.2,1.1-0.3,1.6-0.3C71.4,25.4,72.2,25.7,72.7,26.3z M71.2,31.9c0.3-0.2,0.5-0.5,0.7-0.9v-0.9h-1.7c-0.9,0-1.4,0.4-1.4,1.1
			c0,0.3,0.1,0.6,0.4,0.8c0.2,0.2,0.6,0.3,1,0.3C70.6,32.3,70.9,32.1,71.2,31.9z"/>
		<path class="st1" d="M85.5,31.3c0,0.7-0.2,1.3-0.7,1.7s-1.2,0.6-2.1,0.6h-3.5v-8h3.4c0.9,0,1.5,0.2,2,0.5s0.7,0.9,0.7,1.5
			c0,0.4-0.1,0.8-0.3,1.1c-0.2,0.3-0.5,0.5-0.8,0.7C85.1,29.7,85.5,30.3,85.5,31.3z M80.7,28.9h1.7c0.8,0,1.3-0.3,1.3-1
			c0-0.6-0.4-1-1.3-1h-1.7V28.9z M83.9,31.1c0-0.3-0.1-0.6-0.3-0.8c-0.2-0.2-0.5-0.3-1-0.3h-1.9v2h1.9
			C83.5,32.2,83.9,31.8,83.9,31.1z"/>
		<path class="st1" d="M96.9,31.9v1.6h-6.7v-1.3l3.6-3.9c0.4-0.4,0.7-0.8,0.8-1.2c0.1-0.3,0.2-0.7,0.2-1c0-0.5-0.1-0.9-0.4-1.1
			c-0.3-0.3-0.7-0.4-1.3-0.4c-0.9,0-1.6,0.4-2.1,1.1l-1.2-1c0.4-0.5,0.8-1,1.4-1.3s1.3-0.5,2-0.5c1,0,1.8,0.3,2.4,0.8
			c0.6,0.5,0.9,1.3,0.9,2.2c0,0.6-0.1,1.1-0.3,1.6C96,28,95.6,28.6,95,29.2l-2.4,2.7H96.9z"/>
		<path class="st1" d="M104.8,24.7h-4.5l0,8.8h-1.7V23h6.2L104.8,24.7z"/>
		<path class="st1" d="M106.2,23h1.7v7.4l4.9-7.4h1.6v10.5h-1.7v-7.4l-4.9,7.4h-1.6V23z"/>
		<path class="st1" d="M118.6,33c-0.7-0.5-1.3-1.1-1.7-1.9s-0.6-1.7-0.6-2.8s0.2-2,0.6-2.8c0.4-0.8,1-1.5,1.8-1.9
			c0.7-0.5,1.6-0.7,2.5-0.7c0.7,0,1.4,0.1,2,0.4s1.1,0.7,1.6,1.3l-1.1,1.2c-0.7-0.8-1.5-1.2-2.4-1.2c-0.6,0-1.2,0.2-1.7,0.5
			c-0.5,0.3-0.9,0.8-1.2,1.3c-0.3,0.6-0.4,1.2-0.4,1.9c0,0.7,0.1,1.3,0.4,1.9s0.7,1,1.2,1.3c0.5,0.3,1.1,0.5,1.7,0.5
			c1,0,1.8-0.4,2.4-1.2l1.1,1.2c-0.4,0.6-0.9,1-1.6,1.3c-0.6,0.3-1.3,0.4-2.1,0.4C120.2,33.7,119.4,33.4,118.6,33z"/>
	</g>
</g>
<g>
	<g>
		<path class="st2" d="M89.9,62.4c1.4,1.3,2.1,3,2.1,5.2c0,1.4-0.3,2.7-0.9,3.8c-0.6,1.1-1.5,2-2.7,2.7c-1.2,0.7-2.7,1-4.4,1
			c-1.4,0-2.8-0.2-4.2-0.7c-1.3-0.5-2.5-1.1-3.4-2l1.6-3.3c0.8,0.7,1.7,1.3,2.7,1.7c1,0.4,2.1,0.6,3.3,0.6c1.3,0,2.4-0.3,3.1-0.9
			c0.8-0.6,1.1-1.5,1.1-2.6c0-1.2-0.4-2.1-1.2-2.7c-0.8-0.6-2.2-0.9-4.2-0.9h-4.9l1-12.6h11.9v3.6h-8.7l-0.4,5.4h1.9
			C86.4,60.5,88.5,61.1,89.9,62.4z"/>
	</g>
</g>
<g>
	<path class="st3" d="M174,33c-0.7-0.5-1.3-1.1-1.7-1.9c-0.4-0.8-0.6-1.7-0.6-2.8c0-1,0.2-1.9,0.6-2.8c0.4-0.8,1-1.5,1.7-1.9
		c0.7-0.5,1.6-0.7,2.5-0.7s1.8,0.2,2.5,0.7c0.7,0.5,1.3,1.1,1.7,1.9c0.4,0.8,0.6,1.7,0.6,2.8s-0.2,1.9-0.6,2.8
		c-0.4,0.8-1,1.5-1.7,1.9c-0.7,0.5-1.6,0.7-2.5,0.7S174.8,33.4,174,33z M178.2,31.5c0.5-0.3,0.9-0.8,1.1-1.3
		c0.3-0.6,0.4-1.2,0.4-1.9c0-0.7-0.1-1.3-0.4-1.9c-0.3-0.6-0.7-1-1.1-1.3c-0.5-0.3-1-0.5-1.6-0.5s-1.1,0.2-1.6,0.5
		c-0.5,0.3-0.9,0.8-1.1,1.3s-0.4,1.2-0.4,1.9c0,0.7,0.1,1.3,0.4,1.9c0.3,0.6,0.7,1,1.1,1.3c0.5,0.3,1,0.5,1.6,0.5
		S177.7,31.8,178.2,31.5z"/>
	<path class="st3" d="M184.3,33.1c-0.6-0.3-1-0.8-1.3-1.5c-0.3-0.6-0.5-1.3-0.5-2.1c0-0.8,0.2-1.5,0.5-2.1c0.3-0.6,0.8-1.1,1.3-1.5
		c0.6-0.3,1.2-0.5,1.9-0.5c0.7,0,1.3,0.2,1.8,0.5c0.5,0.3,0.9,0.8,1.2,1.4l-1.2,0.8c-0.2-0.4-0.4-0.6-0.7-0.8s-0.6-0.3-1-0.3
		c-0.6,0-1.1,0.2-1.5,0.7c-0.4,0.5-0.6,1.1-0.6,1.8c0,0.8,0.2,1.4,0.6,1.8c0.4,0.5,0.9,0.7,1.5,0.7c0.4,0,0.7-0.1,1-0.3
		c0.3-0.2,0.5-0.5,0.7-0.8l1.2,0.8c-0.3,0.6-0.7,1.1-1.2,1.4c-0.5,0.3-1.1,0.5-1.8,0.5C185.5,33.6,184.9,33.4,184.3,33.1z"/>
	<path class="st3" d="M196,27.1h-2.4v6.4H192v-6.4h-2.4v-1.6h6.5V27.1z"/>
	<path class="st3" d="M202.1,26.3c0.5,0.6,0.8,1.4,0.8,2.6v4.7h-1.5v-1c-0.2,0.3-0.5,0.6-0.8,0.8c-0.4,0.2-0.8,0.3-1.3,0.3
		s-1-0.1-1.4-0.3c-0.4-0.2-0.7-0.5-0.9-0.9c-0.2-0.4-0.3-0.8-0.3-1.2c0-0.7,0.2-1.3,0.7-1.7c0.5-0.4,1.2-0.7,2.2-0.7h1.8v-0.1
		c0-0.6-0.1-1-0.4-1.3c-0.3-0.3-0.7-0.4-1.3-0.4c-0.4,0-0.8,0.1-1.1,0.2s-0.7,0.3-1,0.6l-0.6-1.4c0.4-0.3,0.8-0.6,1.3-0.7
		c0.5-0.2,1-0.3,1.6-0.3C200.8,25.4,201.5,25.7,202.1,26.3z M200.6,31.9c0.3-0.2,0.5-0.5,0.7-0.9v-0.9h-1.7c-0.9,0-1.4,0.4-1.4,1.1
		c0,0.3,0.1,0.6,0.3,0.8c0.2,0.2,0.6,0.3,1,0.3C199.9,32.3,200.3,32.1,200.6,31.9z"/>
	<path class="st3" d="M211.2,31.3c0,0.7-0.2,1.3-0.7,1.7s-1.2,0.6-2.1,0.6h-3.5v-8h3.4c0.8,0,1.5,0.2,2,0.5s0.7,0.9,0.7,1.5
		c0,0.4-0.1,0.8-0.3,1.1c-0.2,0.3-0.4,0.5-0.8,0.7C210.7,29.7,211.2,30.3,211.2,31.3z M206.4,28.9h1.7c0.8,0,1.3-0.3,1.3-1
		c0-0.6-0.4-1-1.3-1h-1.7V28.9z M209.6,31.1c0-0.3-0.1-0.6-0.3-0.8c-0.2-0.2-0.5-0.3-1-0.3h-1.9v2h1.8
		C209.2,32.2,209.6,31.8,209.6,31.1z"/>
	<path class="st3" d="M212.9,25.5h1.6v5.3l3.8-5.3h1.5v8h-1.6v-5.3l-3.8,5.3h-1.5V25.5z"/>
	<path class="st3" d="M227.4,27.1H225v6.4h-1.6v-6.4H221v-1.6h6.5V27.1z"/>
	<path class="st3" d="M234.1,28.8c0.5,0.5,0.7,1.1,0.7,1.9c0,0.9-0.3,1.6-0.8,2c-0.5,0.5-1.2,0.7-2.2,0.7l-3.2,0v-8h1.6v2.6l1.8,0
		C232.9,28.2,233.6,28.4,234.1,28.8z M232.8,31.8c0.2-0.2,0.4-0.6,0.4-1c0-0.4-0.1-0.8-0.4-1s-0.6-0.3-1.1-0.3l-1.5,0v2.7l1.5,0
		C232.2,32.2,232.5,32,232.8,31.8z"/>
	<path class="st3" d="M241,33.1c-0.6-0.3-1-0.8-1.3-1.5c-0.3-0.6-0.5-1.3-0.5-2.1c0-0.8,0.2-1.5,0.5-2.1c0.3-0.6,0.8-1.1,1.3-1.5
		c0.6-0.3,1.2-0.5,1.9-0.5c0.7,0,1.3,0.2,1.9,0.5s1,0.8,1.3,1.5c0.3,0.6,0.5,1.3,0.5,2.1c0,0.8-0.2,1.5-0.5,2.1
		c-0.3,0.6-0.8,1.1-1.3,1.5s-1.2,0.5-1.9,0.5C242.1,33.6,241.5,33.4,241,33.1z M244.3,31.3c0.4-0.5,0.6-1.1,0.6-1.8
		c0-0.7-0.2-1.4-0.6-1.8c-0.4-0.5-0.9-0.7-1.5-0.7c-0.6,0-1.1,0.2-1.5,0.7c-0.4,0.5-0.6,1.1-0.6,1.8c0,0.7,0.2,1.4,0.6,1.8
		c0.4,0.5,0.9,0.7,1.5,0.7C243.4,32,243.9,31.8,244.3,31.3z"/>
	<path class="st3" d="M253.3,27.1h-2.4v6.4h-1.6v-6.4h-2.4v-1.6h6.5V27.1z"/>
	<path class="st3" d="M259.5,30c0.2,0.3,0.4,0.7,0.4,1.1c0,0.5-0.1,0.9-0.4,1.3s-0.7,0.7-1.2,0.9c-0.5,0.2-1.1,0.3-1.7,0.3
		c-0.5,0-1.1-0.1-1.6-0.2c-0.5-0.1-1-0.4-1.4-0.6l0.5-1.4c0.3,0.2,0.7,0.4,1.1,0.5s0.8,0.2,1.3,0.2c0.5,0,1-0.1,1.3-0.3
		c0.3-0.2,0.5-0.5,0.5-0.8c0-0.3-0.1-0.5-0.4-0.7c-0.2-0.2-0.6-0.3-1-0.3h-1.3v-1.3h1.2c0.4,0,0.7-0.1,0.9-0.2
		c0.2-0.2,0.3-0.4,0.3-0.7c0-0.3-0.1-0.5-0.4-0.7c-0.3-0.2-0.7-0.3-1.1-0.3c-0.7,0-1.4,0.2-2.2,0.6l-0.4-1.4
		c0.9-0.5,1.8-0.7,2.7-0.7c0.6,0,1.1,0.1,1.6,0.3s0.8,0.4,1.1,0.8c0.3,0.3,0.4,0.7,0.4,1.1c0,0.4-0.1,0.7-0.3,1s-0.5,0.5-0.9,0.7
		C258.9,29.5,259.3,29.7,259.5,30z"/>
	<path class="st3" d="M266.9,28.8c0.5,0.5,0.7,1.1,0.7,1.9c0,0.9-0.3,1.6-0.8,2c-0.5,0.5-1.2,0.7-2.2,0.7l-3.1,0v-8h1.6v2.6l1.7,0
		C265.8,28.2,266.4,28.4,266.9,28.8z M265.6,31.8c0.2-0.2,0.4-0.6,0.4-1c0-0.4-0.1-0.8-0.4-1s-0.6-0.3-1.1-0.3l-1.4,0v2.7l1.4,0
		C265,32.2,265.3,32,265.6,31.8z M268.5,25.5h1.6v8h-1.6V25.5z"/>
	<path class="st3" d="M278.6,31.3c0,0.7-0.2,1.3-0.7,1.7s-1.2,0.6-2.1,0.6h-3.5v-8h3.4c0.8,0,1.5,0.2,2,0.5s0.7,0.9,0.7,1.5
		c0,0.4-0.1,0.8-0.3,1.1c-0.2,0.3-0.4,0.5-0.8,0.7C278.1,29.7,278.6,30.3,278.6,31.3z M273.8,28.9h1.7c0.8,0,1.3-0.3,1.3-1
		c0-0.6-0.4-1-1.3-1h-1.7V28.9z M277,31.1c0-0.3-0.1-0.6-0.3-0.8c-0.2-0.2-0.5-0.3-1-0.3h-1.9v2h1.8C276.5,32.2,277,31.8,277,31.1z"
		/>
</g>
<g>
	<g>
		<g>
			<g>
				<defs>
					<path id="SVGID_1_" d="M45.3,79.1c0.7,0,1.4-0.1,2.1-0.2s1.4-0.3,2-0.7c0.7-0.3,1.3-0.8,1.7-1.3c0.5-0.5,1-1.1,1.3-1.6
						c0.3-0.7,0.6-1.3,0.7-1.9c0.1-0.7,0.2-1.4,0.2-2.1c0-0.3,0-0.7,0-1V56c0-0.3,0-0.7,0-1c0-0.7-0.1-1.4-0.2-2.1
						c-0.1-0.7-0.3-1.4-0.7-1.9c-0.4-0.6-0.8-1.2-1.4-1.7c-0.5-0.5-1.1-0.9-1.7-1.3c-0.7-0.3-1.3-0.5-2-0.7
						c-0.7-0.1-1.4-0.2-2.1-0.2c-0.1,0-0.3,0-0.5,0H30.7h-1.4c-0.7,0.1-1.4,0.2-2.1,0.3c-0.7,0.1-1.4,0.3-1.9,0.7
						c-0.7,0.3-1.3,0.7-1.7,1.3c-0.5,0.5-1,1.1-1.3,1.6c-0.3,0.7-0.6,1.3-0.7,1.9c-0.1,0.8-0.1,1.4-0.2,2.1c0,0.3,0,0.7,0,1v14.3
						c0,0.3,0,0.7,0,1c0,0.7,0.1,1.4,0.2,2.1c0.1,0.7,0.3,1.4,0.7,1.9c0.3,0.6,0.8,1.2,1.3,1.6c0.5,0.5,1.1,0.9,1.7,1.3
						c0.7,0.3,1.3,0.5,2,0.7c0.7,0.1,1.4,0.2,2.1,0.2c0.1,0,0.3,0,0.5,0h13.4H45.3L45.3,79.1z"/>
				</defs>
				<clipPath id="SVGID_00000109020018923844362360000003969645985274721966_">
					<use xlink:href="#SVGID_1_"  style="overflow:visible;"/>
				</clipPath>
				<g style="clip-path:url(#SVGID_00000109020018923844362360000003969645985274721966_);">
					<path class="st5" d="M21.4,47.3h31.8v31.8H21.4C21.4,79.1,21.4,47.3,21.4,47.3z"/>
					<path class="st6" d="M21.4,47.3h31.8v10.4l-31.8-4.9V47.3z"/>
					<path class="st7" d="M21.4,75.6l31.8-5v8.5H21.4C21.4,79.1,21.4,75.6,21.4,75.6z"/>
					<path class="st8" d="M21.4,52.1l11.1,1.7c1.4-0.9,3-1.4,4.8-1.4c2.4,0,4.6,1,6.3,2.5c0.2,0.2,0.4,0.4,0.6,0.7l9.1,1.4v1.3
						l-8.1-1.3c0.6,1.2,1,2.4,1,3.8c0,1.7-0.4,3.4-1.2,5.1v0.1l-0.3,0.7h-0.8c-1.6,0-2.7,0.5-3.5,1.4c-0.6,0.7-0.9,1.6-1,2.6l0,0
						v0.2V71v0.1c0,0.5-0.1,0.9-0.1,1.2L53.4,70v1.3l-31.8,5v-1.4l14.1-2.2v-0.3v-0.1l0,0v-0.1c0-0.4,0-0.8-0.1-1.4v-0.1v-0.2
						c-0.1-1-0.4-1.9-1-2.6c-0.7-0.9-1.7-1.4-3.4-1.4h-0.1h-1L29.9,66c-0.8-1.7-1.2-3.5-1.2-5.2c0-2.1,0.9-4.2,2.4-5.8l0.1-0.1
						l-9.8-1.5V52.1z"/>
					<path class="st9" d="M37.3,53.7c4.4,0,7.4,3.4,7.4,7.1c0,1.4-0.3,3-1.1,4.6c-4.3,0-5.4,3.1-5.7,5.1v0.1
						c-0.1,0.7-0.1,1.3-0.1,1.7l-1.2,0.2l0,0c0-0.5,0-1.1-0.1-1.8l0,0c-0.2-1.9-1.3-5.1-5.7-5.1c-0.8-1.8-1.1-3.4-1.1-4.8
						C29.9,57.1,32.9,53.7,37.3,53.7z"/>
				</g>
			</g>
		</g>
	</g>
</g>
<path class="st10" d="M150,57.9l-6.6-0.9c-0.4,0-0.7-0.2-0.9-0.7l-2.6-5.7c-0.4-0.9-1.8-0.9-2.2,0l-2.4,5.7c0,0.4-0.4,0.7-0.9,0.7
	l-6.6,0.9c-0.9,0.2-1.3,1.3-0.4,2l4.9,4.6c0.2,0.2,0.4,0.7,0.2,1.1l-1.3,6.4c-0.2,0.9,0.9,1.8,1.8,1.3l5.5-3.3
	c0.2-0.2,0.9-0.2,1.1,0l5.5,3.3c0.9,0.4,2-0.2,1.8-1.3l-1.3-6.4c0-0.4,0-0.9,0.2-1.1l4.9-4.6C151.3,59.3,150.8,58.2,150,57.9
	L150,57.9z"/>
<path class="st10" d="M181.7,57.9l-6.6-0.9c-0.4,0-0.7-0.2-0.9-0.7l-2.6-5.7c-0.4-0.9-1.8-0.9-2.2,0l-2.4,5.7c0,0.4-0.4,0.7-0.9,0.7
	l-6.6,0.9c-0.9,0.2-1.3,1.3-0.4,2l4.9,4.6c0.2,0.2,0.4,0.7,0.2,1.1l-1.3,6.4c-0.2,0.9,0.9,1.8,1.8,1.3l5.5-3.3
	c0.2-0.2,0.9-0.2,1.1,0l5.5,3.3c0.9,0.4,2-0.2,1.8-1.3l-1.3-6.4c0-0.4,0-0.9,0.2-1.1l4.9-4.6C183,59.3,182.6,58.2,181.7,57.9
	L181.7,57.9z"/>
<path class="st10" d="M213.5,57.9l-6.6-0.9c-0.4,0-0.7-0.2-0.9-0.7l-2.6-5.7c-0.4-0.9-1.8-0.9-2.2,0l-2.4,5.7c0,0.4-0.4,0.7-0.9,0.7
	l-6.6,0.9c-0.9,0.2-1.3,1.3-0.4,2l4.9,4.6c0.2,0.2,0.4,0.7,0.2,1.1l-1.3,6.4c-0.2,0.9,0.9,1.8,1.8,1.3l5.5-3.3
	c0.2-0.2,0.9-0.2,1.1,0l5.5,3.3c0.9,0.4,2-0.2,1.8-1.3l-1.3-6.4c0-0.4,0-0.9,0.2-1.1l4.9-4.6C214.8,59.3,214.3,58.2,213.5,57.9
	L213.5,57.9z"/>
<path class="st10" d="M245.2,57.9l-6.6-0.9c-0.4,0-0.7-0.2-0.9-0.7l-2.6-5.7c-0.4-0.9-1.8-0.9-2.2,0l-2.4,5.7c0,0.4-0.4,0.7-0.9,0.7
	l-6.6,0.9c-0.9,0.2-1.3,1.3-0.4,2l4.9,4.6c0.2,0.2,0.4,0.7,0.2,1.1l-1.3,6.4c-0.2,0.9,0.9,1.8,1.8,1.3l5.5-3.3
	c0.2-0.2,0.9-0.2,1.1,0l5.5,3.3c0.9,0.4,2-0.2,1.8-1.3l-1.3-6.4c0-0.4,0-0.9,0.2-1.1l4.9-4.6C246.5,59.3,246.1,58.2,245.2,57.9
	L245.2,57.9z"/>
<path class="st10" d="M277,57.9l-6.6-0.9c-0.4,0-0.7-0.2-0.9-0.7l-2.6-5.7c-0.4-0.9-1.8-0.9-2.2,0l-2.4,5.7c0,0.4-0.4,0.7-0.9,0.7
	l-6.6,0.9c-0.9,0.2-1.3,1.3-0.4,2l4.9,4.6c0.2,0.2,0.4,0.7,0.2,1.1l-1.3,6.4c-0.2,0.9,0.9,1.8,1.8,1.3l5.5-3.3
	c0.2-0.2,0.9-0.2,1.1,0l5.5,3.3c0.9,0.4,2-0.2,1.8-1.3l-1.3-6.4c0-0.4,0-0.9,0.2-1.1l4.9-4.6C278.3,59.3,277.8,58.2,277,57.9
	L277,57.9z"/>
</svg>
