<svg width="57" height="64" viewBox="0 0 57 64" fill="none" xmlns="http://www.w3.org/2000/svg">
<path d="M25.3 0.8L2.8 13.8C1.1 14.8 0 16.6 0 18.6V44.6C0 46.6 1.1 48.4 2.8 49.4L25.3 62.4C27 63.4 29.1 63.4 30.8 62.4L53.3 49.4C55 48.4 56.1 46.6 56.1 44.6V18.5C56.1 16.5 55 14.7 53.3 13.7L30.8 0.7C29.9 0.2 29 0 28 0C27.1 0 26.2 0.3 25.3 0.8Z" fill="#2477AE"/>
<mask id="mask0_2222_1133" style="mask-type:luminance" maskUnits="userSpaceOnUse" x="0" y="0" width="57" height="64">
<path d="M25.3 0.8L2.8 13.8C1.1 14.8 0 16.6 0 18.6V44.6C0 46.6 1.1 48.4 2.8 49.4L25.3 62.4C27 63.4 29.1 63.4 30.8 62.4L53.3 49.4C55 48.4 56.1 46.6 56.1 44.6V18.5C56.1 16.5 55 14.7 53.3 13.7L30.8 0.7C29.9 0.2 29 0 28 0C27.1 0 26.2 0.3 25.3 0.8Z" fill="white"/>
</mask>
<g mask="url(#mask0_2222_1133)">
<path d="M56.1 44.5002V18.5002C56.1 16.5002 55 14.7002 53.3 13.7002L30.8 0.700195C29.1 -0.299805 27 -0.299805 25.3 0.700195L2.8 13.7002C1.1 14.7002 0 16.5002 0 18.5002V44.5002C0 46.5002 1.1 48.3002 2.8 49.3002L25.3 62.3002C27 63.3002 29.1 63.3002 30.8 62.3002L53.3 49.3002C55 48.3002 56.1 46.4002 56.1 44.5002Z" fill="#2477AE"/>
</g>
<path d="M18.6 32.0994H37.6C40 32.0994 42 34.0994 42 36.4994C42 38.8994 40 40.8994 37.6 40.8994H26C25.7 40.8994 25.4 41.1994 25.4 41.4994C25.4 41.7994 25.7 42.0994 26 42.0994H37.6C40.7 42.0994 43.2 39.5994 43.2 36.4994C43.2 33.3994 40.7 30.8994 37.6 30.8994H18.6C16.2 30.8994 14.2 28.8994 14.2 26.4994C14.2 24.0994 16.2 22.0994 18.6 22.0994H30.1C30.4 22.0994 30.7 21.7994 30.7 21.4994C30.7 21.1994 30.4 20.8994 30.1 20.8994H18.6C15.5 20.8994 13 23.3994 13 26.4994C13 29.5994 15.5 32.0994 18.6 32.0994Z" fill="white"/>
<path d="M37.4 16.5996C35.9 16.5996 34.6 17.8996 34.6 19.3996C34.6 20.8996 35.9 22.1996 37.4 22.1996C38.9 22.1996 40.2 20.8996 40.2 19.3996C40.2 17.8996 39 16.5996 37.4 16.5996ZM37.4 20.9996C36.5 20.9996 35.8 20.2996 35.8 19.3996C35.8 18.4996 36.5 17.7996 37.4 17.7996C38.3 17.7996 39 18.4996 39 19.3996C39.1 20.2996 38.3 20.9996 37.4 20.9996Z" fill="white"/>
<path d="M37.4 13.5996C34.2 13.5996 31.6 16.1996 31.6 19.3996C31.6 22.3996 36.4 28.2996 36.9 28.9996C37 29.0996 37.2 29.1996 37.4 29.1996C37.6 29.1996 37.7 29.0996 37.9 28.9996C38.4 28.2996 43.2 22.3996 43.2 19.3996C43.2 16.1996 40.6 13.5996 37.4 13.5996ZM37.4 27.6996C35.8 25.5996 32.8 21.3996 32.8 19.3996C32.8 16.8996 34.9 14.7996 37.4 14.7996C39.9 14.7996 42 16.8996 42 19.3996C42.1 21.3996 39.1 25.5996 37.4 27.6996Z" fill="white"/>
<path d="M21.6 39.5998C21.6 38.0998 20.3 36.7998 18.8 36.7998C17.3 36.7998 16 38.0998 16 39.5998C16 41.0998 17.3 42.3998 18.8 42.3998C20.3 42.3998 21.6 41.0998 21.6 39.5998ZM17.2 39.5998C17.2 38.6998 17.9 37.9998 18.8 37.9998C19.7 37.9998 20.4 38.6998 20.4 39.5998C20.4 40.4998 19.7 41.1998 18.8 41.1998C17.9 41.1998 17.2 40.3998 17.2 39.5998Z" fill="white"/>
<path d="M18.8 49.3998C19 49.3998 19.1 49.2998 19.3 49.1998C19.8 48.4998 24.6 42.5998 24.6 39.5998C24.6 36.3998 22 33.7998 18.8 33.7998C15.6 33.7998 13 36.3998 13 39.5998C13 42.5998 17.8 48.4998 18.3 49.1998C18.4 49.2998 18.6 49.3998 18.8 49.3998ZM18.8 34.8998C21.3 34.8998 23.4 36.9998 23.4 39.4998C23.4 41.4998 20.4 45.6998 18.8 47.7998C17.1 45.7998 14.1 41.4998 14.1 39.5998C14.1 36.9998 16.2 34.8998 18.8 34.8998Z" fill="white"/>
</svg>
