<svg xmlns="http://www.w3.org/2000/svg" width="224" height="85" viewBox="0 0 224 85" fill="none">
	<mask id="mask0_2302_834" style="mask-type:luminance" maskUnits="userSpaceOnUse" x="0" y="0"
		width="224" height="85">
		<path d="M223.5 0H0V84.5H223.5V0Z" fill="white" />
	</mask>
	<g mask="url(#mask0_2302_834)">
		<path fill-rule="evenodd" clip-rule="evenodd"
			d="M10 0H214.101C218.519 0 222.101 3.582 222.101 8V73.575C222.101 77.994 218.519 81.576 214.101 81.576H10C5.582 81.576 2 77.994 2 73.575V8C2 3.582 5.582 0 10 0Z"
			fill="white" stroke="#ECECEC" />
		<path
			d="M23.4114 67.9104L22.8724 66.7064C23.5771 66.6224 24.2024 66.4661 24.7484 66.2374C25.2944 66.0087 25.7634 65.7241 26.1554 65.3834C26.5521 65.0381 26.8741 64.6577 27.1214 64.2424C27.3734 63.8224 27.5554 63.3837 27.6674 62.9264C27.4201 63.2671 27.1027 63.5377 26.7154 63.7384C26.3327 63.9344 25.9127 64.0324 25.4554 64.0324C24.8394 64.0324 24.2841 63.8994 23.7894 63.6334C23.2994 63.3674 22.9097 62.9987 22.6204 62.5274C22.3357 62.0514 22.1934 61.5077 22.1934 60.8964C22.1934 60.2897 22.3451 59.7461 22.6484 59.2654C22.9564 58.7801 23.3787 58.3974 23.9154 58.1174C24.4567 57.8327 25.0751 57.6904 25.7704 57.6904C26.4891 57.6904 27.1261 57.8467 27.6814 58.1594C28.2414 58.4674 28.6801 58.9154 28.9974 59.5034C29.3194 60.0867 29.4804 60.7937 29.4804 61.6244C29.4804 62.4644 29.3264 63.2391 29.0184 63.9484C28.7151 64.6531 28.2881 65.2784 27.7374 65.8244C27.1914 66.3704 26.5497 66.8207 25.8124 67.1754C25.0751 67.5301 24.2747 67.7751 23.4114 67.9104ZM25.7704 62.7584C26.1624 62.7584 26.5124 62.6767 26.8204 62.5134C27.1284 62.3501 27.3734 62.1261 27.5554 61.8414C27.7374 61.5567 27.8284 61.2371 27.8284 60.8824C27.8284 60.5184 27.7397 60.1964 27.5624 59.9164C27.3897 59.6364 27.1471 59.4171 26.8344 59.2584C26.5264 59.0997 26.1717 59.0204 25.7704 59.0204C25.3737 59.0204 25.0191 59.0997 24.7064 59.2584C24.3937 59.4171 24.1487 59.6364 23.9714 59.9164C23.7941 60.1964 23.7054 60.5184 23.7054 60.8824C23.7054 61.2371 23.7964 61.5567 23.9784 61.8414C24.1651 62.1261 24.4124 62.3501 24.7204 62.5134C25.0331 62.6767 25.3831 62.7584 25.7704 62.7584ZM33.9941 67.9104C33.3921 67.9104 32.8134 67.8241 32.2581 67.6514C31.7074 67.4787 31.2524 67.2477 30.8931 66.9584L31.3971 65.6844C31.7191 65.9644 32.1041 66.1791 32.5521 66.3284C33.0001 66.4731 33.4528 66.5454 33.9101 66.5454C34.3674 66.5454 34.7641 66.4707 35.1001 66.3214C35.4361 66.1674 35.6951 65.9481 35.8771 65.6634C36.0591 65.3787 36.1501 65.0334 36.1501 64.6274C36.1501 64.2541 36.0544 63.9344 35.8631 63.6684C35.6718 63.3977 35.4058 63.1901 35.0651 63.0454C34.7291 62.9007 34.3464 62.8284 33.9171 62.8284C33.6418 62.8284 33.3571 62.8611 33.0631 62.9264C32.7691 62.9917 32.4681 63.0921 32.1601 63.2274L31.5161 62.5344L32.0201 57.9144L37.4241 57.9074V59.2794H33.1331L32.8391 61.8344C33.0818 61.7551 33.3221 61.6944 33.5601 61.6524C33.8028 61.6104 34.0431 61.5894 34.2811 61.5894C34.9251 61.5894 35.5014 61.7131 36.0101 61.9604C36.5188 62.2031 36.9201 62.5554 37.2141 63.0174C37.5128 63.4794 37.6621 64.0324 37.6621 64.6764C37.6621 65.3297 37.5058 65.8991 37.1931 66.3844C36.8851 66.8697 36.4558 67.2454 35.9051 67.5114C35.3544 67.7774 34.7174 67.9104 33.9941 67.9104ZM46.1405 67.9104C45.4172 67.9104 44.7708 67.7447 44.2015 67.4134C43.6368 67.0774 43.1935 66.6317 42.8715 66.0764C42.5495 65.5164 42.3885 64.9027 42.3885 64.2354C42.3885 63.7407 42.4795 63.2741 42.6615 62.8354C42.8482 62.3921 43.1095 62.0001 43.4455 61.6594C43.7862 61.3187 44.1852 61.0504 44.6425 60.8544C45.0998 60.6584 45.6015 60.5604 46.1475 60.5604C46.8708 60.5604 47.5148 60.7284 48.0795 61.0644C48.6488 61.3957 49.0945 61.8414 49.4165 62.4014C49.7385 62.9567 49.8995 63.5681 49.8995 64.2354C49.8995 64.7254 49.8062 65.1921 49.6195 65.6354C49.4375 66.0787 49.1785 66.4707 48.8425 66.8114C48.5065 67.1521 48.1098 67.4204 47.6525 67.6164C47.1952 67.8124 46.6912 67.9104 46.1405 67.9104ZM46.1405 66.5454C46.5698 66.5454 46.9502 66.4521 47.2815 66.2654C47.6175 66.0741 47.8812 65.8057 48.0725 65.4604C48.2638 65.1151 48.3595 64.7067 48.3595 64.2354C48.3595 63.7641 48.2638 63.3557 48.0725 63.0104C47.8812 62.6604 47.6175 62.3921 47.2815 62.2054C46.9502 62.0187 46.5698 61.9254 46.1405 61.9254C45.7112 61.9254 45.3285 62.0187 44.9925 62.2054C44.6612 62.3921 44.3998 62.6604 44.2085 63.0104C44.0218 63.3557 43.9285 63.7641 43.9285 64.2354C43.9285 64.7067 44.0242 65.1151 44.2155 65.4604C44.4068 65.8057 44.6682 66.0741 44.9995 66.2654C45.3355 66.4521 45.7158 66.5454 46.1405 66.5454ZM52.9934 67.7004V62.0444H50.7184V60.7704H56.8154V62.0444H54.5334V67.7004H52.9934ZM60.5657 67.8684C60.1783 67.8684 59.805 67.8381 59.4457 67.7774C59.0863 67.7214 58.748 67.6327 58.4307 67.5114C58.1133 67.3854 57.8263 67.2197 57.5697 67.0144L58.2417 65.9714C58.5357 66.2187 58.8833 66.3984 59.2847 66.5104C59.686 66.6177 60.0943 66.6714 60.5097 66.6714C61.0743 66.6714 61.52 66.5897 61.8467 66.4264C62.1733 66.2584 62.3367 65.9831 62.3367 65.6004C62.3367 65.2644 62.164 65.0241 61.8187 64.8794C61.478 64.7347 60.981 64.6624 60.3277 64.6624H59.0537V63.5004H60.2857C60.8643 63.5004 61.31 63.4351 61.6227 63.3044C61.9353 63.1691 62.0917 62.9404 62.0917 62.6184C62.0917 62.4271 62.024 62.2684 61.8887 62.1424C61.758 62.0164 61.5713 61.9207 61.3287 61.8554C61.0907 61.7901 60.8107 61.7574 60.4887 61.7574C60.092 61.7574 59.7093 61.8157 59.3407 61.9324C58.972 62.0491 58.65 62.2287 58.3747 62.4714L57.8007 61.4424C58.1553 61.1484 58.5847 60.9244 59.0887 60.7704C59.5927 60.6117 60.1013 60.5324 60.6147 60.5324C61.212 60.5324 61.7253 60.6071 62.1547 60.7564C62.584 60.9057 62.9153 61.1204 63.1487 61.4004C63.382 61.6804 63.4987 62.0187 63.4987 62.4154C63.4987 62.7701 63.3843 63.0781 63.1557 63.3394C62.9317 63.6007 62.605 63.7897 62.1757 63.9064C62.6983 64.0231 63.095 64.2284 63.3657 64.5224C63.641 64.8164 63.7787 65.1851 63.7787 65.6284C63.7787 66.0951 63.6457 66.4964 63.3797 66.8324C63.1183 67.1637 62.745 67.4204 62.2597 67.6024C61.779 67.7797 61.2143 67.8684 60.5657 67.8684ZM65.4601 67.7004V60.7704H67.0001V66.5314H68.2531C68.7571 66.5314 69.1374 66.4334 69.3941 66.2374C69.6507 66.0414 69.7791 65.7497 69.7791 65.3624C69.7791 64.9797 69.6601 64.6857 69.4221 64.4804C69.1841 64.2751 68.8341 64.1724 68.3721 64.1724H66.7901V63.0174H68.4911C69.3871 63.0174 70.0917 63.2181 70.6051 63.6194C71.1184 64.0207 71.3751 64.6017 71.3751 65.3624C71.3751 65.8524 71.2514 66.2724 71.0041 66.6224C70.7567 66.9677 70.4091 67.2337 69.9611 67.4204C69.5177 67.6071 68.9974 67.7004 68.4001 67.7004H65.4601ZM72.4881 67.7004V60.7704H74.0281V67.7004H72.4881ZM76.1652 67.7004V60.7704H79.4692C80.2532 60.7704 80.8808 60.9197 81.3522 61.2184C81.8235 61.5171 82.0592 61.9651 82.0592 62.5624C82.0592 62.8424 81.9915 63.0921 81.8562 63.3114C81.7208 63.5261 81.5342 63.7057 81.2962 63.8504C81.0582 63.9951 80.7805 64.1001 80.4632 64.1654L80.4352 63.8224C81.0465 63.9064 81.5202 64.1094 81.8562 64.4314C82.1922 64.7534 82.3602 65.1617 82.3602 65.6564C82.3602 66.0764 82.2505 66.4404 82.0312 66.7484C81.8118 67.0517 81.4968 67.2874 81.0862 67.4554C80.6755 67.6187 80.1832 67.7004 79.6092 67.7004H76.1652ZM77.6562 66.5594H79.3992C79.8612 66.5594 80.2158 66.4824 80.4632 66.3284C80.7152 66.1744 80.8412 65.9434 80.8412 65.6354C80.8412 65.3321 80.7175 65.1057 80.4702 64.9564C80.2228 64.8024 79.8658 64.7254 79.3992 64.7254H77.4532V63.6264H79.2382C79.6722 63.6264 80.0082 63.5611 80.2462 63.4304C80.4842 63.2951 80.6032 63.0757 80.6032 62.7724C80.6032 62.4691 80.4842 62.2497 80.2462 62.1144C80.0082 61.9744 79.6722 61.9044 79.2382 61.9044H77.6562V66.5594ZM87.2518 67.9104C86.5285 67.9104 85.8822 67.7447 85.3128 67.4134C84.7482 67.0774 84.3048 66.6317 83.9828 66.0764C83.6608 65.5164 83.4998 64.9027 83.4998 64.2354C83.4998 63.7407 83.5908 63.2741 83.7728 62.8354C83.9595 62.3921 84.2208 62.0001 84.5568 61.6594C84.8975 61.3187 85.2965 61.0504 85.7538 60.8544C86.2112 60.6584 86.7128 60.5604 87.2588 60.5604C87.9822 60.5604 88.6262 60.7284 89.1908 61.0644C89.7602 61.3957 90.2058 61.8414 90.5278 62.4014C90.8498 62.9567 91.0108 63.5681 91.0108 64.2354C91.0108 64.7254 90.9175 65.1921 90.7308 65.6354C90.5488 66.0787 90.2898 66.4707 89.9538 66.8114C89.6178 67.1521 89.2212 67.4204 88.7638 67.6164C88.3065 67.8124 87.8025 67.9104 87.2518 67.9104ZM87.2518 66.5454C87.6812 66.5454 88.0615 66.4521 88.3928 66.2654C88.7288 66.0741 88.9925 65.8057 89.1838 65.4604C89.3752 65.1151 89.4708 64.7067 89.4708 64.2354C89.4708 63.7641 89.3752 63.3557 89.1838 63.0104C88.9925 62.6604 88.7288 62.3921 88.3928 62.2054C88.0615 62.0187 87.6812 61.9254 87.2518 61.9254C86.8225 61.9254 86.4398 62.0187 86.1038 62.2054C85.7725 62.3921 85.5112 62.6604 85.3198 63.0104C85.1332 63.3557 85.0398 63.7641 85.0398 64.2354C85.0398 64.7067 85.1355 65.1151 85.3268 65.4604C85.5182 65.8057 85.7795 66.0741 86.1108 66.2654C86.4468 66.4521 86.8272 66.5454 87.2518 66.5454ZM92.5577 67.7004V60.7704H95.8617C96.6457 60.7704 97.2734 60.9197 97.7447 61.2184C98.2161 61.5171 98.4517 61.9651 98.4517 62.5624C98.4517 62.8424 98.3841 63.0921 98.2487 63.3114C98.1134 63.5261 97.9267 63.7057 97.6887 63.8504C97.4507 63.9951 97.1731 64.1001 96.8557 64.1654L96.8277 63.8224C97.4391 63.9064 97.9127 64.1094 98.2487 64.4314C98.5847 64.7534 98.7527 65.1617 98.7527 65.6564C98.7527 66.0764 98.6431 66.4404 98.4237 66.7484C98.2044 67.0517 97.8894 67.2874 97.4787 67.4554C97.0681 67.6187 96.5757 67.7004 96.0017 67.7004H92.5577ZM94.0487 66.5594H95.7917C96.2537 66.5594 96.6084 66.4824 96.8557 66.3284C97.1077 66.1744 97.2337 65.9434 97.2337 65.6354C97.2337 65.3321 97.1101 65.1057 96.8627 64.9564C96.6154 64.8024 96.2584 64.7254 95.7917 64.7254H93.8457V63.6264H95.6307C96.0647 63.6264 96.4007 63.5611 96.6387 63.4304C96.8767 63.2951 96.9957 63.0757 96.9957 62.7724C96.9957 62.4691 96.8767 62.2497 96.6387 62.1144C96.4007 61.9744 96.0647 61.9044 95.6307 61.9044H94.0487V66.5594Z"
			fill="#ACACAC" />
		<path d="M21.5 68.5752H99.4173V68.9252H21.5V68.5752Z" fill="#ACACAC" />
		<path fill-rule="evenodd" clip-rule="evenodd" d="M157.5 8.5H158.5V52.5H157.5V8.5Z"
			fill="#ECECEC" />
		<mask id="mask1_2302_834" style="mask-type:luminance" maskUnits="userSpaceOnUse" x="196"
			y="23" width="16" height="16">
			<path d="M212 23H196V39H212V23Z" fill="white" />
		</mask>
		<g mask="url(#mask1_2302_834)">
			<path
				d="M211.413 28.434L207.009 27.8302C206.716 27.8302 206.569 27.6792 206.422 27.3774L204.661 23.4528C204.367 22.8491 203.486 22.8491 203.193 23.4528L201.578 27.3774C201.578 27.6792 201.284 27.8302 200.991 27.8302L196.587 28.434C196 28.5849 195.706 29.3396 196.294 29.7925L199.523 32.9623C199.67 33.1132 199.817 33.4151 199.67 33.717L198.789 38.0943C198.642 38.6981 199.376 39.3019 199.963 39L203.633 36.7358C203.78 36.5849 204.22 36.5849 204.367 36.7358L208.037 39C208.624 39.3019 209.358 38.8491 209.211 38.0943L208.33 33.717C208.33 33.4151 208.33 33.1132 208.477 32.9623L211.706 29.7925C212.294 29.3396 212 28.5849 211.413 28.434Z"
				fill="#FFCE00" />
		</g>
		<mask id="mask2_2302_834" style="mask-type:luminance" maskUnits="userSpaceOnUse" x="21"
			y="12" width="120" height="34">
			<path d="M141 12H21V45.6H141V12Z" fill="white" />
		</mask>
		<g mask="url(#mask2_2302_834)">
			<mask id="mask3_2302_834" style="mask-type:luminance" maskUnits="userSpaceOnUse" x="21"
				y="12" width="34" height="34">
				<path
					d="M46.0002 45.3002C46.7002 45.3002 47.5002 45.2002 48.2002 45.1002C48.9002 45.0002 49.6002 44.8002 50.3002 44.4002C51.0002 44.1002 51.6002 43.6002 52.1002 43.1002C52.6002 42.6002 53.1002 42.0002 53.4002 41.4002C53.7002 40.7002 54.0002 40.1002 54.1002 39.4002C54.2002 38.7002 54.3002 38.0002 54.3002 37.2002C54.3002 36.9002 54.3002 36.5002 54.3002 36.2002V21.4002C54.3002 21.1002 54.3002 20.7002 54.3002 20.4002C54.3002 19.7002 54.2002 19.0002 54.1002 18.2002C54.0002 17.5002 53.8002 16.8002 53.4002 16.2002C53.0002 15.6002 52.6002 15.0002 52.0002 14.4002C51.5002 13.9002 50.9002 13.5002 50.2002 13.1002C49.5002 12.8002 48.9002 12.6002 48.1002 12.4002C47.4002 12.3002 46.6002 12.2002 45.9002 12.2002C45.8002 12.2002 45.6002 12.2002 45.4002 12.2002H30.8002H29.4002C28.7002 12.3002 28.0002 12.4002 27.2002 12.5002C26.5002 12.6002 25.8002 12.8002 25.2002 13.2002C24.5002 13.5002 23.9002 13.9002 23.4002 14.5002C22.9002 15.0002 22.4002 15.6002 22.1002 16.2002C21.8002 16.9002 21.5002 17.5002 21.4002 18.2002C21.3002 19.0002 21.3002 19.7002 21.2002 20.4002C21.2002 20.7002 21.2002 21.1002 21.2002 21.4002V36.2002C21.2002 36.5002 21.2002 36.9002 21.2002 37.2002C21.2002 37.9002 21.3002 38.6002 21.4002 39.4002C21.5002 40.1002 21.7002 40.8002 22.1002 41.4002C22.4002 42.0002 22.9002 42.6002 23.4002 43.1002C23.9002 43.6002 24.5002 44.0002 25.2002 44.4002C25.9002 44.7002 26.5002 44.9002 27.3002 45.1002C28.0002 45.2002 28.8002 45.3002 29.5002 45.3002C29.6002 45.3002 29.8002 45.3002 30.0002 45.3002H43.9002H46.0002Z"
					fill="white" />
			</mask>
			<g mask="url(#mask3_2302_834)">
				<path d="M21.2002 12.2998H54.2002V45.2998H21.2002V12.2998Z" fill="#19AA1E" />
				<path fill-rule="evenodd" clip-rule="evenodd"
					d="M21.2002 12.2998H54.2002V23.0998L21.2002 17.9998V12.2998Z" fill="#FFB919" />
				<path fill-rule="evenodd" clip-rule="evenodd"
					d="M21.2002 41.7L54.2002 36.5V45.3H21.2002V41.7Z" fill="#82D714" />
				<path fill-rule="evenodd" clip-rule="evenodd"
					d="M21.2002 17.2998L32.7002 19.0998C34.1002 18.1998 35.8002 17.6998 37.7002 17.6998C40.2002 17.6998 42.5002 18.6998 44.2002 20.2998C44.4002 20.4998 44.6002 20.6998 44.8002 20.9998L54.2002 22.4998V23.7998L45.8002 22.4998C46.4002 23.6998 46.8002 24.9998 46.8002 26.3998C46.8002 28.1998 46.4002 29.8998 45.6002 31.6998V31.7998L45.3002 32.4998H44.5002C42.8002 32.4998 41.7002 32.9998 40.9002 33.8998C40.3002 34.5998 40.0002 35.5998 39.9002 36.5998V36.7998V36.8998V36.9998C39.9002 37.4998 39.8002 37.8998 39.8002 38.1998L54.4002 35.8998V37.1998L21.4002 42.3998V40.9998L36.0002 38.6998V38.3998V38.2998V38.1998C36.0002 37.7998 36.0002 37.3998 35.9002 36.7998V36.6998V36.4998C35.8002 35.4998 35.5002 34.4998 34.9002 33.7998C34.2002 32.8998 33.1002 32.3998 31.4002 32.3998H31.3002H30.3002L30.0002 31.6998C29.2002 29.8998 28.8002 28.0998 28.8002 26.2998C28.8002 24.0998 29.7002 21.8998 31.3002 20.2998L31.4002 20.1998L21.2002 18.5998V17.2998Z"
					fill="white" />
				<path fill-rule="evenodd" clip-rule="evenodd"
					d="M37.7 19C42.3 19 45.4 22.5 45.4 26.4C45.4 27.9 45.1 29.5 44.3 31.2C39.8 31.2 38.7 34.4 38.4 36.5V36.6C38.3 37.3 38.3 37.9 38.3 38.4L37.1 38.6C37.1 38.1 37.1 37.5 37 36.7C36.8 34.7 35.7 31.4 31.1 31.4C30.3 29.5 30 27.9 30 26.4C30 22.5 33.1 19 37.7 19Z"
					fill="#0073FA" />
			</g>
			<path fill-rule="evenodd" clip-rule="evenodd"
				d="M69.5998 17.7998C64.2998 17.7998 60.2998 20.9998 60.2998 26.4998H65.1998C65.0998 24.2998 66.5998 22.1998 69.4998 22.1998C71.6998 22.1998 73.1998 23.6998 73.1998 25.4998C73.1998 27.3998 71.5998 28.4998 69.0998 29.6998C65.7998 31.2998 63.7998 31.9998 60.2998 33.1998V39.4998H77.9998V35.1998H66.9998C68.6998 34.4998 70.3998 33.6998 71.8998 32.9998C75.8998 31.0998 78.1998 28.9998 78.1998 25.2998C78.1998 20.6998 74.7998 17.7998 69.5998 17.7998ZM85.8998 22.4998H96.0998V18.0998H81.0998V39.3998H85.8998V22.4998ZM103.3 18.0998H98.4998V39.3998H103.2L112.1 25.7998V39.3998H116.9V18.0998H112.1L103.3 31.6998C103.3 31.7998 103.3 18.0998 103.3 18.0998ZM140.8 31.4998H135.9C135.2 33.8998 132.9 35.4998 130.2 35.4998C126.3 35.4998 123.7 32.1998 123.7 28.7998C123.7 25.3998 126.2 22.0998 130.3 22.0998C133 22.0998 135.1 23.6998 135.9 26.0998H140.8C140.1 21.2998 136.2 17.7998 130.2 17.7998C123.5 17.7998 119 22.3998 119 28.7998C119 35.1998 123.5 39.7998 130.2 39.7998C136.2 39.7998 140.1 36.2998 140.8 31.4998Z"
				fill="#262626" />
		</g>
	</g>
	<path
		d="M182.313 39.1409C181.282 39.1409 180.29 38.993 179.339 38.6971C178.395 38.4012 177.615 38.0054 177 37.5096L177.863 35.3265C178.415 35.8063 179.075 36.1741 179.843 36.43C180.61 36.6779 181.386 36.8019 182.17 36.8019C182.953 36.8019 183.633 36.6739 184.209 36.418C184.784 36.1541 185.228 35.7783 185.54 35.2905C185.852 34.8027 186.008 34.2109 186.008 33.5152C186.008 32.8755 185.844 32.3277 185.516 31.8719C185.188 31.4081 184.732 31.0523 184.149 30.8044C183.573 30.5565 182.917 30.4325 182.182 30.4325C181.71 30.4325 181.222 30.4885 180.718 30.6004C180.214 30.7124 179.699 30.8843 179.171 31.1162L178.067 29.9287L178.931 22.012L188.191 22V24.351H180.838L180.334 28.7292C180.75 28.5933 181.162 28.4893 181.57 28.4173C181.986 28.3454 182.397 28.3094 182.805 28.3094C183.909 28.3094 184.896 28.5213 185.768 28.9451C186.64 29.361 187.327 29.9647 187.831 30.7564C188.343 31.548 188.599 32.4957 188.599 33.5992C188.599 34.7187 188.331 35.6943 187.795 36.526C187.267 37.3576 186.532 38.0014 185.588 38.4572C184.645 38.913 183.553 39.1409 182.313 39.1409Z"
		fill="black" />
</svg>