<?xml version="1.0" encoding="utf-8"?>
<!-- Generator: Adobe Illustrator 28.0.0, SVG Export Plug-In . SVG Version: 6.00 Build 0)  -->
<svg version="1.1" id="Слой_1" xmlns="http://www.w3.org/2000/svg" xmlns:xlink="http://www.w3.org/1999/xlink" x="0px" y="0px"
	 viewBox="0 0 54.1 68" style="enable-background:new 0 0 54.1 68;" xml:space="preserve">
<style type="text/css">
	.st0{fill:#EBEBEB;}
</style>
<g>
	<path class="st0" d="M0.9,3c0.6,0.1,1.3,0.2,1.9,0.4l0.5-1.9c-0.7-0.2-1.3-0.3-2-0.4L0.9,3z"/>
	<path class="st0" d="M13.2,7.5c1.1,0.6,2.2,1.2,3.2,1.9l1.1-1.7c-1.1-0.7-2.2-1.4-3.3-2L13.2,7.5z"/>
	<path class="st0" d="M42.4,45.3l1.9-0.6c-0.4-1.2-0.8-2.5-1.3-3.6l-1.9,0.7C41.6,42.9,42,44.1,42.4,45.3z"/>
	<path class="st0" d="M44.4,52.6l1.9-0.4c-0.3-1.3-0.6-2.5-0.9-3.7l-1.9,0.5C43.8,50.2,44.2,51.4,44.4,52.6z"/>
	<path class="st0" d="M45.8,60l2-0.3c-0.2-1.3-0.4-2.6-0.6-3.8l-2,0.4C45.4,57.5,45.7,58.8,45.8,60z"/>
	<path class="st0" d="M6.4,4.5c1.2,0.4,2.3,0.9,3.5,1.4L10.6,4C9.4,3.5,8.2,3,7,2.6L6.4,4.5z"/>
	<path class="st0" d="M34.5,28.3c0.7,1.1,1.3,2.1,1.9,3.2l1.7-1c-0.6-1.1-1.3-2.2-2-3.3L34.5,28.3z"/>
	<path class="st0" d="M40,34l-1.8,0.9c0.6,1.1,1.1,2.3,1.6,3.4l1.8-0.8C41.1,36.3,40.5,35.1,40,34z"/>
	<path class="st0" d="M19.4,11.6c1,0.7,2,1.5,2.9,2.4l1.3-1.5c-1-0.9-2-1.7-3-2.5L19.4,11.6z"/>
	<path class="st0" d="M30.1,22.1c0.8,1,1.5,2,2.3,3L34,24c-0.8-1.1-1.5-2.1-2.3-3.1L30.1,22.1z"/>
	<path class="st0" d="M25.1,16.5c0.9,0.9,1.8,1.8,2.6,2.7l1.5-1.3c-0.9-1-1.8-1.9-2.7-2.8L25.1,16.5z"/>
	<polygon class="st0" points="50.8,57.3 47.2,63.7 46.9,63.8 41.7,58.1 39.9,59.7 47.5,68 52.9,58.5 	"/>
</g>
</svg>
