<?xml version="1.0" encoding="utf-8"?>
<!-- Generator: Adobe Illustrator 28.0.0, SVG Export Plug-In . SVG Version: 6.00 Build 0)  -->
<svg version="1.1" id="Слой_1" xmlns="http://www.w3.org/2000/svg" xmlns:xlink="http://www.w3.org/1999/xlink" x="0px" y="0px"
	 viewBox="0 0 86 94.4" style="enable-background:new 0 0 86 94.4;" xml:space="preserve">
<style type="text/css">
	.st0{fill:#9049FF;stroke:#9049FF;stroke-width:0.75;stroke-miterlimit:10;}
</style>
<path class="st0" d="M11.7,36.4H17v-1.9h-5.2V36.4z M59.7,72.6V5.4c0-1.3,0.5-2.5,1.4-3.3s2-1.4,3.3-1.4s2.5,0.5,3.3,1.4
	c0.9,0.9,1.4,2,1.4,3.3v67.2h11.2c1.3,0,2.6,0.6,3.4,1.4c0.9,0.9,1.4,2.1,1.4,3.4s-0.6,2.6-1.4,3.4l-0.1,0.1c-0.5,0.4-1,0.8-1.6,1
	l3,9.6c0.1,0.2,0.1,0.4,0.1,0.6c0,0.8-0.7,1.5-1.5,1.5H45.2c-1,0-1.7-1-1.4-1.9l3.1-9.7c-0.7-0.2-1.2-0.6-1.7-1.1
	c-0.9-0.9-1.4-2.1-1.4-3.4c0-1.3,0.6-2.6,1.4-3.4c0.9-0.9,2.1-1.4,3.4-1.4L59.7,72.6L59.7,72.6z M66.2,72.6V5.4
	c0-0.5-0.2-0.9-0.5-1.2s-0.7-0.5-1.2-0.5c-0.5,0-0.9,0.2-1.2,0.5S62.7,5,62.7,5.4v67.2H66.2z M52.6,90.7v-3.8c0-0.8,0.7-1.5,1.5-1.5
	s1.5,0.7,1.5,1.5v3.8h3.9v-3.8c0-0.8,0.7-1.5,1.5-1.5s1.5,0.7,1.5,1.5v3.8h3.9v-3.8c0-0.8,0.7-1.5,1.5-1.5s1.5,0.7,1.5,1.5v3.8h3.9
	v-3.8c0-0.8,0.7-1.5,1.5-1.5s1.5,0.7,1.5,1.5v3.8h5.4L79,82.4H49.9l-2.6,8.3H52.6z M80.3,75.6H48.6c-0.5,0-1,0.2-1.3,0.6
	c-0.3,0.3-0.6,0.8-0.6,1.3c0,0.5,0.2,1,0.6,1.3c0.3,0.3,0.8,0.6,1.3,0.6h31.8c0.5,0,0.9-0.2,1.3-0.5l0.1-0.1
	c0.3-0.3,0.6-0.8,0.6-1.3s-0.2-1-0.6-1.3C81.3,75.9,80.9,75.6,80.3,75.6L80.3,75.6z M27.6,64.9c0.4-0.7,1.3-0.9,2.1-0.5
	c0.7,0.4,0.9,1.3,0.5,2.1C24.4,76.1,18.9,81.5,14.2,84l1.4,6.7h21.5L44,58H8.7l4.8,23C17.6,78.6,22.4,73.6,27.6,64.9L27.6,64.9z
	 M11.4,85.2c-0.4,0.1-0.9,0.2-1.3,0.3c-2.6,0.5-4.8,0-6.5-1.3C2,83,1,81.1,0.7,78.7c-0.4-4,1.4-9.2,6.4-13.8l-1.5-7H3
	c-0.8,0-1.5-0.7-1.5-1.5V51c0-0.8,0.7-1.5,1.5-1.5h2.6v-6.3c0-0.3,0.1-0.6,0.3-0.9l2.9-4.8V33c0-0.8,0.7-1.5,1.5-1.5h8.2
	c0.8,0,1.5,0.7,1.5,1.5v4.5l0.3,0.6c0.5-0.5,1.1-0.9,1.7-1.1c1-0.4,2.1-0.7,3.2-0.6c1.1,0.1,2.2,0.5,3.1,1.1
	c0.4,0.3,0.8,0.6,1.1,0.9c0.4-0.2,0.7-0.3,1.1-0.4c1-0.2,2.1-0.2,3.1,0.3c1,0.4,1.8,1.2,2.3,2.1l0.2,0.5c1-0.3,2-0.4,3-0.4
	c1.8,0.1,3.5,0.8,4.9,2c1.2,1,2,2.4,2.4,3.8c0.3,1,0.4,2.1,0.2,3.2h3.2c0.8,0,1.5,0.7,1.5,1.5v5.5c0,0.8-0.7,1.5-1.5,1.5H47
	l-7.3,34.5c-0.1,0.7-0.8,1.2-1.5,1.2l-23.9,0c-0.8,0-1.4-0.6-1.5-1.3L11.4,85.2L11.4,85.2z M7.9,68.5c-3.3,3.5-4.5,7.1-4.2,9.9
	c0.2,1.5,0.8,2.7,1.8,3.5c1,0.7,2.4,1,4.1,0.7c0.4-0.1,0.8-0.2,1.2-0.3L7.9,68.5z M22,40.8L22,40.8l0.9,1.6c0.2,0.2,0.3,0.5,0.3,0.9
	v6.3h20.3c0.2-0.8,0.1-1.6-0.1-2.4c-0.3-0.9-0.8-1.7-1.5-2.4c-0.9-0.8-1.9-1.2-3-1.3c-1.1-0.1-2.2,0.2-3.1,0.9
	c-0.3,0.2-0.7,0.3-1.2,0.3c-0.8-0.1-1.4-0.9-1.2-1.7c0.1-0.4,0-0.8-0.2-1.1c-0.2-0.3-0.5-0.6-0.8-0.8c-0.4-0.2-0.8-0.2-1.1-0.1
	c-0.4,0.1-0.7,0.3-0.9,0.6c-0.1,0.2-0.3,0.3-0.5,0.4c-0.7,0.4-1.6,0.1-2-0.7c-0.3-0.5-0.7-1-1.1-1.3c-0.5-0.3-1-0.5-1.6-0.6
	c-0.6,0-1.2,0.1-1.7,0.3C22.8,39.9,22.3,40.3,22,40.8L22,40.8z M11.1,39.4l-1.4,2.3H19l-1.4-2.3H11.1L11.1,39.4z M8.6,49.5h11.5
	v-4.8H8.6V49.5z M48.2,52.5H4.5V55h43.7V52.5z"/>
</svg>
