<svg xmlns="http://www.w3.org/2000/svg" width="210" height="97" viewBox="0 0 210 97" fill="none">
	<path
		d="M2.80005 34.8L11.5 34.3L12.2 45.5L22.6 33.7L33.9001 33L20.6 47.7L36.1 64.2L25 64.9L14.7 53.6L12.9 55.7L13.5 65.6L4.80005 66.1L2.80005 34.8Z"
		fill="white" />
	<path
		d="M35.3001 37C38.1001 33.8 43.1001 31.7 48.8001 31.4C56.9001 30.9 61.9001 35.4 62.4001 43.6L63.5001 62.5L54.8001 63L54.6001 60.2C53.4001 61.8 50.2001 63.7 46.4001 63.9C39.5001 64.3 34.7001 60.6 34.4001 54.4C34.0001 47.2 40.5001 43.7 48.0001 43.3C50.2001 43.2 52.3001 43.3 53.7001 43.7C53.6001 40.5 51.7001 39.4 48.4001 39.6C45.0001 39.8 43.0001 40.6 39.9001 43.1L35.3001 37ZM54.1001 52.4L54.0001 50.9C53.0001 50.6 51.0001 50.3 49.2001 50.4C45.7001 50.6 43.2001 51.5 43.3001 53.8C43.4001 55.5 45.0001 56.4 47.7001 56.3C50.7001 56.2 53.2001 54.4 54.1001 52.4Z"
		fill="white" />
	<path
		d="M66.8 30.9994L74.5 30.4994L85 42.3994L94.1 29.2994L101.3 28.8994L103.2 60.1994L94.5 60.6994L93.5 44.6994L85.9 55.4994L76.5 45.4994L77.5 61.6994L68.8 62.1994L66.8 30.9994Z"
		fill="white" />
	<path
		d="M137.1 52.3999C134 56.7999 129.2 59.0999 124 59.4999C113.9 60.0999 106.7 54.1999 106.1 44.2999C105.6 35.1999 110.8 27.6999 121.4 27.0999C129.9 26.5999 136.7 31.8999 137.2 40.5999C137.3 41.5999 137.2 43.2999 137 45.6999L115.5 46.9999C116.5 50.3999 119.8 51.5999 123.7 51.3999C126.6 51.1999 129.9 49.8999 131.6 47.4999L137.1 52.3999ZM115.2 39.3999L128 38.5999C127 35.6999 124.7 34.6999 121.6 34.8999C118.3 35.0999 116.1 36.4999 115.2 39.3999Z"
		fill="white" />
	<path
		d="M140.3 26.6L149 26.1L149.1 27.7C150.6 26.1 153.5 25.1 155.9 25C165.4 24.4 171.7 30.6 172.2 39.9C172.8 49.4 167.1 56.9 157.6 57.4C154.6 57.6 151.8 57.3 150.8 56.2L151.6 69.3L142.9 69.8L140.3 26.6ZM149.6 37.1L150.2 47.1C151.2 48.5 153.4 49.6 155.9 49.4C160.8 49.1 163.5 45.9 163.3 41.1C163 35.6 160 32.9 155.5 33.2C152.6 33.3 150.7 34.9 149.6 37.1Z"
		fill="white" />
	<path
		d="M175.7 28.5996C178.5 25.3996 183.5 23.2996 189.2 22.9996C197.3 22.4996 202.3 26.9996 202.8 35.1996L203.9 54.0996L195.2 54.5996L195 51.7996C193.8 53.3996 190.6 55.2996 186.8 55.4996C179.9 55.8996 175.1 52.1996 174.8 45.9996C174.4 38.7996 180.9 35.2996 188.4 34.8996C190.6 34.7996 192.7 34.8996 194.1 35.2996C194 32.0996 192.1 30.9996 188.8 31.1996C185.4 31.3996 183.4 32.1996 180.3 34.6996L175.7 28.5996ZM194.5 43.9996L194.4 42.5996C193.4 42.2996 191.4 41.9996 189.6 42.0996C186.1 42.2996 183.6 43.1996 183.7 45.4996C183.8 47.1996 185.4 48.0996 188.1 47.9996C191.1 47.7996 193.6 45.9996 194.5 43.9996Z"
		fill="white" />
	<path
		d="M203.8 96.4994L70.3 90.2994C69.2 90.1994 68.3 89.2994 68.3 88.0994L69.6 60.3994C69.7 59.2994 70.6 58.3994 71.8 58.3994L205.4 64.5994C206.5 64.6994 207.4 65.5994 207.4 66.7994L206 94.4994C205.9 95.6994 205 96.4994 203.8 96.4994Z"
		fill="#9049FF" />
	<path
		d="M87.2 74.8992L92.5 82.3992L87.6 82.1992L84.6 77.7992L81.1 81.8992L76.4 81.6992L82.3 74.7992L77.3 67.6992L82.1 67.8992L84.9 71.7992L88.1 68.0992L92.8 68.2992L87.2 74.8992Z"
		fill="white" />
	<path
		d="M94.1001 68.3994L98.0001 68.5994V69.2994C98.8001 68.6994 100.1 68.3994 101.2 68.3994C105.5 68.5994 108 71.6994 107.8 75.7994C107.6 80.0994 104.7 83.0994 100.4 82.8994C99.1001 82.7994 97.8001 82.5994 97.4001 82.0994L97.1001 87.9994L93.2001 87.7994L94.1001 68.3994ZM97.8001 73.4994L97.6001 77.9994C98.0001 78.6994 98.9001 79.2994 100 79.2994C102.2 79.3994 103.6 78.0994 103.7 75.9994C103.8 73.4994 102.6 72.1994 100.6 72.0994C99.3001 71.9994 98.4001 72.5994 97.8001 73.4994Z"
		fill="white" />
	<path
		d="M109.8 70.9993C111.2 69.6993 113.5 68.9993 116.1 69.0993C119.7 69.2993 121.7 71.4993 121.6 75.1993L121.2 83.6993L117.3 83.4993L117.4 82.1993C116.8 82.8993 115.3 83.4993 113.6 83.4993C110.5 83.3993 108.6 81.4993 108.7 78.6993C108.9 75.4993 111.9 74.1993 115.3 74.3993C116.3 74.3993 117.2 74.5993 117.8 74.8993C117.9 73.4993 117.1 72.8993 115.6 72.7993C114.1 72.6993 113.2 72.9993 111.7 73.9993L109.8 70.9993ZM117.5 78.6993V78.0993C117.1 77.8993 116.2 77.6993 115.4 77.6993C113.8 77.5993 112.7 77.8993 112.6 78.8993C112.6 79.6993 113.2 80.0993 114.4 80.1993C115.8 80.2993 117 79.5993 117.5 78.6993Z"
		fill="white" />
	<path
		d="M133.1 78.9994L127.7 78.7994L127.5 84.0994L123.6 83.8994L124.3 69.8994L128.2 70.0994L128 75.1994L133.4 75.3994L133.6 70.2994L137.5 70.4994L136.8 84.4994L132.9 84.2994L133.1 78.9994Z"
		fill="white" />
	<path
		d="M152.2 82.5992C150.6 84.3992 148.4 85.1992 146 85.0992C141.5 84.8992 138.5 81.8992 138.8 77.4992C139 73.3992 141.7 70.2992 146.4 70.5992C150.2 70.7992 153 73.3992 152.8 77.3992C152.8 77.7992 152.7 78.5992 152.5 79.6992L142.8 79.2992C143.1 80.8992 144.5 81.5992 146.2 81.5992C147.5 81.6992 149 81.1992 149.9 80.1992L152.2 82.5992ZM143.1 75.6992L148.8 75.9992C148.5 74.6992 147.5 74.0992 146.1 73.9992C144.6 73.9992 143.6 74.4992 143.1 75.6992Z"
		fill="white" />
	<path
		d="M163.7 80.3988L158.3 80.1988L158.1 85.4988L154.2 85.2988L154.9 71.2988L158.8 71.4988L158.6 76.5988L164 76.7988L164.2 71.6988L168.1 71.8988L167.4 85.8988L163.5 85.6988L163.7 80.3988Z"
		fill="white" />
	<path
		d="M169.8 85.999L170.5 71.999L174.4 72.199L174 79.799L180.6 72.499L183.9 72.699L183.2 86.699L179.3 86.499L179.7 78.899L173.1 86.199L169.8 85.999Z"
		fill="white" />
	<path
		d="M198.4 73.1989L197.7 87.1989L193.8 86.9989L194 82.7989L192.2 82.6989L189.1 86.7989L184.6 86.5989L188.4 81.8989C186.5 81.1989 185.7 79.5989 185.8 77.3989C185.9 74.7989 187.7 72.6989 192.4 72.8989L198.4 73.1989ZM191.8 79.0989L194.2 79.1989L194.3 76.6989L192 76.5989C190.5 76.4989 189.8 76.9989 189.8 77.7989C189.8 78.4989 190.4 78.9989 191.8 79.0989Z"
		fill="white" />
	<path
		d="M86.4 1.2L80.9 4.4C80.5 4.6 80.2 5.1 80.2 5.6V12C80.2 12.5 80.5 12.9 80.9 13.2L86.4 16.4C86.8 16.6 87.3 16.6 87.8 16.4L93.3 13.2C93.7 13 94 12.5 94 12V5.5C94 5 93.7 4.6 93.3 4.3L87.8 1.1C87.5 1 87.3 1 87 1C86.8 1 86.6 1 86.4 1.2Z"
		fill="#4B9ED4" />
	<mask id="mask0_2222_1056" style="mask-type:luminance" maskUnits="userSpaceOnUse" x="80" y="1"
		width="14" height="16">
		<path
			d="M86.4 1.2L80.9 4.4C80.5 4.6 80.2 5.1 80.2 5.6V12C80.2 12.5 80.5 12.9 80.9 13.2L86.4 16.4C86.8 16.6 87.3 16.6 87.8 16.4L93.3 13.2C93.7 13 94 12.5 94 12V5.5C94 5 93.7 4.6 93.3 4.3L87.8 1.1C87.5 1 87.3 1 87 1C86.8 1 86.6 1 86.4 1.2Z"
			fill="white" />
	</mask>
	<g mask="url(#mask0_2222_1056)">
		<path
			d="M93.9 11.9002V5.5002C93.9 5.0002 93.6 4.6002 93.2 4.3002L87.7 1.1002C87.3 0.900195 86.8 0.900195 86.3 1.1002L80.8 4.3002C80.4 4.5002 80.1 5.0002 80.1 5.5002V11.9002C80.1 12.4002 80.4 12.8002 80.8 13.1002L86.3 16.3002C86.7 16.5002 87.2 16.5002 87.7 16.3002L93.2 13.1002C93.7 12.8002 93.9 12.4002 93.9 11.9002Z"
			fill="#4B9ED4" />
	</g>
	<path
		d="M104.3 1.2L98.8 4.4C98.4 4.6 98.1 5.1 98.1 5.6V12C98.1 12.5 98.4 12.9 98.8 13.2L104.3 16.4C104.7 16.6 105.2 16.6 105.7 16.4L111.2 13.2C111.6 13 111.9 12.5 111.9 12V5.5C111.9 5 111.6 4.6 111.2 4.3L105.7 1.1C105.5 1 105.2 1 105 1C104.8 1 104.5 1 104.3 1.2Z"
		fill="#2477AE" />
	<mask id="mask1_2222_1056" style="mask-type:luminance" maskUnits="userSpaceOnUse" x="98" y="1"
		width="14" height="16">
		<path
			d="M104.3 1.2L98.8 4.4C98.4 4.6 98.1 5.1 98.1 5.6V12C98.1 12.5 98.4 12.9 98.8 13.2L104.3 16.4C104.7 16.6 105.2 16.6 105.7 16.4L111.2 13.2C111.6 13 111.9 12.5 111.9 12V5.5C111.9 5 111.6 4.6 111.2 4.3L105.7 1.1C105.5 1 105.2 1 105 1C104.8 1 104.5 1 104.3 1.2Z"
			fill="white" />
	</mask>
	<g mask="url(#mask1_2222_1056)">
		<path
			d="M111.9 11.9002V5.5002C111.9 5.0002 111.6 4.6002 111.2 4.3002L105.7 1.1002C105.3 0.900195 104.8 0.900195 104.3 1.1002L98.8 4.3002C98.4 4.5002 98.1 5.0002 98.1 5.5002V11.9002C98.1 12.4002 98.4 12.8002 98.8 13.1002L104.3 16.3002C104.7 16.5002 105.2 16.5002 105.7 16.3002L111.2 13.1002C111.6 12.8002 111.9 12.4002 111.9 11.9002Z"
			fill="#2477AE" />
	</g>
	<path
		d="M122.3 1.2L116.8 4.4C116.4 4.6 116.1 5.1 116.1 5.6V12C116.1 12.5 116.4 12.9 116.8 13.2L122.3 16.4C122.7 16.6 123.2 16.6 123.7 16.4L129.2 13.2C129.6 13 129.9 12.5 129.9 12V5.5C129.9 5 129.6 4.6 129.2 4.3L123.7 1.1C123.4 1 123.2 1 123 1C122.7 1 122.5 1 122.3 1.2Z"
		fill="#9BA957" />
	<mask id="mask2_2222_1056" style="mask-type:luminance" maskUnits="userSpaceOnUse" x="116" y="1"
		width="14" height="16">
		<path
			d="M122.3 1.2L116.8 4.4C116.4 4.6 116.1 5.1 116.1 5.6V12C116.1 12.5 116.4 12.9 116.8 13.2L122.3 16.4C122.7 16.6 123.2 16.6 123.7 16.4L129.2 13.2C129.6 13 129.9 12.5 129.9 12V5.5C129.9 5 129.6 4.6 129.2 4.3L123.7 1.1C123.4 1 123.2 1 123 1C122.7 1 122.5 1 122.3 1.2Z"
			fill="white" />
	</mask>
	<g mask="url(#mask2_2222_1056)">
		<path
			d="M129.8 11.9002V5.5002C129.8 5.0002 129.5 4.6002 129.1 4.3002L123.6 1.1002C123.2 0.900195 122.7 0.900195 122.2 1.1002L116.7 4.3002C116.3 4.5002 116 5.0002 116 5.5002V11.9002C116 12.4002 116.3 12.8002 116.7 13.1002L122.2 16.3002C122.6 16.5002 123.1 16.5002 123.6 16.3002L129.1 13.1002C129.6 12.8002 129.8 12.4002 129.8 11.9002Z"
			fill="#9BA957" />
	</g>
</svg>