<?xml version="1.0" encoding="utf-8"?>
<!-- Generator: Adobe Illustrator 28.0.0, SVG Export Plug-In . SVG Version: 6.00 Build 0)  -->
<svg version="1.1" id="Слой_1" xmlns="http://www.w3.org/2000/svg" xmlns:xlink="http://www.w3.org/1999/xlink" x="0px" y="0px"
	 viewBox="292.1 415.4 11 11" style="enable-background:new 292.1 415.4 11 11;" xml:space="preserve">
<path d="M297.5,415.4c0.1,0,0.1,0,0.2,0c3.4-0.1,2.9,4.1,1.8,6c-0.2,0.4-0.5,0.7-0.4,1c0.2,1.3,3.1,0.9,3.7,1.7
	c0.5,0.5,0.2,1.3,0.3,2.3c-3.7,0-7.4,0.1-11,0c0.1-1-0.1-1.7,0.3-2.2c0.7-0.8,3.6-0.4,3.7-1.7c0-0.3-0.2-0.6-0.4-1
	C294.6,419.4,294.2,415.4,297.5,415.4z"/>
</svg>
