<?xml version="1.0" encoding="utf-8"?>
<!-- Generator: Adobe Illustrator 28.0.0, SVG Export Plug-In . SVG Version: 6.00 Build 0)  -->
<svg version="1.1" id="Слой_1" xmlns="http://www.w3.org/2000/svg" xmlns:xlink="http://www.w3.org/1999/xlink" x="0px" y="0px"
	 viewBox="0 0 40 40" style="enable-background:new 0 0 40 40;" xml:space="preserve">
<style type="text/css">
	.st0{fill-rule:evenodd;clip-rule:evenodd;fill:#FF0096;}
</style>
<g>
	<path class="st0" d="M20.1,12.4c-2.1,0-3.8,1.7-3.8,3.7c0,2.1,1.7,3.8,3.8,3.8c2,0,3.7-1.7,3.7-3.8C23.7,14.1,22,12.4,20.1,12.4z"
		/>
	<path class="st0" d="M20,0C9,0,0,9,0,20c0,11,9,20,20,20c11,0,20-9,20-20C40,9,31,0,20,0z M20.1,31.9c-3.1-3.5-8.5-10.5-8.5-15.3
		c0-4.7,3.8-8.5,8.5-8.5c4.6,0,8.4,3.8,8.4,8.5C28.4,21.4,23.1,28.4,20.1,31.9z"/>
</g>
</svg>
