<?xml version="1.0" encoding="utf-8"?>
<!-- Generator: Adobe Illustrator 28.0.0, SVG Export Plug-In . SVG Version: 6.00 Build 0)  -->
<svg version="1.1" id="Слой_1" xmlns="http://www.w3.org/2000/svg" xmlns:xlink="http://www.w3.org/1999/xlink" x="0px" y="0px"
	 viewBox="0 0 40 40" style="enable-background:new 0 0 40 40;" xml:space="preserve">
<style type="text/css">
	.st0{fill-rule:evenodd;clip-rule:evenodd;fill:#FFFFFF;}
</style>
<path class="st0" d="M20,0C9,0,0,9,0,20c0,11,9,20,20,20c11,0,20-9,20-20C40,9,31,0,20,0z M30.1,27.8l-1,2.9
	c-0.2,0.8-0.8,1.3-1.6,1.4c-1.6,0.2-3.8-0.5-6-2c-4.8-3.1-9.3-9.2-11-14.7c-0.8-2.6-0.9-4.8-0.2-6.3c0.3-0.7,1-1.2,1.8-1.2l3.1-0.1
	c1,0,1.9,0.7,2.1,1.7l0.4,2.4c0.1,0.4,0,0.7-0.1,1.1c-0.2,0.6-0.6,0.8-1.1,1.2c-0.7,0.6-0.9,1.5-0.5,2.3c1.5,2.9,3.6,5.7,6,8v0
	c0.7,0.6,1.7,0.7,2.4,0.2l0.4-0.3c0.6-0.4,1.3-0.5,2-0.2l2.2,1C29.9,25.8,30.4,26.8,30.1,27.8z"/>
</svg>
