<?xml version="1.0" encoding="utf-8"?>
<!-- Generator: Adobe Illustrator 28.0.0, SVG Export Plug-In . SVG Version: 6.00 Build 0)  -->
<svg version="1.1" id="Слой_1" xmlns="http://www.w3.org/2000/svg" xmlns:xlink="http://www.w3.org/1999/xlink" x="0px" y="0px"
	 viewBox="292.1 415.4 11 11" style="enable-background:new 292.1 415.4 11 11;" xml:space="preserve">
<path d="M292.9,415.9c0.4-0.4,1.8-0.5,1.8-0.3c0,0.2,1.2,2.8,1.2,3c0,0.2-0.8,1-1,1.3c-0.2,0.2,1.6,2.2,1.6,2.3c0,0,2.1,1.8,2.3,1.6
	c0.2-0.2,1-1,1.3-1c0.2,0,2.8,1.2,3,1.2c0.2,0,0.2,1.3-0.3,1.8c-0.4,0.4-2.3,1.7-5.7-0.7c-0.4-0.2-1-0.7-1.9-1.6c0,0,0,0,0,0
	c0,0,0,0,0,0c0,0,0,0,0,0c0,0,0,0,0,0c-0.9-0.9-1.4-1.5-1.6-1.9C291.1,418.2,292.5,416.2,292.9,415.9z"/>
</svg>
