<svg xmlns="http://www.w3.org/2000/svg" width="76" height="63" viewBox="0 0 76 63" fill="none">
    <mask id="mask0_2027_488" style="mask-type:luminance" maskUnits="userSpaceOnUse" x="0" y="0" width="76" height="63">
      <path d="M7.47489e-05 52.0457L8.24329 0L75.2747 10.6167L67.0315 62.6624L7.47489e-05 52.0457Z" fill="white"/>
    </mask>
    <g mask="url(#mask0_2027_488)">
      <mask id="mask1_2027_488" style="mask-type:luminance" maskUnits="userSpaceOnUse" x="0" y="0" width="76" height="63">
        <path d="M8.24324 0L0 52.0457L67.0314 62.6625L75.2746 10.6167L8.24324 0Z" fill="white"/>
      </mask>
      <g mask="url(#mask1_2027_488)">
        <path d="M10.3075 2.27491C10.2573 1.61317 10.2275 0.958763 10.216 0.312378L8.18835 0.348405C8.20088 1.03395 8.23281 1.72667 8.28581 2.42888L10.3075 2.27491Z" fill="black" fill-opacity="0.1"/>
      </g>
      <mask id="mask2_2027_488" style="mask-type:luminance" maskUnits="userSpaceOnUse" x="0" y="0" width="76" height="63">
        <path d="M8.24324 0L0 52.0457L67.0314 62.6625L75.2746 10.6167L8.24324 0Z" fill="white"/>
      </mask>
      <g mask="url(#mask2_2027_488)">
        <path d="M11.6106 9.70604C11.276 8.47478 10.9975 7.23291 10.7817 6.01636L8.78491 6.36929C9.01086 7.64492 9.30252 8.94636 9.65326 10.2377L11.6106 9.70604ZM14.1796 16.8408C13.6574 15.6794 13.1779 14.4949 12.7541 13.3214L10.8469 14.0098C11.2877 15.2312 11.7863 16.4638 12.3297 17.6727L14.1796 16.8408ZM17.7704 23.5441C17.0939 22.4629 16.4514 21.3543 15.8592 20.2526L14.0725 21.2105C14.6849 22.3533 15.3511 23.4996 16.0513 24.6194L17.7704 23.5441ZM22.2067 29.7367C21.4058 28.7539 20.6271 27.7345 19.8915 26.7087L18.2441 27.8888C19.003 28.9491 19.8074 30.0003 20.6338 31.0169L22.2067 29.7367ZM27.3548 35.3688C26.4401 34.4757 25.5466 33.5532 24.6999 32.6257L23.2044 33.994C24.0775 34.9483 24.9975 35.8987 25.9379 36.8174L27.3548 35.3688ZM33.0967 40.4012C32.0991 39.6171 31.1105 38.7954 30.1578 37.961L28.8223 39.485C29.8019 40.3443 30.8188 41.1879 31.8436 41.9947L33.0967 40.4012ZM39.3347 44.8162C38.2649 44.1377 37.196 43.4213 36.1596 42.6875L34.9881 44.3423C36.0523 45.0948 37.1491 45.8299 38.2475 46.5284L39.3347 44.8162ZM45.9795 48.6059C44.8457 48.0271 43.712 47.4154 42.6125 46.7887L41.6079 48.5499C42.7357 49.1924 43.8957 49.8195 45.0581 50.4121L45.9795 48.6059ZM52.9457 51.7794C51.7649 51.303 50.58 50.7941 49.4263 50.2696L48.5869 52.1154C49.7674 52.6524 50.9794 53.1718 52.1871 53.6597L52.9457 51.7794ZM60.1635 54.3493C58.9495 53.9723 57.726 53.565 56.5281 53.1382L55.8477 55.0492C57.072 55.4844 58.3218 55.9009 59.5634 56.2854L60.1635 54.3493Z" fill="black" fill-opacity="0.1"/>
      </g>
      <mask id="mask3_2027_488" style="mask-type:luminance" maskUnits="userSpaceOnUse" x="0" y="0" width="76" height="63">
        <path d="M8.24324 0L0 52.0457L67.0314 62.6625L75.2746 10.6167L8.24324 0Z" fill="white"/>
      </mask>
      <g mask="url(#mask3_2027_488)">
        <path d="M67.8803 57.3006L60.7336 48.3591L58.8334 49.8779L63.876 56.1891L56.6395 58.8693L57.4843 61.1502L67.8803 57.3006Z" fill="black" fill-opacity="0.1"/>
      </g>
    </g>
  </svg>