<svg width="282" height="85" viewBox="0 0 282 85" fill="none" xmlns="http://www.w3.org/2000/svg">
    <path fill-rule="evenodd" clip-rule="evenodd"
        d="M8.992 1.25391H271.974C276.392 1.25391 279.974 4.83591 279.974 9.25491V74.7449C279.974 79.1629 276.392 82.7449 271.974 82.7449H8.992C4.574 82.7449 0.992004 79.1629 0.992004 74.7449V9.25491C0.992004 4.83591 4.574 1.25391 8.992 1.25391Z"
        fill="white" stroke="#ECECEC" />
    <path
        d="M20.333 67.7002V66.5802L22.454 64.6412C23.126 64.0252 23.6673 63.4955 24.078 63.0522C24.4887 62.6042 24.7873 62.2005 24.974 61.8412C25.1607 61.4819 25.254 61.1179 25.254 60.7492C25.254 60.2125 25.0697 59.7949 24.701 59.4962C24.337 59.1929 23.8283 59.0412 23.175 59.0412C22.741 59.0412 22.3257 59.1159 21.929 59.2652C21.5323 59.4145 21.194 59.6315 20.914 59.9162L20.34 58.7752C20.7367 58.4205 21.194 58.1522 21.712 57.9702C22.23 57.7835 22.7737 57.6902 23.343 57.6902C24.0197 57.6902 24.61 57.8115 25.114 58.0542C25.6227 58.2922 26.017 58.6305 26.297 59.0692C26.5817 59.5032 26.724 60.0119 26.724 60.5952C26.724 61.0012 26.6423 61.4072 26.479 61.8132C26.3203 62.2145 26.0333 62.6672 25.618 63.1712C25.2073 63.6752 24.624 64.2795 23.868 64.9842L22.363 66.3702H26.969V67.7002H20.333ZM32.0345 67.9102C31.3112 67.9102 30.6858 67.7795 30.1585 67.5182C29.6312 67.2569 29.2252 66.9045 28.9405 66.4612C28.6558 66.0179 28.5135 65.5209 28.5135 64.9702C28.5135 64.5782 28.5835 64.2282 28.7235 63.9202C28.8682 63.6075 29.0735 63.3369 29.3395 63.1082C29.6102 62.8749 29.9345 62.6835 30.3125 62.5342C29.9298 62.3802 29.5915 62.1212 29.2975 61.7572C29.0035 61.3932 28.8565 60.9335 28.8565 60.3782C28.8565 59.8602 28.9942 59.3982 29.2695 58.9922C29.5448 58.5862 29.9228 58.2689 30.4035 58.0402C30.8888 57.8069 31.4418 57.6902 32.0625 57.6902C32.6972 57.6902 33.2572 57.8069 33.7425 58.0402C34.2325 58.2735 34.6152 58.5932 34.8905 58.9992C35.1658 59.4052 35.3035 59.8649 35.3035 60.3782C35.3035 60.7515 35.2335 61.0805 35.0935 61.3652C34.9582 61.6499 34.7785 61.8902 34.5545 62.0862C34.3305 62.2822 34.0925 62.4315 33.8405 62.5342C34.3725 62.7582 34.7995 63.0732 35.1215 63.4792C35.4482 63.8852 35.6115 64.3822 35.6115 64.9702C35.6115 65.5209 35.4622 66.0179 35.1635 66.4612C34.8648 66.9045 34.4472 67.2569 33.9105 67.5182C33.3785 67.7795 32.7532 67.9102 32.0345 67.9102ZM32.0625 66.6152C32.4218 66.6152 32.7555 66.5499 33.0635 66.4192C33.3762 66.2885 33.6258 66.0949 33.8125 65.8382C34.0038 65.5815 34.0995 65.2642 34.0995 64.8862C34.0995 64.5129 34.0085 64.1979 33.8265 63.9412C33.6445 63.6799 33.3995 63.4839 33.0915 63.3532C32.7835 63.2225 32.4405 63.1572 32.0625 63.1572C31.4792 63.1572 30.9938 63.3065 30.6065 63.6052C30.2192 63.8992 30.0255 64.3262 30.0255 64.8862C30.0255 65.2642 30.1188 65.5815 30.3055 65.8382C30.4922 66.0949 30.7395 66.2885 31.0475 66.4192C31.3555 66.5499 31.6938 66.6152 32.0625 66.6152ZM32.0765 61.8902C32.4265 61.8902 32.7368 61.8319 33.0075 61.7152C33.2828 61.5939 33.4952 61.4235 33.6445 61.2042C33.7985 60.9849 33.8755 60.7259 33.8755 60.4272C33.8755 59.9839 33.7098 59.6129 33.3785 59.3142C33.0472 59.0155 32.6132 58.8662 32.0765 58.8662C31.7218 58.8662 31.4092 58.9362 31.1385 59.0762C30.8678 59.2115 30.6555 59.3959 30.5015 59.6292C30.3522 59.8625 30.2775 60.1285 30.2775 60.4272C30.2775 60.8705 30.4455 61.2252 30.7815 61.4912C31.1222 61.7572 31.5538 61.8902 32.0765 61.8902ZM40.9774 67.9102C40.2401 67.9102 39.5868 67.7515 39.0174 67.4342C38.4481 67.1169 38.0001 66.6595 37.6734 66.0622C37.3468 65.4602 37.1834 64.7345 37.1834 63.8852C37.1834 63.0592 37.3374 62.2985 37.6454 61.6032C37.9534 60.9032 38.3851 60.2849 38.9404 59.7482C39.4958 59.2069 40.1444 58.7612 40.8864 58.4112C41.6331 58.0612 42.4428 57.8209 43.3154 57.6902L43.8614 58.8942C43.1474 58.9689 42.5128 59.1182 41.9574 59.3422C41.4021 59.5615 40.9238 59.8345 40.5224 60.1612C40.1258 60.4879 39.8014 60.8519 39.5494 61.2532C39.2974 61.6499 39.1108 62.0652 38.9894 62.4992C39.2508 62.1632 39.5821 61.8972 39.9834 61.7012C40.3848 61.5005 40.8211 61.4002 41.2924 61.4002C41.9224 61.4002 42.4894 61.5332 42.9934 61.7992C43.5021 62.0652 43.9011 62.4339 44.1904 62.9052C44.4844 63.3765 44.6314 63.9202 44.6314 64.5362C44.6314 65.0075 44.5428 65.4485 44.3654 65.8592C44.1881 66.2699 43.9361 66.6292 43.6094 66.9372C43.2828 67.2405 42.8954 67.4785 42.4474 67.6512C42.0041 67.8239 41.5141 67.9102 40.9774 67.9102ZM40.9774 66.5802C41.3928 66.5802 41.7614 66.4962 42.0834 66.3282C42.4054 66.1602 42.6574 65.9315 42.8394 65.6422C43.0261 65.3482 43.1194 65.0122 43.1194 64.6342C43.1194 64.2609 43.0238 63.9272 42.8324 63.6332C42.6458 63.3392 42.3891 63.1059 42.0624 62.9332C41.7404 62.7605 41.3788 62.6742 40.9774 62.6742C40.5714 62.6742 40.2051 62.7605 39.8784 62.9332C39.5564 63.1059 39.2998 63.3392 39.1084 63.6332C38.9218 63.9272 38.8284 64.2609 38.8284 64.6342C38.8284 65.0122 38.9194 65.3482 39.1014 65.6422C39.2881 65.9315 39.5424 66.1602 39.8644 66.3282C40.1864 66.4962 40.5574 66.5802 40.9774 66.5802ZM52.9858 67.9102C52.2625 67.9102 51.6161 67.7445 51.0468 67.4132C50.4821 67.0772 50.0388 66.6315 49.7168 66.0762C49.3948 65.5162 49.2338 64.9025 49.2338 64.2352C49.2338 63.7405 49.3248 63.2739 49.5068 62.8352C49.6935 62.3919 49.9548 61.9999 50.2908 61.6592C50.6315 61.3185 51.0305 61.0502 51.4878 60.8542C51.9451 60.6582 52.4468 60.5602 52.9928 60.5602C53.7161 60.5602 54.3601 60.7282 54.9248 61.0642C55.4941 61.3955 55.9398 61.8412 56.2618 62.4012C56.5838 62.9565 56.7448 63.5679 56.7448 64.2352C56.7448 64.7252 56.6515 65.1919 56.4648 65.6352C56.2828 66.0785 56.0238 66.4705 55.6878 66.8112C55.3518 67.1519 54.9551 67.4202 54.4978 67.6162C54.0405 67.8122 53.5365 67.9102 52.9858 67.9102ZM52.9858 66.5452C53.4151 66.5452 53.7955 66.4519 54.1268 66.2652C54.4628 66.0739 54.7265 65.8055 54.9178 65.4602C55.1091 65.1149 55.2048 64.7065 55.2048 64.2352C55.2048 63.7639 55.1091 63.3555 54.9178 63.0102C54.7265 62.6602 54.4628 62.3919 54.1268 62.2052C53.7955 62.0185 53.4151 61.9252 52.9858 61.9252C52.5565 61.9252 52.1738 62.0185 51.8378 62.2052C51.5065 62.3919 51.2451 62.6602 51.0538 63.0102C50.8671 63.3555 50.7738 63.7639 50.7738 64.2352C50.7738 64.7065 50.8695 65.1149 51.0608 65.4602C51.2521 65.8055 51.5135 66.0739 51.8448 66.2652C52.1808 66.4519 52.5611 66.5452 52.9858 66.5452ZM59.8387 67.7002V62.0442H57.5637V60.7702H63.6607V62.0442H61.3787V67.7002H59.8387ZM67.411 67.8682C67.0236 67.8682 66.6503 67.8379 66.291 67.7772C65.9316 67.7212 65.5933 67.6325 65.276 67.5112C64.9586 67.3852 64.6716 67.2195 64.415 67.0142L65.087 65.9712C65.381 66.2185 65.7286 66.3982 66.13 66.5102C66.5313 66.6175 66.9396 66.6712 67.355 66.6712C67.9196 66.6712 68.3653 66.5895 68.692 66.4262C69.0186 66.2582 69.182 65.9829 69.182 65.6002C69.182 65.2642 69.0093 65.0239 68.664 64.8792C68.3233 64.7345 67.8263 64.6622 67.173 64.6622H65.899V63.5002H67.131C67.7096 63.5002 68.1553 63.4349 68.468 63.3042C68.7806 63.1689 68.937 62.9402 68.937 62.6182C68.937 62.4269 68.8693 62.2682 68.734 62.1422C68.6033 62.0162 68.4166 61.9205 68.174 61.8552C67.936 61.7899 67.656 61.7572 67.334 61.7572C66.9373 61.7572 66.5546 61.8155 66.186 61.9322C65.8173 62.0489 65.4953 62.2285 65.22 62.4712L64.646 61.4422C65.0006 61.1482 65.43 60.9242 65.934 60.7702C66.438 60.6115 66.9466 60.5322 67.46 60.5322C68.0573 60.5322 68.5706 60.6069 69 60.7562C69.4293 60.9055 69.7606 61.1202 69.994 61.4002C70.2273 61.6802 70.344 62.0185 70.344 62.4152C70.344 62.7699 70.2296 63.0779 70.001 63.3392C69.777 63.6005 69.4503 63.7895 69.021 63.9062C69.5436 64.0229 69.9403 64.2282 70.211 64.5222C70.4863 64.8162 70.624 65.1849 70.624 65.6282C70.624 66.0949 70.491 66.4962 70.225 66.8322C69.9636 67.1635 69.5903 67.4202 69.105 67.6022C68.6243 67.7795 68.0596 67.8682 67.411 67.8682ZM72.3054 67.7002V60.7702H73.8454V66.5312H75.0984C75.6024 66.5312 75.9827 66.4332 76.2394 66.2372C76.496 66.0412 76.6244 65.7495 76.6244 65.3622C76.6244 64.9795 76.5054 64.6855 76.2674 64.4802C76.0294 64.2749 75.6794 64.1722 75.2174 64.1722H73.6354V63.0172H75.3364C76.2324 63.0172 76.937 63.2179 77.4504 63.6192C77.9637 64.0205 78.2204 64.6015 78.2204 65.3622C78.2204 65.8522 78.0967 66.2722 77.8494 66.6222C77.602 66.9675 77.2544 67.2335 76.8064 67.4202C76.363 67.6069 75.8427 67.7002 75.2454 67.7002H72.3054ZM79.3334 67.7002V60.7702H80.8734V67.7002H79.3334ZM83.0105 67.7002V60.7702H86.3145C87.0985 60.7702 87.7261 60.9195 88.1975 61.2182C88.6688 61.5169 88.9045 61.9649 88.9045 62.5622C88.9045 62.8422 88.8368 63.0919 88.7015 63.3112C88.5661 63.5259 88.3795 63.7055 88.1415 63.8502C87.9035 63.9949 87.6258 64.0999 87.3085 64.1652L87.2805 63.8222C87.8918 63.9062 88.3655 64.1092 88.7015 64.4312C89.0375 64.7532 89.2055 65.1615 89.2055 65.6562C89.2055 66.0762 89.0958 66.4402 88.8765 66.7482C88.6571 67.0515 88.3421 67.2872 87.9315 67.4552C87.5208 67.6185 87.0285 67.7002 86.4545 67.7002H83.0105ZM84.5015 66.5592H86.2445C86.7065 66.5592 87.0611 66.4822 87.3085 66.3282C87.5605 66.1742 87.6865 65.9432 87.6865 65.6352C87.6865 65.3319 87.5628 65.1055 87.3155 64.9562C87.0681 64.8022 86.7111 64.7252 86.2445 64.7252H84.2985V63.6262H86.0835C86.5175 63.6262 86.8535 63.5609 87.0915 63.4302C87.3295 63.2949 87.4485 63.0755 87.4485 62.7722C87.4485 62.4689 87.3295 62.2495 87.0915 62.1142C86.8535 61.9742 86.5175 61.9042 86.0835 61.9042H84.5015V66.5592ZM94.0971 67.9102C93.3738 67.9102 92.7275 67.7445 92.1581 67.4132C91.5935 67.0772 91.1501 66.6315 90.8281 66.0762C90.5061 65.5162 90.3451 64.9025 90.3451 64.2352C90.3451 63.7405 90.4361 63.2739 90.6181 62.8352C90.8048 62.3919 91.0661 61.9999 91.4021 61.6592C91.7428 61.3185 92.1418 61.0502 92.5991 60.8542C93.0565 60.6582 93.5581 60.5602 94.1041 60.5602C94.8275 60.5602 95.4715 60.7282 96.0361 61.0642C96.6055 61.3955 97.0511 61.8412 97.3731 62.4012C97.6951 62.9565 97.8561 63.5679 97.8561 64.2352C97.8561 64.7252 97.7628 65.1919 97.5761 65.6352C97.3941 66.0785 97.1351 66.4705 96.7991 66.8112C96.4631 67.1519 96.0665 67.4202 95.6091 67.6162C95.1518 67.8122 94.6478 67.9102 94.0971 67.9102ZM94.0971 66.5452C94.5265 66.5452 94.9068 66.4519 95.2381 66.2652C95.5741 66.0739 95.8378 65.8055 96.0291 65.4602C96.2205 65.1149 96.3161 64.7065 96.3161 64.2352C96.3161 63.7639 96.2205 63.3555 96.0291 63.0102C95.8378 62.6602 95.5741 62.3919 95.2381 62.2052C94.9068 62.0185 94.5265 61.9252 94.0971 61.9252C93.6678 61.9252 93.2851 62.0185 92.9491 62.2052C92.6178 62.3919 92.3565 62.6602 92.1651 63.0102C91.9785 63.3555 91.8851 63.7639 91.8851 64.2352C91.8851 64.7065 91.9808 65.1149 92.1721 65.4602C92.3635 65.8055 92.6248 66.0739 92.9561 66.2652C93.2921 66.4519 93.6725 66.5452 94.0971 66.5452ZM99.403 67.7002V60.7702H102.707C103.491 60.7702 104.119 60.9195 104.59 61.2182C105.061 61.5169 105.297 61.9649 105.297 62.5622C105.297 62.8422 105.229 63.0919 105.094 63.3112C104.959 63.5259 104.772 63.7055 104.534 63.8502C104.296 63.9949 104.018 64.0999 103.701 64.1652L103.673 63.8222C104.284 63.9062 104.758 64.1092 105.094 64.4312C105.43 64.7532 105.598 65.1615 105.598 65.6562C105.598 66.0762 105.488 66.4402 105.269 66.7482C105.05 67.0515 104.735 67.2872 104.324 67.4552C103.913 67.6185 103.421 67.7002 102.847 67.7002H99.403ZM100.894 66.5592H102.637C103.099 66.5592 103.454 66.4822 103.701 66.3282C103.953 66.1742 104.079 65.9432 104.079 65.6352C104.079 65.3319 103.955 65.1055 103.708 64.9562C103.461 64.8022 103.104 64.7252 102.637 64.7252H100.691V63.6262H102.476C102.91 63.6262 103.246 63.5609 103.484 63.4302C103.722 63.2949 103.841 63.0755 103.841 62.7722C103.841 62.4689 103.722 62.2495 103.484 62.1142C103.246 61.9742 102.91 61.9042 102.476 61.9042H100.894V66.5592Z"
        fill="#ACACAC" />
    <path d="M19.5 68.5752H106.263V68.9252H19.5V68.5752Z" fill="#ACACAC" />
    <path
        d="M239.215 38.8286C238.184 38.8286 237.192 38.6807 236.241 38.3848C235.297 38.0889 234.517 37.6931 233.902 37.1973L234.765 35.0142C235.317 35.494 235.977 35.8618 236.745 36.1177C237.512 36.3656 238.288 36.4896 239.072 36.4896C239.855 36.4896 240.535 36.3616 241.111 36.1057C241.686 35.8418 242.13 35.466 242.442 34.9782C242.754 34.4904 242.91 33.8986 242.91 33.2029C242.91 32.5632 242.746 32.0154 242.418 31.5596C242.09 31.0958 241.634 30.74 241.051 30.4921C240.475 30.2442 239.819 30.1202 239.084 30.1202C238.612 30.1202 238.124 30.1762 237.62 30.2881C237.116 30.4001 236.601 30.572 236.073 30.8039L234.969 29.6164L235.833 21.6997L245.093 21.6877V24.0387H237.74L237.236 28.4169C237.652 28.281 238.064 28.177 238.472 28.105C238.888 28.0331 239.299 27.9971 239.707 27.9971C240.811 27.9971 241.798 28.209 242.67 28.6328C243.542 29.0487 244.229 29.6524 244.733 30.4441C245.245 31.2357 245.501 32.1834 245.501 33.2869C245.501 34.4064 245.233 35.382 244.697 36.2137C244.169 37.0453 243.434 37.6891 242.49 38.1449C241.547 38.6007 240.455 38.8286 239.215 38.8286Z"
        fill="black" />
    <path fill-rule="evenodd" clip-rule="evenodd" d="M215.5 8.5H216.5V52.5H215.5V8.5Z"
        fill="#ECECEC" />
    <g clip-path="url(#clip0_2239_1244)">
        <path
            d="M268.413 27.434L264.009 26.8302C263.716 26.8302 263.569 26.6792 263.422 26.3774L261.661 22.4528C261.367 21.8491 260.486 21.8491 260.193 22.4528L258.578 26.3774C258.578 26.6792 258.284 26.8302 257.991 26.8302L253.587 27.434C253 27.5849 252.706 28.3396 253.294 28.7925L256.523 31.9623C256.67 32.1132 256.817 32.4151 256.67 32.717L255.789 37.0943C255.642 37.6981 256.376 38.3019 256.963 38L260.633 35.7358C260.78 35.5849 261.22 35.5849 261.367 35.7358L265.037 38C265.624 38.3019 266.358 37.8491 266.211 37.0943L265.33 32.717C265.33 32.4151 265.33 32.1132 265.477 31.9623L268.706 28.7925C269.294 28.3396 269 27.5849 268.413 27.434Z"
            fill="#FFCE00" />
    </g>
    <g clip-path="url(#clip1_2239_1244)">
        <path
            d="M59.7 38.7996H62.9V20.1996H58.2C53.4 20.1996 51 22.5996 51 26.1996C51 29.0996 52.4 30.7996 54.8 32.4996L50.6 38.7996H54.1L58.8 31.6996L57.2 30.5996C55.2 29.2996 54.2 28.1996 54.2 25.9996C54.2 23.9996 55.6 22.6996 58.2 22.6996H59.7V38.7996ZM122.3 39.0996C123.8 39.0996 124.8 38.7996 125.6 38.2996V35.6996C124.8 36.2996 123.8 36.5996 122.5 36.5996C120.2 36.5996 119.3 34.7996 119.3 31.9996C119.3 29.0996 120.4 27.5996 122.5 27.5996C123.7 27.5996 124.9 27.9996 125.6 28.3996V25.6996C124.9 25.2996 123.7 25.0996 122.2 25.0996C118.1 25.0996 116 27.9996 116 32.0996C115.9 36.5996 118 39.0996 122.3 39.0996ZM102.3 37.8996V35.2996C101.3 35.9996 99.7 36.5996 98.1 36.5996C95.8 36.5996 94.9 35.4996 94.7 33.1996H102.4V31.4996C102.4 26.7996 100.3 24.9996 97.1 24.9996C93.2 24.9996 91.4 27.9996 91.4 32.0996C91.4 36.7996 93.7 39.0996 97.8 39.0996C99.9 39.0996 101.4 38.5996 102.3 37.8996ZM112.5 38.7996H116.1L111 31.6996L115.5 25.3996H112.3L107.8 31.6996V25.3996H104.6V38.8996H107.8V32.3996L112.5 38.7996ZM90.7 36.2996H89.3V25.2996H80V26.4996C80 29.7996 79.8 34.0996 78.7 36.2996H77.7V41.8996H80.7V38.7996H87.9V41.8996H90.9V36.2996H90.7ZM73.1 25.2996V30.5996H68.8V25.2996H65.6V38.7996H68.8V33.1996H73.1V38.7996H76.3V25.2996H73.1ZM97.1 27.5996C98.7 27.5996 99.2 28.8996 99.2 30.5996V30.8996H94.7C94.8 28.6996 95.6 27.5996 97.1 27.5996ZM86.1 36.2996H81.6C82.5 34.2996 82.7 30.5996 82.7 28.2996V27.8996H86.1V36.2996ZM142.2 38.7996H146L139.4 28.9996L145.4 20.0996H142.1L136.3 28.6996V20.1996H133.1V38.7996H136.3V29.9996L142.2 38.7996ZM156.9 29.5996C156.9 26.2996 155.2 25.0996 151.9 25.0996C149.8 25.0996 148.1 25.7996 147.1 26.2996V28.9996C148 28.3996 149.8 27.6996 151.5 27.6996C153 27.6996 153.7 28.1996 153.7 29.6996V30.4996H153.2C148.3 30.4996 146.1 32.0996 146.1 34.7996C146.1 37.4996 147.8 39.0996 150.2 39.0996C152.1 39.0996 152.9 38.4996 153.5 37.7996H153.6C153.6 38.0996 153.7 38.5996 153.8 38.8996H156.9C156.8 37.7996 156.7 36.6996 156.7 35.5996V29.5996H156.9ZM153.7 35.5996C153.3 36.1996 152.5 36.6996 151.4 36.6996C150.1 36.6996 149.4 35.8996 149.4 34.7996C149.4 33.2996 150.5 32.6996 153.2 32.6996H153.7V35.5996ZM162.4 25.2996H159.4V42.6996H162.6V37.1996C163.4 38.3996 164.6 39.0996 166 39.0996C169.1 39.0996 171.3 36.5996 171.3 32.0996C171.3 27.5996 169.2 25.0996 166.2 25.0996C164.7 25.0996 163.5 25.7996 162.6 27.0996L162.4 25.2996ZM165.2 36.5996C163.5 36.5996 162.7 35.1996 162.7 32.0996C162.7 28.9996 163.6 27.5996 165.4 27.5996C167.1 27.5996 168 28.9996 168 32.0996C168 35.1996 167.1 36.5996 165.2 36.5996ZM182.5 27.7996V25.2996H171.8V27.7996H175.6V38.7996H178.8V27.7996H182.5ZM184.4 25.2996V38.7996H189.3C192.4 38.7996 194.7 37.1996 194.7 33.9996C194.7 30.9996 192.7 29.3996 189.4 29.3996H187.7V25.2996H184.4ZM195.8 25.2996V38.7996H199V25.2996H195.8ZM189.1 36.2996H187.6V31.9996H189.2C190.6 31.9996 191.4 32.5996 191.4 34.1996C191.3 35.6996 190.4 36.2996 189.1 36.2996Z"
            fill="black" />
        <path fill-rule="evenodd" clip-rule="evenodd"
            d="M21 26.7004C21 20.4004 26.1 15.4004 32.3 15.4004C38.5 15.4004 43.6 20.5004 43.6 26.7004C43.6 29.8004 42.3 32.6004 40.3 34.7004C39.8 35.2004 39 35.8004 38.3 36.5004C36.1 38.3004 33.4 40.5004 33.2 42.8004C33.2 43.3004 32.8 43.6004 32.4 43.6004C31.9 43.6004 31.6 43.2004 31.6 42.8004C31.4 40.5004 28.7 38.3004 26.5 36.5004C25.7 35.9004 25 35.3004 24.5 34.7004C22.2 32.5004 21 29.7004 21 26.7004ZM36.3 26.7004C36.3 28.9004 34.6 30.7004 32.4 30.7004C30.2 30.7004 28.4 29.0004 28.4 26.8004V26.7004C28.4 24.5004 30.2 22.8004 32.4 22.8004C34.5 22.8004 36.2 24.5004 36.3 26.7004Z"
            fill="#FF4433" />
    </g>
    <defs>
        <clipPath id="clip0_2239_1244">
            <rect width="16" height="16" fill="white" transform="translate(253 22)" />
        </clipPath>
        <clipPath id="clip1_2239_1244">
            <rect width="178" height="29" fill="white" transform="translate(21 15)" />
        </clipPath>
    </defs>
</svg>
    