<?xml version="1.0" encoding="utf-8"?>
<!-- Generator: Adobe Illustrator 28.0.0, SVG Export Plug-In . SVG Version: 6.00 Build 0)  -->
<svg version="1.1" id="Слой_1" xmlns="http://www.w3.org/2000/svg" xmlns:xlink="http://www.w3.org/1999/xlink" x="0px" y="0px"
	 viewBox="0 0 125 20.5" style="enable-background:new 0 0 125 20.5;" xml:space="preserve">
<style type="text/css">
	.st0{fill:#FFFFFF;}
	.st1{fill-rule:evenodd;clip-rule:evenodd;fill:#FFFFFF;}
</style>
<path class="st0" d="M27.4,16.6h2.3v-13h-3.3c-3.3,0-5.1,1.7-5.1,4.2c0,2,1,3.2,2.7,4.4l-3,4.4h2.5l3.3-4.9l-1.1-0.8
	c-1.4-0.9-2.1-1.7-2.1-3.2c0-1.4,1-2.3,2.8-2.3h1V16.6z M71.1,16.8c1,0,1.8-0.2,2.3-0.6v-1.8c-0.6,0.4-1.2,0.6-2.2,0.6
	c-1.6,0-2.2-1.2-2.2-3.2c0-2,0.8-3.1,2.3-3.1c0.9,0,1.7,0.3,2.2,0.6V7.5C72.9,7.2,72.1,7,71,7c-2.8,0-4.3,2-4.3,4.9
	C66.7,15.1,68.1,16.8,71.1,16.8z M57.1,16v-1.8c-0.7,0.5-1.9,0.9-2.9,0.9c-1.6,0-2.2-0.8-2.3-2.3h5.4v-1.2c0-3.3-1.4-4.5-3.7-4.5
	c-2.7,0-4,2.1-4,4.9c0,3.3,1.6,4.9,4.5,4.9C55.4,16.8,56.5,16.4,57.1,16z M64.3,16.6h2.5l-3.6-5l3.2-4.4h-2.2L61,11.6V7.2h-2.2v9.4
	H61v-4.6L64.3,16.6z M49,14.9h-1V7.2h-6.5V8c0,2.3-0.2,5.3-0.9,6.9h-0.7v3.9h2.1v-2.2h5v2.2H49V14.9z M36.7,7.2v3.7h-3V7.2h-2.2v9.4
	h2.2v-3.9h3v3.9h2.2V7.2H36.7z M53.5,8.8c1.1,0,1.4,0.9,1.4,2.1v0.2h-3.1C51.9,9.6,52.4,8.8,53.5,8.8z M45.8,14.9h-3.1
	c0.6-1.4,0.8-4,0.8-5.6V9h2.4V14.9z M85,16.6h2.6L83,9.8l4.2-6.2h-2.3l-4,6v-6h-2.3v13h2.3v-6.1L85,16.6z M95.3,10.2
	c0-2.3-1.2-3.2-3.5-3.2c-1.5,0-2.6,0.5-3.3,0.9v1.9c0.6-0.4,1.9-0.9,3.1-0.9c1.1,0,1.6,0.4,1.6,1.4v0.5h-0.4c-3.4,0-4.9,1.1-4.9,3
	c0,1.9,1.2,3,2.9,3c1.3,0,1.9-0.4,2.3-0.9H93c0,0.2,0.1,0.6,0.2,0.7h2.2c-0.1-0.8-0.1-1.5-0.1-2.3V10.2z M93,14.4
	c-0.3,0.4-0.8,0.7-1.6,0.7c-0.9,0-1.4-0.5-1.4-1.3c0-1.1,0.8-1.5,2.7-1.5H93V14.4z M99.1,7.2h-2.1v12.1h2.2v-3.8
	c0.6,0.8,1.4,1.3,2.3,1.3c2.2,0,3.7-1.7,3.7-4.9c0-3.1-1.5-4.9-3.6-4.9c-1.1,0-1.9,0.5-2.5,1.4L99.1,7.2z M101.1,15.1
	c-1.2,0-1.8-1-1.8-3.1c0-2.2,0.6-3.1,1.9-3.1c1.2,0,1.8,1,1.8,3.1C103,14.1,102.4,15.1,101.1,15.1z M113.2,9V7.2h-7.5V9h2.6v7.7h2.2
	V9H113.2z M114.5,7.2v9.4h3.4c2.2,0,3.7-1.1,3.7-3.3c0-2.1-1.4-3.2-3.7-3.2h-1.2V7.2H114.5z M122.4,7.2v9.4h2.2V7.2H122.4z
	 M117.7,14.9h-1v-3h1.1c1,0,1.5,0.4,1.5,1.5C119.3,14.4,118.7,14.9,117.7,14.9z"/>
<path class="st1" d="M0.3,8.1c0-4.4,3.5-7.9,7.9-7.9c4.4,0,7.9,3.5,7.9,7.9c0,2.2-0.9,4.2-2.3,5.6c-0.4,0.4-0.9,0.8-1.4,1.2
	c-1.5,1.3-3.4,2.8-3.6,4.4c0,0.3-0.3,0.6-0.6,0.6c-0.3,0-0.6-0.3-0.6-0.6c-0.1-1.6-2-3.2-3.6-4.4c-0.5-0.5-1.1-0.9-1.4-1.2
	C1.2,12.2,0.3,10.2,0.3,8.1z M11,8.1c0,1.5-1.2,2.8-2.7,2.8c-1.5,0-2.8-1.2-2.8-2.7c0,0,0-0.1,0-0.1c0-1.5,1.3-2.7,2.8-2.7
	C9.8,5.4,11,6.6,11,8.1z"/>
</svg>
