<?xml version="1.0" encoding="utf-8"?>
<!-- Generator: Adobe Illustrator 28.0.0, SVG Export Plug-In . SVG Version: 6.00 Build 0)  -->
<svg version="1.1" id="Слой_1" xmlns="http://www.w3.org/2000/svg" xmlns:xlink="http://www.w3.org/1999/xlink" x="0px" y="0px"
	 viewBox="0 0 178 29" style="enable-background:new 0 0 178 29;" xml:space="preserve">
<style type="text/css">
	.st0{fill-rule:evenodd;clip-rule:evenodd;fill:#FF4433;}
</style>
<path d="M38.7,23.8h3.2V5.2h-4.7c-4.8,0-7.2,2.4-7.2,6c0,2.9,1.4,4.6,3.8,6.3l-4.2,6.3h3.5l4.7-7.1l-1.6-1.1c-2-1.3-3-2.4-3-4.6
	c0-2,1.4-3.3,4-3.3h1.5V23.8z M101.3,24.1c1.5,0,2.5-0.3,3.3-0.8v-2.6c-0.8,0.6-1.8,0.9-3.1,0.9c-2.3,0-3.2-1.8-3.2-4.6
	c0-2.9,1.1-4.4,3.2-4.4c1.2,0,2.4,0.4,3.1,0.8v-2.7c-0.7-0.4-1.9-0.6-3.4-0.6c-4.1,0-6.2,2.9-6.2,7C94.9,21.6,97,24.1,101.3,24.1z
	 M81.3,22.9v-2.6c-1,0.7-2.6,1.3-4.2,1.3c-2.3,0-3.2-1.1-3.4-3.4h7.7v-1.7c0-4.7-2.1-6.5-5.3-6.5c-3.9,0-5.7,3-5.7,7.1
	c0,4.7,2.3,7,6.4,7C78.9,24.1,80.4,23.6,81.3,22.9z M91.5,23.8h3.6L90,16.7l4.5-6.3h-3.2l-4.5,6.3v-6.3h-3.2v13.5h3.2v-6.5
	L91.5,23.8z M69.7,21.3h-1.4v-11H59v1.2c0,3.3-0.2,7.6-1.3,9.8h-1v5.6h3v-3.1h7.2v3.1h3V21.3z M52.1,10.3v5.3h-4.3v-5.3h-3.2v13.5
	h3.2v-5.6h4.3v5.6h3.2V10.3H52.1z M76.1,12.6c1.6,0,2.1,1.3,2.1,3v0.3h-4.5C73.8,13.7,74.6,12.6,76.1,12.6z M65.1,21.3h-4.5
	c0.9-2,1.1-5.7,1.1-8v-0.4h3.4V21.3z M121.2,23.8h3.8l-6.6-9.8l6-8.9h-3.3l-5.8,8.6V5.2h-3.2v18.6h3.2v-8.8L121.2,23.8z M135.9,14.6
	c0-3.3-1.7-4.5-5-4.5c-2.1,0-3.8,0.7-4.8,1.2V14c0.9-0.6,2.7-1.3,4.4-1.3c1.5,0,2.2,0.5,2.2,2v0.8h-0.5c-4.9,0-7.1,1.6-7.1,4.3
	c0,2.7,1.7,4.3,4.1,4.3c1.9,0,2.7-0.6,3.3-1.3h0.1c0,0.3,0.1,0.8,0.2,1.1h3.1c-0.1-1.1-0.2-2.2-0.2-3.3V14.6z M132.7,20.6
	c-0.4,0.6-1.2,1.1-2.3,1.1c-1.3,0-2-0.8-2-1.9c0-1.5,1.1-2.1,3.8-2.1h0.5V20.6z M141.4,10.3h-3v17.4h3.2v-5.5c0.8,1.2,2,1.9,3.4,1.9
	c3.1,0,5.3-2.5,5.3-7c0-4.5-2.1-7-5.1-7c-1.5,0-2.7,0.7-3.6,2L141.4,10.3z M144.2,21.6c-1.7,0-2.5-1.4-2.5-4.5
	c0-3.1,0.9-4.5,2.7-4.5c1.7,0,2.6,1.4,2.6,4.5C147,20.2,146.1,21.6,144.2,21.6z M161.5,12.8v-2.5h-10.7v2.5h3.8v11h3.2v-11H161.5z
	 M163.4,10.3v13.5h4.9c3.1,0,5.4-1.6,5.4-4.8c0-3-2-4.6-5.3-4.6h-1.7v-4.1H163.4z M174.8,10.3v13.5h3.2V10.3H174.8z M168.1,21.3
	h-1.5V17h1.6c1.4,0,2.2,0.6,2.2,2.2C170.3,20.7,169.4,21.3,168.1,21.3z"/>
<path class="st0" d="M0,11.7C0,5.4,5.1,0.4,11.3,0.4c6.2,0,11.3,5.1,11.3,11.3c0,3.1-1.3,5.9-3.3,8c-0.5,0.5-1.3,1.1-2,1.8
	c-2.2,1.8-4.9,4-5.1,6.3c0,0.5-0.4,0.8-0.8,0.8c-0.5,0-0.8-0.4-0.8-0.8c-0.2-2.3-2.9-4.5-5.1-6.3c-0.8-0.6-1.5-1.2-2-1.8
	C1.2,17.5,0,14.7,0,11.7z M15.3,11.7c0,2.2-1.7,4-3.9,4c-2.2,0-4-1.7-4-3.9c0,0,0-0.1,0-0.1c0-2.2,1.8-3.9,4-3.9
	C13.5,7.8,15.2,9.5,15.3,11.7z"/>
</svg>
