<svg width="224" height="85" viewBox="0 0 224 85" fill="none" xmlns="http://www.w3.org/2000/svg">
    <g clip-path="url(#clip0_2239_1256)">
        <path fill-rule="evenodd" clip-rule="evenodd"
            d="M10 0H214.101C218.519 0 222.101 3.582 222.101 8V73.575C222.101 77.994 218.519 81.576 214.101 81.576H10C5.582 81.576 2 77.994 2 73.575V8C2 3.582 5.582 0 10 0Z"
            fill="white" stroke="#ECECEC" />
        <path
            d="M23.411 67.9102L22.872 66.7062C23.5767 66.6222 24.202 66.4659 24.748 66.2372C25.294 66.0085 25.763 65.7239 26.155 65.3832C26.5517 65.0379 26.8737 64.6575 27.121 64.2422C27.373 63.8222 27.555 63.3835 27.667 62.9262C27.4197 63.2669 27.1023 63.5375 26.715 63.7382C26.3323 63.9342 25.9123 64.0322 25.455 64.0322C24.839 64.0322 24.2837 63.8992 23.789 63.6332C23.299 63.3672 22.9093 62.9985 22.62 62.5272C22.3353 62.0512 22.193 61.5075 22.193 60.8962C22.193 60.2895 22.3447 59.7459 22.648 59.2652C22.956 58.7799 23.3783 58.3972 23.915 58.1172C24.4563 57.8325 25.0747 57.6902 25.77 57.6902C26.4887 57.6902 27.1257 57.8465 27.681 58.1592C28.241 58.4672 28.6797 58.9152 28.997 59.5032C29.319 60.0865 29.48 60.7935 29.48 61.6242C29.48 62.4642 29.326 63.2389 29.018 63.9482C28.7147 64.6529 28.2877 65.2782 27.737 65.8242C27.191 66.3702 26.5493 66.8205 25.812 67.1752C25.0747 67.5299 24.2743 67.7749 23.411 67.9102ZM25.77 62.7582C26.162 62.7582 26.512 62.6765 26.82 62.5132C27.128 62.3499 27.373 62.1259 27.555 61.8412C27.737 61.5565 27.828 61.2369 27.828 60.8822C27.828 60.5182 27.7393 60.1962 27.562 59.9162C27.3893 59.6362 27.1467 59.4169 26.834 59.2582C26.526 59.0995 26.1713 59.0202 25.77 59.0202C25.3733 59.0202 25.0187 59.0995 24.706 59.2582C24.3933 59.4169 24.1483 59.6362 23.971 59.9162C23.7937 60.1962 23.705 60.5182 23.705 60.8822C23.705 61.2369 23.796 61.5565 23.978 61.8412C24.1647 62.1259 24.412 62.3499 24.72 62.5132C25.0327 62.6765 25.3827 62.7582 25.77 62.7582ZM33.9937 67.9102C33.3917 67.9102 32.813 67.8239 32.2577 67.6512C31.707 67.4785 31.252 67.2475 30.8927 66.9582L31.3967 65.6842C31.7187 65.9642 32.1037 66.1789 32.5517 66.3282C32.9997 66.4729 33.4524 66.5452 33.9097 66.5452C34.367 66.5452 34.7637 66.4705 35.0997 66.3212C35.4357 66.1672 35.6947 65.9479 35.8767 65.6632C36.0587 65.3785 36.1497 65.0332 36.1497 64.6272C36.1497 64.2539 36.054 63.9342 35.8627 63.6682C35.6714 63.3975 35.4054 63.1899 35.0647 63.0452C34.7287 62.9005 34.346 62.8282 33.9167 62.8282C33.6414 62.8282 33.3567 62.8609 33.0627 62.9262C32.7687 62.9915 32.4677 63.0919 32.1597 63.2272L31.5157 62.5342L32.0197 57.9142L37.4237 57.9072V59.2792H33.1327L32.8387 61.8342C33.0814 61.7549 33.3217 61.6942 33.5597 61.6522C33.8024 61.6102 34.0427 61.5892 34.2807 61.5892C34.9247 61.5892 35.501 61.7129 36.0097 61.9602C36.5184 62.2029 36.9197 62.5552 37.2137 63.0172C37.5124 63.4792 37.6617 64.0322 37.6617 64.6762C37.6617 65.3295 37.5054 65.8989 37.1927 66.3842C36.8847 66.8695 36.4554 67.2452 35.9047 67.5112C35.354 67.7772 34.717 67.9102 33.9937 67.9102ZM46.1401 67.9102C45.4168 67.9102 44.7704 67.7445 44.2011 67.4132C43.6364 67.0772 43.1931 66.6315 42.8711 66.0762C42.5491 65.5162 42.3881 64.9025 42.3881 64.2352C42.3881 63.7405 42.4791 63.2739 42.6611 62.8352C42.8478 62.3919 43.1091 61.9999 43.4451 61.6592C43.7858 61.3185 44.1848 61.0502 44.6421 60.8542C45.0994 60.6582 45.6011 60.5602 46.1471 60.5602C46.8704 60.5602 47.5144 60.7282 48.0791 61.0642C48.6484 61.3955 49.0941 61.8412 49.4161 62.4012C49.7381 62.9565 49.8991 63.5679 49.8991 64.2352C49.8991 64.7252 49.8058 65.1919 49.6191 65.6352C49.4371 66.0785 49.1781 66.4705 48.8421 66.8112C48.5061 67.1519 48.1094 67.4202 47.6521 67.6162C47.1948 67.8122 46.6908 67.9102 46.1401 67.9102ZM46.1401 66.5452C46.5694 66.5452 46.9498 66.4519 47.2811 66.2652C47.6171 66.0739 47.8808 65.8055 48.0721 65.4602C48.2634 65.1149 48.3591 64.7065 48.3591 64.2352C48.3591 63.7639 48.2634 63.3555 48.0721 63.0102C47.8808 62.6602 47.6171 62.3919 47.2811 62.2052C46.9498 62.0185 46.5694 61.9252 46.1401 61.9252C45.7108 61.9252 45.3281 62.0185 44.9921 62.2052C44.6608 62.3919 44.3994 62.6602 44.2081 63.0102C44.0214 63.3555 43.9281 63.7639 43.9281 64.2352C43.9281 64.7065 44.0238 65.1149 44.2151 65.4602C44.4064 65.8055 44.6678 66.0739 44.9991 66.2652C45.3351 66.4519 45.7154 66.5452 46.1401 66.5452ZM52.993 67.7002V62.0442H50.718V60.7702H56.815V62.0442H54.533V67.7002H52.993ZM60.5653 67.8682C60.1779 67.8682 59.8046 67.8379 59.4453 67.7772C59.0859 67.7212 58.7476 67.6325 58.4303 67.5112C58.1129 67.3852 57.8259 67.2195 57.5693 67.0142L58.2413 65.9712C58.5353 66.2185 58.8829 66.3982 59.2843 66.5102C59.6856 66.6175 60.0939 66.6712 60.5093 66.6712C61.0739 66.6712 61.5196 66.5895 61.8463 66.4262C62.1729 66.2582 62.3363 65.9829 62.3363 65.6002C62.3363 65.2642 62.1636 65.0239 61.8183 64.8792C61.4776 64.7345 60.9806 64.6622 60.3273 64.6622H59.0533V63.5002H60.2853C60.8639 63.5002 61.3096 63.4349 61.6223 63.3042C61.9349 63.1689 62.0913 62.9402 62.0913 62.6182C62.0913 62.4269 62.0236 62.2682 61.8883 62.1422C61.7576 62.0162 61.5709 61.9205 61.3283 61.8552C61.0903 61.7899 60.8103 61.7572 60.4883 61.7572C60.0916 61.7572 59.7089 61.8155 59.3403 61.9322C58.9716 62.0489 58.6496 62.2285 58.3743 62.4712L57.8003 61.4422C58.1549 61.1482 58.5843 60.9242 59.0883 60.7702C59.5923 60.6115 60.1009 60.5322 60.6143 60.5322C61.2116 60.5322 61.7249 60.6069 62.1543 60.7562C62.5836 60.9055 62.9149 61.1202 63.1483 61.4002C63.3816 61.6802 63.4983 62.0185 63.4983 62.4152C63.4983 62.7699 63.3839 63.0779 63.1553 63.3392C62.9313 63.6005 62.6046 63.7895 62.1753 63.9062C62.6979 64.0229 63.0946 64.2282 63.3653 64.5222C63.6406 64.8162 63.7783 65.1849 63.7783 65.6282C63.7783 66.0949 63.6453 66.4962 63.3793 66.8322C63.1179 67.1635 62.7446 67.4202 62.2593 67.6022C61.7786 67.7795 61.2139 67.8682 60.5653 67.8682ZM65.4597 67.7002V60.7702H66.9997V66.5312H68.2527C68.7567 66.5312 69.137 66.4332 69.3937 66.2372C69.6503 66.0412 69.7787 65.7495 69.7787 65.3622C69.7787 64.9795 69.6597 64.6855 69.4217 64.4802C69.1837 64.2749 68.8337 64.1722 68.3717 64.1722H66.7897V63.0172H68.4907C69.3867 63.0172 70.0913 63.2179 70.6047 63.6192C71.118 64.0205 71.3747 64.6015 71.3747 65.3622C71.3747 65.8522 71.251 66.2722 71.0037 66.6222C70.7563 66.9675 70.4087 67.2335 69.9607 67.4202C69.5173 67.6069 68.997 67.7002 68.3997 67.7002H65.4597ZM72.4877 67.7002V60.7702H74.0277V67.7002H72.4877ZM76.1648 67.7002V60.7702H79.4688C80.2528 60.7702 80.8804 60.9195 81.3518 61.2182C81.8231 61.5169 82.0588 61.9649 82.0588 62.5622C82.0588 62.8422 81.9911 63.0919 81.8558 63.3112C81.7204 63.5259 81.5338 63.7055 81.2958 63.8502C81.0578 63.9949 80.7801 64.0999 80.4628 64.1652L80.4348 63.8222C81.0461 63.9062 81.5198 64.1092 81.8558 64.4312C82.1918 64.7532 82.3598 65.1615 82.3598 65.6562C82.3598 66.0762 82.2501 66.4402 82.0308 66.7482C81.8114 67.0515 81.4964 67.2872 81.0858 67.4552C80.6751 67.6185 80.1828 67.7002 79.6088 67.7002H76.1648ZM77.6558 66.5592H79.3988C79.8608 66.5592 80.2154 66.4822 80.4628 66.3282C80.7148 66.1742 80.8408 65.9432 80.8408 65.6352C80.8408 65.3319 80.7171 65.1055 80.4698 64.9562C80.2224 64.8022 79.8654 64.7252 79.3988 64.7252H77.4528V63.6262H79.2378C79.6718 63.6262 80.0078 63.5609 80.2458 63.4302C80.4838 63.2949 80.6028 63.0755 80.6028 62.7722C80.6028 62.4689 80.4838 62.2495 80.2458 62.1142C80.0078 61.9742 79.6718 61.9042 79.2378 61.9042H77.6558V66.5592ZM87.2514 67.9102C86.5281 67.9102 85.8818 67.7445 85.3124 67.4132C84.7478 67.0772 84.3044 66.6315 83.9824 66.0762C83.6604 65.5162 83.4994 64.9025 83.4994 64.2352C83.4994 63.7405 83.5904 63.2739 83.7724 62.8352C83.9591 62.3919 84.2204 61.9999 84.5564 61.6592C84.8971 61.3185 85.2961 61.0502 85.7534 60.8542C86.2108 60.6582 86.7124 60.5602 87.2584 60.5602C87.9818 60.5602 88.6258 60.7282 89.1904 61.0642C89.7598 61.3955 90.2054 61.8412 90.5274 62.4012C90.8494 62.9565 91.0104 63.5679 91.0104 64.2352C91.0104 64.7252 90.9171 65.1919 90.7304 65.6352C90.5484 66.0785 90.2894 66.4705 89.9534 66.8112C89.6174 67.1519 89.2208 67.4202 88.7634 67.6162C88.3061 67.8122 87.8021 67.9102 87.2514 67.9102ZM87.2514 66.5452C87.6808 66.5452 88.0611 66.4519 88.3924 66.2652C88.7284 66.0739 88.9921 65.8055 89.1834 65.4602C89.3748 65.1149 89.4704 64.7065 89.4704 64.2352C89.4704 63.7639 89.3748 63.3555 89.1834 63.0102C88.9921 62.6602 88.7284 62.3919 88.3924 62.2052C88.0611 62.0185 87.6808 61.9252 87.2514 61.9252C86.8221 61.9252 86.4394 62.0185 86.1034 62.2052C85.7721 62.3919 85.5108 62.6602 85.3194 63.0102C85.1328 63.3555 85.0394 63.7639 85.0394 64.2352C85.0394 64.7065 85.1351 65.1149 85.3264 65.4602C85.5178 65.8055 85.7791 66.0739 86.1104 66.2652C86.4464 66.4519 86.8268 66.5452 87.2514 66.5452ZM92.5573 67.7002V60.7702H95.8613C96.6453 60.7702 97.273 60.9195 97.7443 61.2182C98.2157 61.5169 98.4513 61.9649 98.4513 62.5622C98.4513 62.8422 98.3837 63.0919 98.2483 63.3112C98.113 63.5259 97.9263 63.7055 97.6883 63.8502C97.4503 63.9949 97.1727 64.0999 96.8553 64.1652L96.8273 63.8222C97.4387 63.9062 97.9123 64.1092 98.2483 64.4312C98.5843 64.7532 98.7523 65.1615 98.7523 65.6562C98.7523 66.0762 98.6427 66.4402 98.4233 66.7482C98.204 67.0515 97.889 67.2872 97.4783 67.4552C97.0677 67.6185 96.5753 67.7002 96.0013 67.7002H92.5573ZM94.0483 66.5592H95.7913C96.2533 66.5592 96.608 66.4822 96.8553 66.3282C97.1073 66.1742 97.2333 65.9432 97.2333 65.6352C97.2333 65.3319 97.1097 65.1055 96.8623 64.9562C96.615 64.8022 96.258 64.7252 95.7913 64.7252H93.8453V63.6262H95.6303C96.0643 63.6262 96.4003 63.5609 96.6383 63.4302C96.8763 63.2949 96.9953 63.0755 96.9953 62.7722C96.9953 62.4689 96.8763 62.2495 96.6383 62.1142C96.4003 61.9742 96.0643 61.9042 95.6303 61.9042H94.0483V66.5592Z"
            fill="#ACACAC" />
        <path d="M21.5 68.5752H99.4173V68.9252H21.5V68.5752Z" fill="#ACACAC" />
        <path
            d="M182.036 41.8753C180.871 41.8753 179.75 41.7082 178.675 41.3739C177.609 41.0396 176.728 40.5924 176.032 40.0322L177.008 37.5658C177.632 38.1079 178.377 38.5234 179.244 38.8126C180.112 39.0926 180.988 39.2327 181.873 39.2327C182.759 39.2327 183.527 39.0881 184.177 38.799C184.828 38.5009 185.329 38.0762 185.681 37.5251C186.034 36.974 186.21 36.3054 186.21 35.5194C186.21 34.7966 186.025 34.1778 185.654 33.6628C185.284 33.1388 184.769 32.7367 184.109 32.4567C183.459 32.1766 182.718 32.0366 181.887 32.0366C181.354 32.0366 180.803 32.0998 180.234 32.2263C179.664 32.3528 179.082 32.547 178.485 32.809L177.239 31.4674L178.214 22.5231L188.676 22.5095V25.1657H180.369L179.8 30.1122C180.27 29.9586 180.735 29.8411 181.196 29.7598C181.666 29.6785 182.131 29.6379 182.592 29.6379C183.838 29.6379 184.954 29.8773 185.939 30.3561C186.924 30.8259 187.701 31.508 188.27 32.4025C188.848 33.2969 189.137 34.3675 189.137 35.6143C189.137 36.8791 188.835 37.9814 188.229 38.921C187.633 39.8606 186.802 40.5879 185.736 41.1028C184.67 41.6178 183.436 41.8753 182.036 41.8753Z"
            fill="black" />
        <path fill-rule="evenodd" clip-rule="evenodd" d="M157.5 8.5H158.5V52.5H157.5V8.5Z"
            fill="#ECECEC" />
        <g clip-path="url(#clip1_2239_1256)">
            <path
                d="M211.413 28.434L207.009 27.8302C206.716 27.8302 206.569 27.6792 206.422 27.3774L204.661 23.4528C204.367 22.8491 203.486 22.8491 203.193 23.4528L201.578 27.3774C201.578 27.6792 201.284 27.8302 200.991 27.8302L196.587 28.434C196 28.5849 195.706 29.3396 196.294 29.7925L199.523 32.9623C199.67 33.1132 199.817 33.4151 199.67 33.717L198.789 38.0943C198.642 38.6981 199.376 39.3019 199.963 39L203.633 36.7358C203.78 36.5849 204.22 36.5849 204.367 36.7358L208.037 39C208.624 39.3019 209.358 38.8491 209.211 38.0943L208.33 33.717C208.33 33.4151 208.33 33.1132 208.477 32.9623L211.706 29.7925C212.294 29.3396 212 28.5849 211.413 28.434Z"
                fill="#FFCE00" />
        </g>
        <g clip-path="url(#clip2_2239_1256)">
            <mask id="mask0_2239_1256" style="mask-type:luminance" maskUnits="userSpaceOnUse" x="21"
                y="12" width="34" height="34">
                <path
                    d="M46 45.3002C46.7 45.3002 47.5 45.2002 48.2 45.1002C48.9 45.0002 49.6 44.8002 50.3 44.4002C51 44.1002 51.6 43.6002 52.1 43.1002C52.6 42.6002 53.1 42.0002 53.4 41.4002C53.7 40.7002 54 40.1002 54.1 39.4002C54.2 38.7002 54.3 38.0002 54.3 37.2002C54.3 36.9002 54.3 36.5002 54.3 36.2002V21.4002C54.3 21.1002 54.3 20.7002 54.3 20.4002C54.3 19.7002 54.2 19.0002 54.1 18.2002C54 17.5002 53.8 16.8002 53.4 16.2002C53 15.6002 52.6 15.0002 52 14.4002C51.5 13.9002 50.9 13.5002 50.2 13.1002C49.5 12.8002 48.9 12.6002 48.1 12.4002C47.4 12.3002 46.6 12.2002 45.9 12.2002C45.8 12.2002 45.6 12.2002 45.4 12.2002H30.8H29.4C28.7 12.3002 28 12.4002 27.2 12.5002C26.5 12.6002 25.8 12.8002 25.2 13.2002C24.5 13.5002 23.9 13.9002 23.4 14.5002C22.9 15.0002 22.4 15.6002 22.1 16.2002C21.8 16.9002 21.5 17.5002 21.4 18.2002C21.3 19.0002 21.3 19.7002 21.2 20.4002C21.2 20.7002 21.2 21.1002 21.2 21.4002V36.2002C21.2 36.5002 21.2 36.9002 21.2 37.2002C21.2 37.9002 21.3 38.6002 21.4 39.4002C21.5 40.1002 21.7 40.8002 22.1 41.4002C22.4 42.0002 22.9 42.6002 23.4 43.1002C23.9 43.6002 24.5 44.0002 25.2 44.4002C25.9 44.7002 26.5 44.9002 27.3 45.1002C28 45.2002 28.8 45.3002 29.5 45.3002C29.6 45.3002 29.8 45.3002 30 45.3002H43.9H46Z"
                    fill="white" />
            </mask>
            <g mask="url(#mask0_2239_1256)">
                <path d="M21.2 12.2998H54.2V45.2998H21.2V12.2998Z" fill="#19AA1E" />
                <path fill-rule="evenodd" clip-rule="evenodd"
                    d="M21.2 12.2998H54.2V23.0998L21.2 17.9998V12.2998Z" fill="#FFB919" />
                <path fill-rule="evenodd" clip-rule="evenodd"
                    d="M21.2 41.7L54.2 36.5V45.3H21.2V41.7Z" fill="#82D714" />
                <path fill-rule="evenodd" clip-rule="evenodd"
                    d="M21.2 17.2998L32.7 19.0998C34.1 18.1998 35.8 17.6998 37.7 17.6998C40.2 17.6998 42.5 18.6998 44.2 20.2998C44.4 20.4998 44.6 20.6998 44.8 20.9998L54.2 22.4998V23.7998L45.8 22.4998C46.4 23.6998 46.8 24.9998 46.8 26.3998C46.8 28.1998 46.4 29.8998 45.6 31.6998V31.7998L45.3 32.4998H44.5C42.8 32.4998 41.7 32.9998 40.9 33.8998C40.3 34.5998 40 35.5998 39.9 36.5998V36.7998V36.8998V36.9998C39.9 37.4998 39.8 37.8998 39.8 38.1998L54.4 35.8998V37.1998L21.4 42.3998V40.9998L36 38.6998V38.3998V38.2998V38.1998C36 37.7998 36 37.3998 35.9 36.7998V36.6998V36.4998C35.8 35.4998 35.5 34.4998 34.9 33.7998C34.2 32.8998 33.1 32.3998 31.4 32.3998H31.3H30.3L30 31.6998C29.2 29.8998 28.8 28.0998 28.8 26.2998C28.8 24.0998 29.7 21.8998 31.3 20.2998L31.4 20.1998L21.2 18.5998V17.2998Z"
                    fill="white" />
                <path fill-rule="evenodd" clip-rule="evenodd"
                    d="M37.7 19C42.3 19 45.4 22.5 45.4 26.4C45.4 27.9 45.1 29.5 44.3 31.2C39.8 31.2 38.7 34.4 38.4 36.5V36.6C38.3 37.3 38.3 37.9 38.3 38.4L37.1 38.6C37.1 38.1 37.1 37.5 37 36.7C36.8 34.7 35.7 31.4 31.1 31.4C30.3 29.5 30 27.9 30 26.4C30 22.5 33.1 19 37.7 19Z"
                    fill="#0073FA" />
            </g>
            <path fill-rule="evenodd" clip-rule="evenodd"
                d="M69.6 17.7998C64.3 17.7998 60.3 20.9998 60.3 26.4998H65.2C65.1 24.2998 66.6 22.1998 69.5 22.1998C71.7 22.1998 73.2 23.6998 73.2 25.4998C73.2 27.3998 71.6 28.4998 69.1 29.6998C65.8 31.2998 63.8 31.9998 60.3 33.1998V39.4998H78V35.1998H67C68.7 34.4998 70.4 33.6998 71.9 32.9998C75.9 31.0998 78.2 28.9998 78.2 25.2998C78.2 20.6998 74.8 17.7998 69.6 17.7998ZM85.9 22.4998H96.1V18.0998H81.1V39.3998H85.9V22.4998ZM103.3 18.0998H98.5V39.3998H103.2L112.1 25.7998V39.3998H116.9V18.0998H112.1L103.3 31.6998C103.3 31.7998 103.3 18.0998 103.3 18.0998ZM140.8 31.4998H135.9C135.2 33.8998 132.9 35.4998 130.2 35.4998C126.3 35.4998 123.7 32.1998 123.7 28.7998C123.7 25.3998 126.2 22.0998 130.3 22.0998C133 22.0998 135.1 23.6998 135.9 26.0998H140.8C140.1 21.2998 136.2 17.7998 130.2 17.7998C123.5 17.7998 119 22.3998 119 28.7998C119 35.1998 123.5 39.7998 130.2 39.7998C136.2 39.7998 140.1 36.2998 140.8 31.4998Z"
                fill="#262626" />
        </g>
    </g>
    <defs>
        <clipPath id="clip0_2239_1256">
            <rect width="223.5" height="84.5" fill="white" />
        </clipPath>
        <clipPath id="clip1_2239_1256">
            <rect width="16" height="16" fill="white" transform="translate(196 23)" />
        </clipPath>
        <clipPath id="clip2_2239_1256">
            <rect width="120" height="33.6" fill="white" transform="translate(21 12)" />
        </clipPath>
    </defs>
</svg>
    