<?xml version="1.0" encoding="utf-8"?>
<!-- Generator: Adobe Illustrator 28.0.0, SVG Export Plug-In . SVG Version: 6.00 Build 0)  -->
<svg version="1.1" id="Слой_1" xmlns="http://www.w3.org/2000/svg" xmlns:xlink="http://www.w3.org/1999/xlink" x="0px" y="0px"
	 viewBox="0 0 120 33.6" style="enable-background:new 0 0 120 33.6;" xml:space="preserve">
<style type="text/css">
	.st0{clip-path:url(#SVGID_00000011001919181236544160000012569281745995603601_);}
	.st1{fill:#19AA1E;}
	.st2{fill-rule:evenodd;clip-rule:evenodd;fill:#FFB919;}
	.st3{fill-rule:evenodd;clip-rule:evenodd;fill:#82D714;}
	.st4{fill-rule:evenodd;clip-rule:evenodd;fill:#FFFFFF;}
	.st5{fill-rule:evenodd;clip-rule:evenodd;fill:#0073FA;}
	.st6{fill-rule:evenodd;clip-rule:evenodd;fill:#262626;}
</style>
<g>
	<g>
		<g>
			<g>
				<defs>
					<path id="SVGID_1_" d="M25,33.3c0.7,0,1.5-0.1,2.2-0.2c0.7-0.1,1.4-0.3,2.1-0.7c0.7-0.3,1.3-0.8,1.8-1.3c0.5-0.5,1-1.1,1.3-1.7
						c0.3-0.7,0.6-1.3,0.7-2c0.1-0.7,0.2-1.4,0.2-2.2c0-0.3,0-0.7,0-1V9.4c0-0.3,0-0.7,0-1c0-0.7-0.1-1.4-0.2-2.2
						c-0.1-0.7-0.3-1.4-0.7-2C32,3.6,31.6,3,31,2.4c-0.5-0.5-1.1-0.9-1.8-1.3c-0.7-0.3-1.3-0.5-2.1-0.7c-0.7-0.1-1.5-0.2-2.2-0.2
						c-0.1,0-0.3,0-0.5,0H9.8l-1.4,0C7.7,0.3,7,0.4,6.2,0.5C5.5,0.6,4.8,0.8,4.2,1.2C3.5,1.5,2.9,1.9,2.4,2.5C1.9,3,1.4,3.6,1.1,4.2
						c-0.3,0.7-0.6,1.3-0.7,2C0.3,7,0.3,7.7,0.2,8.4c0,0.3,0,0.7,0,1v14.8c0,0.3,0,0.7,0,1c0,0.7,0.1,1.4,0.2,2.2
						c0.1,0.7,0.3,1.4,0.7,2c0.3,0.6,0.8,1.2,1.3,1.7c0.5,0.5,1.1,0.9,1.8,1.3c0.7,0.3,1.3,0.5,2.1,0.7c0.7,0.1,1.5,0.2,2.2,0.2
						c0.1,0,0.3,0,0.5,0h13.9L25,33.3C25,33.3,25,33.3,25,33.3z"/>
				</defs>
				<clipPath id="SVGID_00000085220945223085662120000017532511729582936744_">
					<use xlink:href="#SVGID_1_"  style="overflow:visible;"/>
				</clipPath>
				<g style="clip-path:url(#SVGID_00000085220945223085662120000017532511729582936744_);">
					<path class="st1" d="M0.2,0.3h33v33h-33V0.3z"/>
					<path class="st2" d="M0.2,0.3h33v10.8L0.2,6V0.3z"/>
					<path class="st3" d="M0.2,29.7l33-5.2v8.8h-33V29.7z"/>
					<path class="st4" d="M0.2,5.3l11.5,1.8c1.4-0.9,3.1-1.4,5-1.4c2.5,0,4.8,1,6.5,2.6c0.2,0.2,0.4,0.4,0.6,0.7l9.4,1.5v1.3
						l-8.4-1.3c0.6,1.2,1,2.5,1,3.9c0,1.8-0.4,3.5-1.2,5.3l0,0.1l-0.3,0.7h-0.8c-1.7,0-2.8,0.5-3.6,1.4c-0.6,0.7-0.9,1.7-1,2.7l0,0
						l0,0.2l0,0.1l0,0.1c0,0.5-0.1,0.9-0.1,1.2l14.6-2.3v1.3l-33,5.2V29l14.6-2.3l0-0.3l0-0.1l0,0l0-0.1c0-0.4,0-0.8-0.1-1.4l0-0.1
						l0-0.2c-0.1-1-0.4-2-1-2.7c-0.7-0.9-1.8-1.4-3.5-1.4l-0.1,0H9.3l-0.3-0.7c-0.8-1.8-1.2-3.6-1.2-5.4c0-2.2,0.9-4.4,2.5-6
						c0,0,0.1-0.1,0.1-0.1L0.2,6.6V5.3z"/>
					<path class="st5" d="M16.7,7c4.6,0,7.7,3.5,7.7,7.4c0,1.5-0.3,3.1-1.1,4.8c-4.5,0-5.6,3.2-5.9,5.3l0,0.1
						c-0.1,0.7-0.1,1.3-0.1,1.8l-1.2,0.2l0,0c0-0.5,0-1.1-0.1-1.9l0,0c-0.2-2-1.3-5.3-5.9-5.3C9.3,17.5,9,15.9,9,14.4
						C9,10.5,12.1,7,16.7,7z"/>
				</g>
			</g>
		</g>
	</g>
	<path class="st6" d="M48.6,5.8c-5.3,0-9.3,3.2-9.3,8.7h4.9c-0.1-2.2,1.4-4.3,4.3-4.3c2.2,0,3.7,1.5,3.7,3.3c0,1.9-1.6,3-4.1,4.2
		c-3.3,1.6-5.3,2.3-8.8,3.5v6.3h17.7v-4.3h-11c1.7-0.7,3.4-1.5,4.9-2.2c4-1.9,6.3-4,6.3-7.7C57.2,8.7,53.8,5.8,48.6,5.8z M64.9,10.5
		h10.2V6.1h-15v21.3h4.8V10.5z M82.3,6.1h-4.8v21.3h4.7l8.9-13.6v13.6h4.8V6.1h-4.8l-8.8,13.6C82.3,19.8,82.3,6.1,82.3,6.1z
		 M119.8,19.5h-4.9c-0.7,2.4-3,4-5.7,4c-3.9,0-6.5-3.3-6.5-6.7c0-3.4,2.5-6.7,6.6-6.7c2.7,0,4.8,1.6,5.6,4h4.9
		c-0.7-4.8-4.6-8.3-10.6-8.3c-6.7,0-11.2,4.6-11.2,11s4.5,11,11.2,11C115.2,27.8,119.1,24.3,119.8,19.5z"/>
</g>
</svg>
