<?xml version="1.0" encoding="utf-8"?>
<!-- Generator: Adobe Illustrator 28.0.0, SVG Export Plug-In . SVG Version: 6.00 Build 0)  -->
<svg version="1.1" id="Слой_1" xmlns="http://www.w3.org/2000/svg" xmlns:xlink="http://www.w3.org/1999/xlink" x="0px" y="0px"
	 viewBox="0 0 60 62" style="enable-background:new 0 0 60 62;" xml:space="preserve">
<style type="text/css">
	.st0{fill:#9049FF;}
</style>
<g>
	<path class="st0" d="M20,18c0,2.7-4,2.7-4,0S20,15.3,20,18"/>
	<path class="st0" d="M60,26V12c0-2.2-1.8-4-4-4h-7.3l0-0.1C49.3,6.1,49,4,47.9,2.5C46.7,0.9,44.9,0,43,0H10C4.5,0,0,4.5,0,10v16
		c0,5.5,4.5,10,10,10h10v9.8c0,2.9-2.3,5.2-5.2,5.2H4v-5c0-1.1-0.9-2-2-2s-2,0.9-2,2v14c0,1.1,0.9,2,2,2s2-0.9,2-2v-5h10.8
		c5.1,0,9.2-4.1,9.2-9.2V36h11c2.6,0,4.9-1.6,5.7-4.1l0.7-2.1c0.4,0.1,0.8,0.2,1.3,0.2H56C58.2,30,60,28.2,60,26L60,26z M36.9,30.6
		c-0.3,0.8-1,1.4-1.9,1.4H10c-3.3,0-6-2.7-6-6V10c0-3.3,2.7-6,6-6h33c0.6,0,1.3,0.3,1.6,0.8C45,5.3,45.1,6,44.9,6.6L36.9,30.6
		L36.9,30.6z M47.3,12H56v14H42.7L47.3,12L47.3,12z"/>
</g>
</svg>
