<?xml version="1.0" encoding="utf-8"?>
<!-- Generator: Adobe Illustrator 28.0.0, SVG Export Plug-In . SVG Version: 6.00 Build 0)  -->
<svg version="1.1" id="Слой_1" xmlns="http://www.w3.org/2000/svg" xmlns:xlink="http://www.w3.org/1999/xlink" x="0px" y="0px"
	 viewBox="0 0 94.9 79.3" style="enable-background:new 0 0 94.9 79.3;" xml:space="preserve">
<style type="text/css">
	.st0{fill:#9049FF;}
</style>
<path class="st0" d="M27.5,43.5c0.6-0.9,1.9-1.1,2.8-0.4c0.9,0.6,1.1,1.9,0.4,2.8c-0.8,1.1-1.6,2.2-2,3.1c-0.3,0.7-0.5,1.4-0.3,1.9
	c0.2,0.7,1,1.5,1.7,2.4c1.2,1.4,2.4,2.8,2.7,4.5c0.3,1.9-0.5,3.5-1.3,5c-0.4,0.8-0.8,1.7-0.9,2.2c0,0.6,0.4,1.4,0.9,2.2l0.1,0.1
	c0.6,1.1,1.2,2.1,1.3,3.4l0,0.1c0.1,1.5-0.4,2.9-1.3,4.3c-0.7,1.2-1.7,2.3-2.7,3.5c-0.7,0.8-2,0.9-2.8,0.2c-0.8-0.7-0.9-2-0.2-2.8
	c0.9-1,1.7-2.1,2.3-3c0.4-0.7,0.7-1.4,0.7-1.9l0,0c0-0.5-0.4-1.1-0.8-1.8L28,69.2c-0.8-1.3-1.5-2.6-1.4-4.4c0.1-1.4,0.7-2.6,1.3-3.8
	c0.5-1,1-2,0.9-2.6c-0.1-0.7-0.9-1.6-1.8-2.6c-1-1.1-2-2.3-2.5-3.7c-0.6-1.7-0.3-3.3,0.5-4.9C25.7,46,26.6,44.8,27.5,43.5L27.5,43.5
	z M28.7,11.1c-1.1,0-2-0.9-2-2c0-1.1,0.9-2,2-2h2.7c1.1,0,2,0.9,2,2c0,1.1-0.9,2-2,2H28.7z M19.2,11.1c-1.1,0-2-0.9-2-2
	c0-1.1,0.9-2,2-2h2.7c1.1,0,2,0.9,2,2c0,1.1-0.9,2-2,2H19.2z M9.6,11.1c-1.1,0-2-0.9-2-2c0-1.1,0.9-2,2-2h2.7c1.1,0,2,0.9,2,2
	c0,1.1-0.9,2-2,2H9.6z M19.8,24.9h55.3c1.1,0,2,0.9,2,2c0,0.2,0,0.4-0.1,0.5l-0.7,3.5H88c0.8,0,1.5-0.3,2.1-0.9
	c0.5-0.5,0.9-1.3,0.9-2.1v-21c0-0.8-0.3-1.5-0.9-2.1C89.5,4.3,88.8,4,88,4H6.9C6.1,4,5.4,4.3,4.9,4.9C4.3,5.4,4,6.1,4,6.9v21
	c0,0.8,0.3,1.5,0.9,2.1c0.5,0.5,1.3,0.9,2.1,0.9h11.7l-0.8-3.6c-0.2-1.1,0.5-2.1,1.5-2.4C19.5,24.9,19.7,24.9,19.8,24.9L19.8,24.9z
	 M75.3,34.9c-0.5,1.3-1.3,2.4-2.4,3.3c-1.4,1.1-3.1,1.8-5,1.8h-41c-1.9,0-3.6-0.6-5-1.8c-1.1-0.9-1.9-2-2.4-3.3H6.9
	c-1.9,0-3.6-0.8-4.9-2c-1.3-1.3-2-3-2-4.9v-21C0,5,0.8,3.3,2,2s3-2,4.9-2H88c1.9,0,3.6,0.8,4.9,2c1.3,1.2,2,3,2,4.9v21
	c0,1.9-0.8,3.6-2,4.9c-1.3,1.3-3,2-4.9,2L75.3,34.9z M72.6,28.9H22.3l0.7,3.4c0,0.1,0,0.2,0.1,0.3l0.1,0.3c0.2,0.9,0.7,1.7,1.4,2.2
	c0.7,0.5,1.5,0.8,2.5,0.8h41c0.9,0,1.8-0.3,2.5-0.9c0.7-0.5,1.2-1.3,1.4-2.2l0.1-0.3c0-0.1,0-0.1,0-0.2L72.6,28.9z M65.4,43.3
	c0.8-0.8,2-0.8,2.8,0c0.7,0.7,0.8,1.9,0.1,2.7c-1.4,1.9-2.7,3.8-2.3,5c0.2,0.7,1,1.5,1.7,2.4c1.2,1.4,2.4,2.8,2.7,4.5
	c0.3,1.9-0.5,3.5-1.3,5c-0.4,0.8-0.8,1.7-0.9,2.2c0,0.6,0.4,1.4,0.9,2.2c0.6,1.1,1.2,2.2,1.4,3.5c0.3,2.8-1.8,5.3-3.9,7.7
	c-0.4,0.5-0.9,0.8-1.6,0.8c-1.1,0-2-0.9-2-2c0-0.5,0.2-0.9,0.5-1.3c1.6-1.9,3.1-3.7,3-4.9c0-0.5-0.5-1.2-0.9-1.9
	c-0.8-1.3-1.5-2.6-1.4-4.4c0.1-1.4,0.7-2.6,1.3-3.8c0.5-1,1-2,0.9-2.6c-0.1-0.7-0.9-1.6-1.8-2.6c-1-1.1-2-2.3-2.5-3.7
	c-1.1-3.2,0.9-5.9,2.8-8.6C65.2,43.5,65.3,43.4,65.4,43.3L65.4,43.3z M52.7,43.5c0.6-0.9,1.9-1.1,2.8-0.4c0.9,0.6,1.1,1.9,0.4,2.8
	c-0.8,1.1-1.6,2.2-2,3.1c-0.3,0.7-0.5,1.4-0.3,1.9c0.2,0.7,1,1.5,1.7,2.4c1.2,1.4,2.4,2.8,2.7,4.5c0.3,1.9-0.5,3.5-1.3,5
	c-0.4,0.8-0.8,1.7-0.9,2.2c0,0.6,0.4,1.4,0.9,2.2l0.1,0.1c0.6,1.1,1.2,2.1,1.3,3.4l0,0.1c0.1,1.5-0.4,2.9-1.3,4.3
	C56,76.3,55,77.5,54,78.6c-0.7,0.8-2,0.9-2.8,0.2c-0.8-0.7-0.9-2-0.2-2.8c0.9-1,1.7-2.1,2.3-3c0.4-0.7,0.7-1.4,0.7-1.9l0,0
	c0-0.5-0.4-1.1-0.8-1.8l-0.1-0.1c-0.8-1.3-1.5-2.6-1.4-4.4c0.1-1.4,0.7-2.6,1.3-3.8c0.5-1,1-2,0.9-2.6c-0.1-0.7-0.9-1.6-1.8-2.6
	c-1-1.1-2-2.3-2.5-3.7c-0.6-1.7-0.3-3.3,0.5-4.9C50.9,46,51.8,44.8,52.7,43.5L52.7,43.5z M40.3,43.3c0.8-0.8,2-0.8,2.8,0
	c0.7,0.7,0.8,1.9,0.1,2.7c-1.4,1.9-2.7,3.8-2.3,5c0.2,0.7,1,1.5,1.7,2.4c1.2,1.4,2.4,2.8,2.7,4.5c0.3,1.9-0.5,3.5-1.3,5
	c-0.4,0.8-0.8,1.7-0.9,2.2c0,0.6,0.4,1.4,0.9,2.2c0.6,1.1,1.2,2.2,1.4,3.5c0.3,2.8-1.8,5.3-3.9,7.7c-0.4,0.5-0.9,0.8-1.6,0.8
	c-1.1,0-2-0.9-2-2c0-0.5,0.2-0.9,0.5-1.3c1.6-1.9,3.1-3.7,3-4.9c0-0.5-0.5-1.2-0.9-1.9c-0.8-1.3-1.5-2.6-1.4-4.4
	c0.1-1.4,0.7-2.6,1.3-3.8c0.5-1,1-2,0.9-2.6c-0.1-0.7-0.9-1.6-1.8-2.6c-1-1.1-2-2.3-2.5-3.7C36.1,49,38,46.3,40,43.6
	C40.1,43.5,40.2,43.4,40.3,43.3L40.3,43.3z"/>
</svg>
