<?xml version="1.0" encoding="utf-8"?>
<!-- Generator: Adobe Illustrator 28.0.0, SVG Export Plug-In . SVG Version: 6.00 Build 0)  -->
<svg version="1.1" id="Слой_1" xmlns="http://www.w3.org/2000/svg" xmlns:xlink="http://www.w3.org/1999/xlink" x="0px" y="0px"
	 viewBox="0 0 72.7 51.2" style="enable-background:new 0 0 72.7 51.2;" xml:space="preserve">
<style type="text/css">
	.st0{fill:#9049FF;}
</style>
<g transform="translate(0,0.5291667)">
	<path class="st0" d="M2.2,0.1c-0.1,0-0.2,0-0.3,0C1.2,0.2,0.6,0.6,0.4,1.3C0,2.2,0.5,3.3,1.5,3.6c0,0,0,0,0,0l12,4.4L7.4,23.6
		l-4.7-1.7c-0.9-0.3-2,0.1-2.3,1.1c0,0,0,0,0,0c-0.3,0.9,0.1,2,1.1,2.3c0,0,0,0,0,0l6.3,2.3c0.5,0.2,1.1,0.1,1.6-0.2l0.9,0.9
		c-1.2,1.9-1,4.4,0.7,6c0.7,0.6,1.5,1.1,2.3,1.3c-0.1,1.3,0.4,2.6,1.4,3.6c0.8,0.8,1.9,1.3,3,1.4c0.1,1.1,0.6,2.1,1.4,2.9
		s1.9,1.3,3,1.4c0.1,1.1,0.6,2.1,1.4,2.9c1.9,1.9,5.1,1.9,7,0l0.3-0.3l2.6,1.8c0,0,0.1,0.1,0.1,0.1c2.5,1.4,5.8,0.6,7.3-1.9
		c0,0,0,0,0,0c0.3-0.5,0.5-1.1,0.6-1.6l0.2,0.1c2.5,1.4,5.8,0.6,7.3-1.9c0.3-0.5,0.6-1.1,0.7-1.7c2.4,0.8,5.1-0.1,6.4-2.3
		c0.4-0.6,0.6-1.2,0.7-1.8c2.2,0.5,4.7-0.4,5.9-2.4c1.3-2,0.9-4.7-0.7-6.3l0.4-2.4l0.6-0.3c0.5,0.7,1.4,1,2.2,0.7l6.2-2.3
		c0.9-0.3,1.4-1.4,1.1-2.3c0,0,0,0,0,0c-0.3-0.9-1.4-1.4-2.3-1.1c0,0,0,0,0,0l-4.5,1.7L59.3,8.1l11.9-4.4c0.9-0.3,1.4-1.4,1.1-2.3
		c0,0,0,0,0,0c-0.2-0.6-0.8-1.1-1.5-1.2c-0.3,0-0.5,0-0.8,0.1l-13.6,5c-0.9,0.3-1.4,1.3-1.1,2.2l-3.1,1l-0.7-0.6
		c-0.2-0.2-0.5-0.3-0.8-0.4L36.3,4.8c-0.1,0-0.3,0-0.4,0c-0.3,0-0.6,0.1-0.8,0.2L28.2,9L17.6,7.4c0.2-0.9-0.3-1.8-1.1-2.1L2.7,0.2
		C2.5,0.2,2.4,0.1,2.2,0.1L2.2,0.1z M36.2,8.5L49.5,11l1.1,0.9c0.5,0.4,1.1,0.5,1.7,0.3l4.3-1.3l4.9,12.6L60,24.2
		c-0.5,0.2-0.9,0.7-1,1.3l-0.3,1.7l-20.9-13c-0.1,0-0.1-0.1-0.2-0.1c-0.1,0-0.1-0.1-0.2-0.1c-0.1,0-0.1-0.1-0.2-0.1
		C37,14.1,37,14,36.9,14c0,0,0,0,0,0l0,0c-0.1,0-0.1,0-0.2,0c-0.1,0-0.1,0-0.2,0c-0.1,0-0.1,0-0.2,0.1c-0.1,0-0.1,0.1-0.2,0.1
		l-5.9,2.1c-0.6,0.2-1.1,0.7-1.2,1.4c0,0-0.2,0.8-0.5,1.7c-0.3,0.9-0.9,1.9-1.1,2.1c0,0-1.3,0.5-2.5,0.4c-0.5,0-1-0.1-1.4-0.3
		l2.9-7.5l2.7-1.5c0.1-0.1,0.3-0.1,0.4-0.2L36.2,8.5z M16.2,10.9l7.3,1c0,0.1-0.1,0.1-0.1,0.2l-3.6,9.3c-0.2,0.5-0.2,1,0.1,1.5
		c0.5,1,1.4,1.6,2.2,1.9c0.8,0.4,1.7,0.5,2.6,0.6c1.8,0.1,3.6,0.1,5.1-1.3c1.2-1.1,1.7-2.5,2.1-3.7c0.1-0.4,0.2-0.8,0.3-1.1l4.2-1.5
		l22.4,13.9c0,0,0.1,0,0.1,0c0.9,0.5,1.1,1.4,0.6,2.2c-0.5,0.8-1.6,1.1-2.5,0.6l-2.9-1.6L50,30.3c-0.2-0.1-0.5-0.2-0.8-0.3
		c-0.7-0.1-1.4,0.3-1.7,0.9c-0.5,0.9-0.2,2,0.6,2.5l4.2,2.5c0,0,0,0,0,0c0.8,0.5,1.1,1.4,0.6,2.2c-0.5,0.8-1.6,1.1-2.5,0.6
		c0,0,0,0,0,0l-3.4-1.9c0,0,0,0,0,0l-2.7-1.5c-0.2-0.1-0.5-0.2-0.8-0.2c-0.7,0-1.3,0.3-1.7,0.9c-0.5,0.9-0.2,2,0.7,2.5l2.7,1.5
		c0.9,0.5,1.1,1.4,0.6,2.2c-0.5,0.8-1.6,1.1-2.5,0.6l-4.5-2.5l0,0c-0.9-0.5-2-0.2-2.4,0.7c-0.5,0.9-0.2,1.9,0.7,2.4l0,0
		c0.9,0.5,1.1,1.4,0.6,2.2c-0.5,0.8-1.6,1.1-2.4,0.6l-1.9-1.3c1.8-1.9,1.8-4.9-0.1-6.7c-0.8-0.8-1.9-1.3-3-1.4
		c-0.1-1.1-0.6-2.1-1.4-2.9c-0.8-0.8-1.9-1.3-3-1.4c-0.1-1.1-0.6-2.1-1.4-2.9c-1-1-2.4-1.5-3.7-1.4c-0.2-0.9-0.6-1.7-1.3-2.3
		c-1-0.9-2.2-1.4-3.5-1.4l0,0c-1.2,0-2.4,0.4-3.3,1.2l-1.7-1.7L16.2,10.9z M16,28.1c0.3,0,0.7,0.1,0.9,0.4c0.5,0.5,0.5,1.2,0,1.7
		l-1.6,1.6c-0.5,0.5-1.3,0.5-1.9,0c-0.5-0.5-0.5-1.2,0-1.7l1.6-1.6C15.3,28.2,15.7,28.1,16,28.1z M21,31.8c0.3,0,0.6,0.1,0.9,0.4
		c0.5,0.5,0.5,1.3,0,1.8l-2.9,2.8c-0.5,0.5-1.3,0.5-1.8,0c-0.5-0.5-0.5-1.3,0-1.8l0.6-0.6c0,0,0,0,0,0l1.6-1.6c0,0,0,0,0,0l0.6-0.6
		C20.3,31.9,20.7,31.8,21,31.8L21,31.8z M25.4,36.1c0.3,0,0.6,0.1,0.9,0.4c0.5,0.5,0.5,1.3,0,1.8c0,0,0,0,0,0L23.4,41c0,0,0,0,0,0
		c-0.5,0.5-1.3,0.5-1.8,0c-0.5-0.5-0.5-1.3,0-1.8l2.9-2.8C24.8,36.2,25.1,36.1,25.4,36.1z M29.8,40.4c0.3,0,0.6,0.1,0.9,0.4
		c0.5,0.5,0.5,1.3,0,1.8l-2.9,2.8c-0.5,0.5-1.3,0.5-1.8,0c-0.5-0.5-0.5-1.3,0-1.8c0,0,0,0,0,0l2.9-2.8c0,0,0,0,0,0
		C29.2,40.5,29.5,40.4,29.8,40.4L29.8,40.4z"/>
</g>
</svg>
