<?xml version="1.0" encoding="utf-8"?>
<!-- Generator: Adobe Illustrator 28.0.0, SVG Export Plug-In . SVG Version: 6.00 Build 0)  -->
<svg version="1.1" id="Слой_1" xmlns="http://www.w3.org/2000/svg" xmlns:xlink="http://www.w3.org/1999/xlink" x="0px" y="0px"
	 viewBox="0 0 40 40" style="enable-background:new 0 0 40 40;" xml:space="preserve">
<style type="text/css">
	.st0{fill-rule:evenodd;clip-rule:evenodd;fill:#FF0096;}
</style>
<path class="st0" d="M20,0C9,0,0,9,0,20c0,11,9,20,20,20c11,0,20-9,20-20C40,9,31,0,20,0z M30.4,10.9L26,27.3
	c-0.2,0.6-0.8,0.8-1.3,0.5l-4.5-2.6c0,0-0.1,0-0.1,0l-3.4,4.5c-0.2,0.2-0.5,0.3-0.7,0.2c-0.2-0.1-0.5-0.3-0.5-0.6v-4.1
	c0-0.5,0.2-0.9,0.5-1.2l7.7-7.6l-7.9,5c-0.4,0.2-0.9,0.2-1.4,0l-4.4-2.5c-0.5-0.3-0.4-1.1,0.1-1.3L29.4,10c0.1,0,0.1,0,0.2,0
	C30.1,10,30.5,10.4,30.4,10.9z"/>
</svg>
