<?xml version="1.0" encoding="utf-8"?>
<!-- Generator: Adobe Illustrator 28.0.0, SVG Export Plug-In . SVG Version: 6.00 Build 0)  -->
<svg version="1.1" id="Слой_1" xmlns="http://www.w3.org/2000/svg" xmlns:xlink="http://www.w3.org/1999/xlink" x="0px" y="0px"
	 viewBox="0 0 10.9 10.6" style="enable-background:new 0 0 10.9 10.6;" xml:space="preserve">
<style type="text/css">
	.st0{fill:#FFCE00;}
</style>
<path class="st0" d="M10.5,3.6l-3-0.4c-0.2,0-0.3-0.1-0.4-0.3L5.9,0.3c-0.2-0.4-0.8-0.4-1,0L3.8,2.9C3.8,3.1,3.6,3.2,3.4,3.2l-3,0.4
	C0,3.7-0.2,4.2,0.2,4.5l2.2,2.1c0.1,0.1,0.2,0.3,0.1,0.5L1.9,10c-0.1,0.4,0.4,0.8,0.8,0.6l2.5-1.5C5.3,9,5.6,9,5.7,9.1l2.5,1.5
	C8.6,10.8,9.1,10.5,9,10L8.4,7.1c0-0.2,0-0.4,0.1-0.5l2.2-2.1C11.1,4.2,10.9,3.7,10.5,3.6L10.5,3.6z"/>
</svg>
