<?xml version="1.0" encoding="utf-8"?>
<!-- Generator: Adobe Illustrator 28.0.0, SVG Export Plug-In . SVG Version: 6.00 Build 0)  -->
<svg version="1.1" id="Слой_1" xmlns="http://www.w3.org/2000/svg" xmlns:xlink="http://www.w3.org/1999/xlink" x="0px" y="0px"
	 viewBox="0 0 204 64" style="enable-background:new 0 0 204 64;" xml:space="preserve">
<style type="text/css">
	.st0{clip-path:url(#SVGID_00000023251689981728297080000010645673875389554578_);fill:#4B9ED4;}
	.st1{fill-rule:evenodd;clip-rule:evenodd;fill:#FFFFFF;}
	.st2{clip-path:url(#SVGID_00000084494148448758799010000008434639333281929871_);fill:#2477AE;}
	.st3{fill:#FFFFFF;}
	.st4{clip-path:url(#SVGID_00000083051333543423518010000014154892021558504636_);fill:#9BA957;}
</style>
<g>
	<g>
		<defs>
			<path id="SVGID_1_" d="M26.2,1.3l-22.5,13C2.1,15.2,1,17.1,1,19V45c0,2,1.1,3.8,2.8,4.8l22.5,13c1.7,1,3.8,1,5.5,0l22.5-13
				c1.7-1,2.8-2.8,2.8-4.8V19c0-2-1.1-3.8-2.8-4.8l-22.5-13c-0.9-0.5-1.8-0.7-2.8-0.7C28,0.5,27.1,0.8,26.2,1.3"/>
		</defs>
		<use xlink:href="#SVGID_1_"  style="overflow:visible;fill:#4B9ED4;"/>
		<clipPath id="SVGID_00000159432682892806643850000013822867558103623863_">
			<use xlink:href="#SVGID_1_"  style="overflow:visible;"/>
		</clipPath>
		<path style="clip-path:url(#SVGID_00000159432682892806643850000013822867558103623863_);fill:#4B9ED4;" d="M57,45V19
			c0-2-1.1-3.8-2.8-4.8l-22.5-13c-1.7-1-3.8-1-5.5,0l-22.5,13C2.1,15.2,1,17.1,1,19V45c0,2,1.1,3.8,2.8,4.8l22.5,13
			c1.7,1,3.8,1,5.5,0l22.5-13C55.9,48.8,57,46.9,57,45"/>
	</g>
	<path class="st1" d="M26,29.2v15.2c0,0.3-0.2,0.5-0.5,0.5c-0.3,0-0.5-0.2-0.5-0.5V29.2c0-0.3,0.2-0.5,0.5-0.5
		C25.8,28.7,26,28.9,26,29.2z M33,29.2v15.2c0,0.3-0.2,0.5-0.5,0.5s-0.5-0.2-0.5-0.5V29.2c0-0.3,0.2-0.5,0.5-0.5S33,28.9,33,29.2z
		 M29.5,29.2v15.2c0,0.3-0.2,0.5-0.5,0.5s-0.5-0.2-0.5-0.5V29.2c0-0.3,0.2-0.5,0.5-0.5S29.5,28.9,29.5,29.2z M37.6,29.8v12.6
		l-1.1-1.1V30.9L37.6,29.8z M36.6,47c0.6,0,1-0.5,1-1v-2l-2.1-2.1c-0.1-0.1-0.2-0.2-0.2-0.4V30.7c0-0.1,0.1-0.3,0.2-0.4l2.1-2.1
		v-2.5c0-0.6-0.5-1-1-1h-4.9v0.7c0,0.6-0.5,1-1,1h-3.4c-0.6,0-1-0.5-1-1v-0.7h-4.9c-0.6,0-1,0.5-1,1v2.5l2.1,2.1
		c0.1,0.1,0.2,0.2,0.2,0.4v10.8c0,0.1-0.1,0.3-0.2,0.4L20.3,44v2c0,0.6,0.5,1,1,1h0.3c0.7-0.7,1.8-0.7,2.5,0h9.7
		c0.7-0.7,1.8-0.7,2.5,0L36.6,47z M35.1,48.8c-0.3,0-0.6-0.3-0.6-0.6c0-0.3,0.3-0.6,0.6-0.6c0.3,0,0.6,0.3,0.6,0.6
		C35.7,48.5,35.4,48.8,35.1,48.8z M22.9,48.8c-0.3,0-0.6-0.3-0.6-0.6c0-0.3,0.3-0.6,0.6-0.6s0.6,0.3,0.6,0.6
		C23.5,48.5,23.3,48.8,22.9,48.8z M20.3,29.8l1.1,1.1v10.3l-1.1,1.1V29.8z M27.4,24.8h3.3v0.7h-3.3V24.8z M25.8,17
		c0-0.2,0.2-0.4,0.4-0.4h0V17c0,0.5,0.4,0.9,0.9,0.9h3.6c0.5,0,0.9-0.4,0.9-0.9v-0.4h0c0.2,0,0.4,0.2,0.4,0.4v6.7h-6.4L25.8,17z
		 M27.4,15.2v1.7h3.3v-1.7H27.4z M36.6,23.7h-3.4l0-6.7c0-0.8-0.7-1.5-1.5-1.5h0V15c0-0.5-0.4-0.9-0.9-0.9h-3.6
		c-0.5,0-0.9,0.4-0.9,0.9v0.4h0c-0.8,0-1.5,0.7-1.5,1.5v6.7h-3.4c-1.2,0-2.1,0.9-2.1,2.1V46c0,1.1,0.9,2,1.9,2.1
		c-0.1,1,0.7,1.8,1.7,1.8c1,0,1.8-0.8,1.7-1.8h8.7c-0.1,1,0.7,1.8,1.7,1.8c1,0,1.8-0.8,1.7-1.8c1.1-0.1,1.9-1,1.9-2.1l0-20.1
		C38.7,24.7,37.8,23.7,36.6,23.7L36.6,23.7z"/>
	<g>
		<g>
			<defs>
				<path id="SVGID_00000167396370775852755160000013178353608687472009_" d="M99.2,1.3l-22.5,13c-1.7,1-2.8,2.8-2.8,4.8v26
					c0,2,1.1,3.8,2.8,4.8l22.5,13c1.7,1,3.8,1,5.5,0l22.5-13c1.7-1,2.8-2.8,2.8-4.8V19c0-2-1.1-3.8-2.8-4.8l-22.5-13
					c-0.9-0.5-1.8-0.7-2.8-0.7C101,0.5,100.1,0.8,99.2,1.3"/>
			</defs>
			<use xlink:href="#SVGID_00000167396370775852755160000013178353608687472009_"  style="overflow:visible;fill:#2477AE;"/>
			<clipPath id="SVGID_00000010290662426991565460000005909264987991636128_">
				<use xlink:href="#SVGID_00000167396370775852755160000013178353608687472009_"  style="overflow:visible;"/>
			</clipPath>
			<path style="clip-path:url(#SVGID_00000010290662426991565460000005909264987991636128_);fill:#2477AE;" d="M130,45V19
				c0-2-1.1-3.8-2.8-4.8l-22.5-13c-1.7-1-3.8-1-5.5,0l-22.5,13c-1.7,1-2.8,2.8-2.8,4.8V45c0,2,1.1,3.8,2.8,4.8l22.5,13
				c1.7,1,3.8,1,5.5,0l22.5-13C128.9,48.8,130,46.9,130,45"/>
		</g>
		<g>
			<path class="st3" d="M92.5,32.6h19c2.4,0,4.4,2,4.4,4.4c0,2.4-2,4.4-4.4,4.4H99.9c-0.3,0-0.6,0.3-0.6,0.6c0,0.3,0.3,0.6,0.6,0.6
				h11.6c3.1,0,5.6-2.5,5.6-5.6c0-3.1-2.5-5.6-5.6-5.6h-19c-2.4,0-4.4-2-4.4-4.4c0-2.4,2-4.4,4.4-4.4H104c0.3,0,0.6-0.3,0.6-0.6
				s-0.3-0.6-0.6-0.6H92.5c-3.1,0-5.6,2.5-5.6,5.6C86.9,30.1,89.4,32.6,92.5,32.6z"/>
			<path class="st3" d="M111.3,17.1c-1.5,0-2.8,1.3-2.8,2.8s1.3,2.8,2.8,2.8c1.5,0,2.8-1.3,2.8-2.8S112.9,17.1,111.3,17.1z
				 M111.3,21.5c-0.9,0-1.6-0.7-1.6-1.6c0-0.9,0.7-1.6,1.6-1.6c0.9,0,1.6,0.7,1.6,1.6C113,20.8,112.2,21.5,111.3,21.5z"/>
			<path class="st3" d="M111.3,14.1c-3.2,0-5.8,2.6-5.8,5.8c0,3,4.8,8.9,5.3,9.6c0.1,0.1,0.3,0.2,0.5,0.2c0.2,0,0.3-0.1,0.5-0.2
				c0.5-0.7,5.3-6.6,5.3-9.6C117.1,16.7,114.5,14.1,111.3,14.1L111.3,14.1z M111.3,28.2c-1.6-2.1-4.6-6.3-4.6-8.3
				c0-2.5,2.1-4.6,4.6-4.6c2.5,0,4.6,2.1,4.6,4.6C116,21.9,113,26.1,111.3,28.2z"/>
			<path class="st3" d="M95.5,40.1c0-1.5-1.3-2.8-2.8-2.8s-2.8,1.3-2.8,2.8c0,1.5,1.3,2.8,2.8,2.8S95.5,41.6,95.5,40.1z M91.1,40.1
				c0-0.9,0.7-1.6,1.6-1.6s1.6,0.7,1.6,1.6c0,0.9-0.7,1.6-1.6,1.6S91.1,40.9,91.1,40.1z"/>
			<path class="st3" d="M92.7,49.9c0.2,0,0.3-0.1,0.5-0.2c0.5-0.7,5.3-6.6,5.3-9.6c0-3.2-2.6-5.8-5.8-5.8c-3.2,0-5.8,2.6-5.8,5.8
				c0,3,4.8,8.9,5.3,9.6C92.3,49.8,92.5,49.9,92.7,49.9L92.7,49.9z M92.7,35.4c2.5,0,4.6,2.1,4.6,4.6c0,2-3,6.2-4.6,8.3
				C91,46.3,88,42,88,40.1C88,37.5,90.1,35.4,92.7,35.4z"/>
		</g>
	</g>
	<g>
		<g>
			<defs>
				<path id="SVGID_00000049182381157243305960000008459885258114978192_" d="M172.3,1.3l-22.5,13c-1.7,1-2.8,2.8-2.8,4.8V45
					c0,2,1,3.8,2.8,4.8l22.5,13c1.7,1,3.8,1,5.5,0l22.5-13c1.7-1,2.8-2.8,2.8-4.8V19c0-2-1.1-3.8-2.8-4.8l-22.5-13
					c-0.9-0.5-1.8-0.7-2.8-0.7C174.1,0.5,173.1,0.8,172.3,1.3"/>
			</defs>
			<use xlink:href="#SVGID_00000049182381157243305960000008459885258114978192_"  style="overflow:visible;fill:#9BA957;"/>
			<clipPath id="SVGID_00000062899929936830584450000009560751400107142591_">
				<use xlink:href="#SVGID_00000049182381157243305960000008459885258114978192_"  style="overflow:visible;"/>
			</clipPath>
			<path style="clip-path:url(#SVGID_00000062899929936830584450000009560751400107142591_);fill:#9BA957;" d="M203,45V19
				c0-2-1.1-3.8-2.8-4.8l-22.5-13c-1.7-1-3.8-1-5.5,0l-22.5,13c-1.7,1-2.8,2.8-2.8,4.8V45c0,2,1.1,3.8,2.8,4.8l22.5,13
				c1.7,1,3.8,1,5.5,0l22.5-13C201.9,48.8,203,46.9,203,45"/>
		</g>
		<path class="st3" d="M158.7,36.7l6.9,3c0,0.2-0.1,0.4-0.1,0.5c0,0.4,0.1,0.7,0.3,0.9c0.2,0.2,0.5,0.3,0.9,0.3c0.2,0,0.3,0,0.5-0.1
			l3,6.9c0.1,0.2,0.2,0.3,0.4,0.3c0,0,0.1,0,0.1,0c0.2,0,0.3-0.1,0.4-0.2l1.9-1.9c0.1-0.1,0.2-0.4,0.1-0.6l-1.9-6.7
			c2.2-1.5,4.9-3.6,7.7-6.1l6.5,14.9c0.1,0.2,0.2,0.3,0.4,0.3c0.2,0,0.4,0,0.5-0.2l2.5-2.5c0.1-0.1,0.2-0.4,0.2-0.5l-1.5-6.1
			l1.7-1.7c0.3-0.3,0.5-0.8,0.5-1.3c0-0.5-0.2-1-0.5-1.3c-0.3-0.3-0.8-0.5-1.3-0.5c-0.5,0-1,0.2-1.3,0.5l-0.3,0.3l-2.2-6.8
			c2.9-3,5-5.6,6.3-7.7c0.6-1.1,1-2,1.1-2.7c0.2-0.9,0-1.6-0.4-2c-0.5-0.5-1.1-0.6-2-0.4c-0.7,0.1-1.7,0.5-2.7,1.1
			c-2.1,1.2-4.7,3.3-7.7,6.2c-1-0.3-4.3-1.3-6.9-2.1l0.2-0.2c0.3-0.3,0.5-0.8,0.5-1.3s-0.2-1-0.5-1.3c-0.3-0.3-0.8-0.5-1.3-0.5
			s-1,0.2-1.3,0.5l-1.7,1.7l-6.1-1.5c-0.2-0.1-0.4,0-0.5,0.2l-2.5,2.5c-0.1,0.1-0.2,0.3-0.2,0.5c0,0.2,0.2,0.3,0.3,0.4
			c3.6,1.6,12.3,5.4,14.8,6.5c-2.4,2.7-4.5,5.3-6,7.5c-1.1-0.3-4.4-1.2-6.7-1.8c-0.2-0.1-0.4,0-0.6,0.1l-1.9,1.9
			c-0.1,0.1-0.2,0.3-0.2,0.5C158.4,36.5,158.5,36.6,158.7,36.7L158.7,36.7z M161,34.9c0.6,0.2,1.9,0.5,3.2,0.9
			c1,0.3,1.9,0.5,2.5,0.7c0.4,0.1,0.6,0.2,0.8,0.2c0.1,0,0.2,0,0.2,0.1c0,0,0.1,0,0.1,0c0.3,0.1,0.5-0.1,0.6-0.2
			c1.6-2.4,3.9-5.3,6.6-8.3c0.1-0.1,0.2-0.3,0.1-0.5c-0.1-0.3-0.3-0.4-0.4-0.4c0,0-0.1,0-0.1-0.1c-0.1-0.1-0.3-0.1-0.5-0.2
			c-0.4-0.2-1-0.4-1.8-0.8c-1.3-0.6-3.1-1.4-5.4-2.4c-2.8-1.2-5.7-2.5-7-3.1l1.7-1.7l6.1,1.5c0.2,0.1,0.4,0,0.5-0.2l1.9-1.9
			c0.1-0.1,0.3-0.2,0.5-0.2c0.2,0,0.4,0.1,0.5,0.2c0.1,0.1,0.2,0.3,0.2,0.5c0,0.2-0.1,0.4-0.2,0.5l-0.9,0.9
			c-0.1,0.1-0.2,0.3-0.2,0.5c0,0.2,0.2,0.4,0.4,0.4c0,0,2.1,0.6,4.1,1.2c1.2,0.4,2.1,0.6,2.8,0.9c0.4,0.1,0.7,0.2,0.9,0.3
			c0.1,0,0.2,0.1,0.3,0.1c0.1,0,0.4,0.1,0.6-0.1c2.9-2.9,5.6-5,7.7-6.2c1.9-1.1,3-1.2,3.3-0.9c0.3,0.3,0.3,1.4-0.9,3.3
			c-1.2,2.1-3.4,4.8-6.3,7.8c-0.1,0.2-0.2,0.4-0.1,0.6l2.6,8c0.1,0.2,0.2,0.3,0.4,0.4c0.2,0,0.4,0,0.5-0.2l0.9-0.9
			c0.1-0.1,0.3-0.2,0.5-0.2c0.2,0,0.4,0.1,0.5,0.2c0.1,0.1,0.2,0.3,0.2,0.5c0,0.2-0.1,0.4-0.2,0.5l-1.9,1.9
			c-0.1,0.1-0.2,0.4-0.2,0.5l1.5,6.1l-1.7,1.7L179.8,32c-0.1-0.2-0.2-0.3-0.4-0.3c-0.2,0-0.4,0-0.5,0.1c-3,2.7-6.1,5.2-8.5,6.7
			c-0.2,0.1-0.3,0.4-0.2,0.6l1.9,6.8l-1.1,1.1l-2.9-6.6c-0.1-0.2-0.3-0.3-0.5-0.3c-0.1,0-0.1,0-0.2,0c-0.5,0.2-0.7,0.1-0.8,0.1
			c0-0.1,0-0.3,0.1-0.8c0.1-0.3,0-0.6-0.3-0.7l-6.6-2.8L161,34.9z"/>
	</g>
</g>
</svg>
