<svg width="27" height="27" viewBox="0 0 27 27" fill="none" xmlns="http://www.w3.org/2000/svg">
<g clip-path="url(#clip0_6554_7428)">
<path fill-rule="evenodd" clip-rule="evenodd" d="M13.7595 6.58099C10.2703 6.39732 7.54749 8.82777 6.94707 12.6317C6.44985 15.7819 7.33142 19.6205 8.08546 19.8136C8.4053 19.8956 9.1749 19.3047 9.73488 18.7746C9.84015 18.6749 9.99933 18.6582 10.1228 18.7339C10.9956 19.2697 11.9839 19.6724 13.0734 19.7298C16.6554 19.9183 19.8298 17.1041 20.0174 13.508C20.205 9.91191 17.3415 6.76955 13.7595 6.58099ZM7.91662 24.8434C7.78152 24.7474 7.5954 24.7734 7.48219 24.8947C5.96892 26.5149 2.0961 27.6514 1.91871 25.44C1.91871 23.7075 1.53105 22.2474 1.10423 20.6399C0.581485 18.6712 0 16.4811 0 13.2982C0 5.70811 6.20098 0 13.5532 0C20.9055 0 26.67 5.9868 26.67 13.3719C26.67 20.757 20.722 26.5964 13.6228 26.5964C11.1041 26.5964 9.88199 26.2403 7.91662 24.8434Z" fill="#00B4DD"/>
</g>
<defs>
<clipPath id="clip0_6554_7428">
<rect width="26.67" height="26.67" fill="white"/>
</clipPath>
</defs>
</svg>
