<svg width="27" height="27" viewBox="0 0 27 27" fill="none" xmlns="http://www.w3.org/2000/svg">
<g clip-path="url(#clip0_6554_7432)">
<mask id="mask0_6554_7432" style="mask-type:luminance" maskUnits="userSpaceOnUse" x="0" y="0" width="27" height="27">
<path d="M26.67 0H0V26.67H26.67V0Z" fill="white"/>
</mask>
<g mask="url(#mask0_6554_7432)">
<path fill-rule="evenodd" clip-rule="evenodd" d="M26.67 13.335C26.67 20.6998 20.6998 26.67 13.335 26.67C5.97029 26.67 0 20.6998 0 13.335C0 5.97029 5.97029 0 13.335 0C20.6998 0 26.67 5.97029 26.67 13.335ZM13.8119 9.84381C12.5149 10.3834 9.92266 11.4999 6.03524 13.1936C5.40398 13.4446 5.07331 13.6902 5.04321 13.9303C4.99232 14.3362 5.50053 14.496 6.19257 14.7136C6.2867 14.7432 6.38425 14.7738 6.48424 14.8064C7.1651 15.0277 8.08101 15.2866 8.55715 15.2969C8.98896 15.3062 9.47102 15.1281 10.0033 14.7627C13.6354 12.311 15.5103 11.0716 15.628 11.0449C15.711 11.0261 15.8261 11.0024 15.9042 11.0717C15.9821 11.141 15.9744 11.2722 15.9662 11.3075C15.9158 11.5221 13.9209 13.3768 12.8885 14.3365C12.5667 14.6357 12.3385 14.8479 12.2918 14.8964C12.1873 15.005 12.0807 15.1077 11.9783 15.2064C11.3458 15.8161 10.8714 16.2735 12.0046 17.0202C12.5491 17.379 12.9848 17.6757 13.4195 17.9717C13.8943 18.2951 14.3678 18.6175 14.9805 19.0192C15.1366 19.1215 15.2857 19.2277 15.4308 19.3312C15.9833 19.7251 16.4797 20.079 17.093 20.0226C17.4493 19.9898 17.8174 19.6547 18.0043 18.6555C18.4461 16.2938 19.3144 11.1769 19.515 9.0683C19.5326 8.88353 19.5105 8.64708 19.4928 8.54332C19.475 8.43955 19.4379 8.29164 19.303 8.18216C19.1432 8.05254 18.8965 8.0252 18.7863 8.02714C18.2847 8.036 17.5152 8.30357 13.8119 9.84381Z" fill="#00B4DD"/>
</g>
</g>
<defs>
<clipPath id="clip0_6554_7432">
<rect width="26.67" height="26.67" fill="white"/>
</clipPath>
</defs>
</svg>
