<svg width="57" height="64" viewBox="0 0 57 64" fill="none" xmlns="http://www.w3.org/2000/svg">
<path d="M25.2 0.8L2.7 13.8C1.1 14.7 0 16.6 0 18.5V44.5C0 46.5 1.1 48.3 2.8 49.3L25.3 62.3C27 63.3 29.1 63.3 30.8 62.3L53.3 49.3C55 48.3 56.1 46.5 56.1 44.5V18.5C56.1 16.5 55 14.7 53.3 13.7L30.8 0.7C29.9 0.2 29 0 28 0C27 0 26.1 0.3 25.2 0.8Z" fill="#4B9ED4"/>
<mask id="mask0_2227_1217" style="mask-type:luminance" maskUnits="userSpaceOnUse" x="0" y="0" width="57" height="64">
<path d="M25.2 0.8L2.7 13.8C1.1 14.7 0 16.6 0 18.5V44.5C0 46.5 1.1 48.3 2.8 49.3L25.3 62.3C27 63.3 29.1 63.3 30.8 62.3L53.3 49.3C55 48.3 56.1 46.5 56.1 44.5V18.5C56.1 16.5 55 14.7 53.3 13.7L30.8 0.7C29.9 0.2 29 0 28 0C27 0 26.1 0.3 25.2 0.8Z" fill="white"/>
</mask>
<g mask="url(#mask0_2227_1217)">
<path d="M56 44.5002V18.5002C56 16.5002 54.9 14.7002 53.2 13.7002L30.7 0.700195C29 -0.299805 26.9 -0.299805 25.2 0.700195L2.7 13.7002C1.1 14.7002 0 16.6002 0 18.5002V44.5002C0 46.5002 1.1 48.3002 2.8 49.3002L25.3 62.3002C27 63.3002 29.1 63.3002 30.8 62.3002L53.3 49.3002C54.9 48.3002 56 46.4002 56 44.5002Z" fill="#4B9ED4"/>
</g>
<path fill-rule="evenodd" clip-rule="evenodd" d="M25 28.6996V43.8996C25 44.1996 24.8 44.3996 24.5 44.3996C24.2 44.3996 24 44.1996 24 43.8996V28.6996C24 28.3996 24.2 28.1996 24.5 28.1996C24.8 28.1996 25 28.3996 25 28.6996ZM32 28.6996V43.8996C32 44.1996 31.8 44.3996 31.5 44.3996C31.2 44.3996 31 44.1996 31 43.8996V28.6996C31 28.3996 31.2 28.1996 31.5 28.1996C31.8 28.1996 32 28.3996 32 28.6996ZM28.5 28.6996V43.8996C28.5 44.1996 28.3 44.3996 28 44.3996C27.7 44.3996 27.5 44.1996 27.5 43.8996V28.6996C27.5 28.3996 27.7 28.1996 28 28.1996C28.3 28.1996 28.5 28.3996 28.5 28.6996ZM36.6 29.2996V41.8996L35.5 40.7996V30.3996L36.6 29.2996ZM35.6 46.4996C36.2 46.4996 36.6 45.9996 36.6 45.4996V43.4996L34.5 41.3996C34.4 41.2996 34.3 41.1996 34.3 40.9996V30.1996C34.3 30.0996 34.4 29.8996 34.5 29.7996L36.6 27.6996V25.1996C36.6 24.5996 36.1 24.1996 35.6 24.1996H30.7001V24.8996C30.7001 25.4996 30.2001 25.8996 29.7001 25.8996H26.3C25.7 25.8996 25.3 25.3996 25.3 24.8996V24.1996H20.4C19.8 24.1996 19.4 24.6996 19.4 25.1996V27.6996L21.5 29.7996C21.6 29.8996 21.7001 29.9996 21.7001 30.1996V40.9996C21.7001 41.0996 21.6 41.2996 21.5 41.3996L19.3 43.4996V45.4996C19.3 46.0996 19.8 46.4996 20.3 46.4996H20.6C21.3 45.7996 22.4 45.7996 23.1 46.4996H32.8C33.5 45.7996 34.6 45.7996 35.3 46.4996H35.6ZM34.1 48.2996C33.8 48.2996 33.5 47.9996 33.5 47.6996C33.5 47.3996 33.8 47.0996 34.1 47.0996C34.4 47.0996 34.7001 47.3996 34.7001 47.6996C34.7001 47.9996 34.4 48.2996 34.1 48.2996ZM21.9 48.2996C21.6 48.2996 21.3 47.9996 21.3 47.6996C21.3 47.3996 21.6 47.0996 21.9 47.0996C22.2 47.0996 22.5 47.3996 22.5 47.6996C22.5 47.9996 22.3 48.2996 21.9 48.2996ZM19.3 29.2996L20.4 30.3996V40.6996L19.3 41.7996V29.2996ZM26.4 24.2996H29.7001V24.9996H26.4V24.2996ZM24.8 16.4996C24.8 16.2996 25.0001 16.0996 25.2001 16.0996V16.4996C25.2001 16.9996 25.6 17.3996 26.1 17.3996H29.7001C30.2001 17.3996 30.6 16.9996 30.6 16.4996V16.0996C30.8 16.0996 31 16.2996 31 16.4996V23.1996H24.6L24.8 16.4996ZM26.4 14.6996V16.3996H29.7001V14.6996H26.4ZM35.6 23.1996H32.2001V16.4996C32.2001 15.6996 31.5001 14.9996 30.7001 14.9996V14.4996C30.7001 13.9996 30.3 13.5996 29.8 13.5996H26.2001C25.7001 13.5996 25.3 13.9996 25.3 14.4996V14.8996C24.5 14.8996 23.8 15.5996 23.8 16.3996V23.0996H20.4C19.2 23.0996 18.3 23.9996 18.3 25.1996V45.4996C18.3 46.5996 19.2001 47.4996 20.2001 47.5996C20.1001 48.5996 20.9 49.3996 21.9 49.3996C22.9 49.3996 23.7 48.5996 23.6 47.5996H32.3C32.2 48.5996 33 49.3996 34 49.3996C35 49.3996 35.8001 48.5996 35.7001 47.5996C36.8001 47.4996 37.6 46.5996 37.6 45.4996V25.3996C37.7 24.1996 36.8 23.1996 35.6 23.1996Z" fill="white"/>
</svg>
