<svg width="57" height="64" viewBox="0 0 57 64" fill="none" xmlns="http://www.w3.org/2000/svg">
<path d="M25.3 0.8L2.8 13.8C1.1 14.8 0 16.6 0 18.6V44.5C0 46.5 1 48.3 2.8 49.3L25.3 62.3C27 63.3 29.1 63.3 30.8 62.3L53.3 49.3C55 48.3 56.1 46.5 56.1 44.5V18.5C56.1 16.5 55 14.7 53.3 13.7L30.8 0.7C29.9 0.2 29 0 28 0C27.1 0 26.1 0.3 25.3 0.8Z" fill="#9BA957"/>
<mask id="mask0_2222_1146" style="mask-type:luminance" maskUnits="userSpaceOnUse" x="0" y="0" width="57" height="64">
<path d="M25.3 0.8L2.8 13.8C1.1 14.8 0 16.6 0 18.6V44.5C0 46.5 1 48.3 2.8 49.3L25.3 62.3C27 63.3 29.1 63.3 30.8 62.3L53.3 49.3C55 48.3 56.1 46.5 56.1 44.5V18.5C56.1 16.5 55 14.7 53.3 13.7L30.8 0.7C29.9 0.2 29 0 28 0C27.1 0 26.1 0.3 25.3 0.8Z" fill="white"/>
</mask>
<g mask="url(#mask0_2222_1146)">
<path d="M56 44.5002V18.5002C56 16.5002 54.9 14.7002 53.2 13.7002L30.7 0.700195C29 -0.299805 26.9 -0.299805 25.2 0.700195L2.70003 13.7002C1.00003 14.7002 -0.0999756 16.5002 -0.0999756 18.5002V44.5002C-0.0999756 46.5002 1.00003 48.3002 2.70003 49.3002L25.2 62.3002C26.9 63.3002 29 63.3002 30.7 62.3002L53.2 49.3002C54.9 48.3002 56 46.4002 56 44.5002Z" fill="#9BA957"/>
</g>
<path d="M11.7 36.1997L18.6 39.1997C18.6 39.3997 18.5 39.5997 18.5 39.6997C18.5 40.0997 18.6 40.3997 18.8 40.5997C19 40.7997 19.3 40.8997 19.7 40.8997C19.9 40.8997 20 40.8997 20.2 40.7997L23.2 47.6997C23.3 47.8997 23.4 47.9997 23.6 47.9997H23.7C23.9 47.9997 24 47.8997 24.1 47.7997L26 45.8997C26.1 45.7997 26.2 45.4997 26.1 45.2997L24.2 38.5997C26.4 37.0997 29.1 34.9997 31.9 32.4997L38.4 47.3997C38.5 47.5997 38.6 47.6997 38.8 47.6997C39 47.6997 39.2 47.6997 39.3 47.4997L41.8 44.9997C41.9 44.8997 42 44.5997 42 44.4997L40.5 38.3997L42.2 36.6997C42.5 36.3997 42.7 35.8997 42.7 35.3997C42.7 34.8997 42.5 34.3997 42.2 34.0997C41.9 33.7997 41.4 33.5997 40.9 33.5997C40.4 33.5997 39.9 33.7997 39.6 34.0997L39.3 34.3997L37.1 27.5997C40 24.5997 42.1 21.9997 43.4 19.8997C44 18.7997 44.4 17.8997 44.5 17.1997C44.7 16.2997 44.5 15.5997 44.1 15.1997C43.6 14.6997 43 14.5997 42.1 14.7997C41.4 14.8997 40.4 15.2997 39.4 15.8997C37.3 17.0997 34.7 19.1997 31.7 22.0997C30.7 21.7997 27.4 20.7997 24.8 19.9997L25 19.7997C25.3 19.4997 25.5 18.9997 25.5 18.4997C25.5 17.9997 25.3 17.4997 25 17.1997C24.7 16.8997 24.2 16.6997 23.7 16.6997C23.2 16.6997 22.7 16.8997 22.4 17.1997L20.7 18.8997L14.6 17.3997C14.4 17.2997 14.2 17.3997 14.1 17.5997L11.6 20.0997C11.5 20.1997 11.4 20.3997 11.4 20.5997C11.4 20.7997 11.6 20.8997 11.7 20.9997C15.3 22.5997 24 26.3997 26.5 27.4997C24.1 30.1997 22 32.7997 20.5 34.9997C19.4 34.6997 16.1 33.7997 13.8 33.1997C13.6 33.0997 13.4 33.1997 13.2 33.2997L11.3 35.1997C11.2 35.2997 11.1 35.4997 11.1 35.6997C11.4 35.9997 11.5 36.0997 11.7 36.1997ZM14 34.3997C14.6 34.5997 15.9 34.8997 17.2 35.2997C18.2 35.5997 19.1 35.7997 19.7 35.9997C20.1 36.0997 20.3 36.1997 20.5 36.1997C20.6 36.1997 20.7 36.1997 20.7 36.2997H20.8C21.1 36.3997 21.3 36.1997 21.4 36.0997C23 33.6997 25.3 30.7997 28 27.7997C28.1 27.6997 28.2 27.4997 28.1 27.2997C28 26.9997 27.8 26.8997 27.7 26.8997C27.7 26.8997 27.6 26.8997 27.6 26.7997C27.5 26.6997 27.3 26.6997 27.1 26.5997C26.7 26.3997 26.1 26.1997 25.3 25.7997C24 25.1997 22.2 24.3997 19.9 23.3997C17.1 22.1997 14.2 20.8997 12.9 20.2997L14.6 18.5997L20.7 20.0997C20.9 20.1997 21.1 20.0997 21.2 19.8997L23.1 17.9997C23.2 17.8997 23.4 17.7997 23.6 17.7997C23.8 17.7997 24 17.8997 24.1 17.9997C24.2 18.0997 24.3 18.2997 24.3 18.4997C24.3 18.6997 24.2 18.8997 24.1 18.9997L23.2 19.8997C23.1 19.9997 23 20.1997 23 20.3997C23 20.5997 23.2 20.7997 23.4 20.7997C23.4 20.7997 25.5 21.3997 27.5 21.9997C28.7 22.3997 29.6 22.5997 30.3 22.8997C30.7 22.9997 31 23.0997 31.2 23.1997C31.3 23.1997 31.4 23.2997 31.5 23.2997C31.6 23.2997 31.9 23.3997 32.1 23.1997C35 20.2997 37.7 18.1997 39.8 16.9997C41.7 15.8997 42.8 15.7997 43.1 16.0997C43.4 16.3997 43.4 17.4997 42.2 19.3997C41 21.4997 38.8 24.1997 35.9 27.1997C35.8 27.3997 35.7 27.5997 35.8 27.7997L38.4 35.7997C38.5 35.9997 38.6 36.0997 38.8 36.1997C39 36.1997 39.2 36.1997 39.3 35.9997L40.2 35.0997C40.3 34.9997 40.5 34.8997 40.7 34.8997C40.9 34.8997 41.1 34.9997 41.2 35.0997C41.3 35.1997 41.4 35.3997 41.4 35.5997C41.4 35.7997 41.3 35.9997 41.2 36.0997L39.3 37.9997C39.2 38.0997 39.1 38.3997 39.1 38.4997L40.6 44.5997L38.9 46.2997L32.8 31.4997C32.7 31.2997 32.6 31.1997 32.4 31.1997C32.2 31.1997 32 31.1997 31.9 31.2997C28.9 33.9997 25.8 36.4997 23.4 37.9997C23.2 38.0997 23.1 38.3997 23.2 38.5997L25.1 45.3997L24 46.4997L21.1 39.8997C21 39.6997 20.8 39.5997 20.6 39.5997C20.5 39.5997 20.5 39.5997 20.4 39.5997C19.9 39.7997 19.7 39.6997 19.6 39.6997C19.6 39.5997 19.6 39.3997 19.7 38.8997C19.8 38.5997 19.7 38.2997 19.4 38.1997L12.8 35.3997L14 34.3997Z" fill="white"/>
</svg>
